<svg width="648" height="554" viewBox="0 0 648 554" fill="none" xmlns="http://www.w3.org/2000/svg">
<mask id="path-1-inside-1_428_1579" fill="white">
<path d="M555.526 210.83C544.681 158.295 514.346 111.816 470.623 80.7389C426.9 49.662 373.032 36.2927 319.852 43.3199C266.672 50.347 218.126 77.2494 183.975 118.617C149.825 159.984 132.604 212.747 135.777 266.295L347.658 253.743L555.526 210.83Z"/>
</mask>
<path d="M555.526 210.83C544.681 158.295 514.346 111.816 470.623 80.7389C426.9 49.662 373.032 36.2927 319.852 43.3199C266.672 50.347 218.126 77.2494 183.975 118.617C149.825 159.984 132.604 212.747 135.777 266.295L347.658 253.743L555.526 210.83Z" fill="#4BE05A" stroke="url(#paint0_linear_428_1579)" stroke-width="1.04816" mask="url(#path-1-inside-1_428_1579)"/>
<mask id="path-2-inside-2_428_1579" fill="white">
<path d="M479.566 424.464C510.013 400.362 533.264 368.368 546.788 331.966C560.312 295.565 563.591 256.15 556.267 218.015L347.824 258.046L479.566 424.464Z"/>
</mask>
<path d="M479.566 424.464C510.013 400.362 533.264 368.368 546.788 331.966C560.312 295.565 563.591 256.15 556.267 218.015L347.824 258.046L479.566 424.464Z" fill="#05E9F0" stroke="url(#paint1_linear_428_1579)" stroke-width="1.04816" mask="url(#path-2-inside-2_428_1579)"/>
<mask id="path-3-inside-3_428_1579" fill="white">
<path d="M368.002 469.336C403.951 465.903 438.43 453.355 468.177 432.878L347.825 258.045L368.002 469.336Z"/>
</mask>
<path d="M368.002 469.336C403.951 465.903 438.43 453.355 468.177 432.878L347.825 258.045L368.002 469.336Z" fill="#2943DE" stroke="url(#paint2_linear_428_1579)" stroke-width="1.04816" mask="url(#path-3-inside-3_428_1579)"/>
<mask id="path-4-inside-4_428_1579" fill="white">
<path d="M283.41 460.287C305.491 467.319 328.573 470.689 351.743 470.261L347.824 258.045L283.41 460.287Z"/>
</mask>
<path d="M283.41 460.287C305.491 467.319 328.573 470.689 351.743 470.261L347.824 258.045L283.41 460.287Z" fill="#B2FDFF" stroke="url(#paint3_linear_428_1579)" stroke-width="1.04816" mask="url(#path-4-inside-4_428_1579)"/>
<mask id="path-5-inside-5_428_1579" fill="white">
<path d="M175.231 381.587C199.287 415.193 232.63 441.046 271.17 455.972L347.825 258.045L175.231 381.587Z"/>
</mask>
<path d="M175.231 381.587C199.287 415.193 232.63 441.046 271.17 455.972L347.825 258.045L175.231 381.587Z" fill="#8B86FF" stroke="url(#paint4_linear_428_1579)" stroke-width="1.04816" mask="url(#path-5-inside-5_428_1579)"/>
<mask id="path-6-inside-6_428_1579" fill="white">
<path d="M136.357 276.28C139.319 310.621 150.599 343.724 169.222 372.728L347.825 258.044L136.357 276.28Z"/>
</mask>
<path d="M136.357 276.28C139.319 310.621 150.599 343.724 169.222 372.728L347.825 258.044L136.357 276.28Z" fill="#544CF9" stroke="url(#paint5_linear_428_1579)" stroke-width="1.04816" mask="url(#path-6-inside-6_428_1579)"/>
<path d="M302.942 172.593V170.393L313.942 159.393H316.142V170.393H318.342V172.593H316.142V174.793H313.942V172.593H302.942ZM313.942 170.393V162.495L306.044 170.393H313.942ZM333.076 170.393V163.793C333.076 162.583 332.086 161.593 330.876 161.593H324.276C323.066 161.593 322.076 162.583 322.076 163.793V170.393C322.076 171.603 323.066 172.593 324.276 172.593H330.876C332.086 172.593 333.076 171.603 333.076 170.393ZM335.276 163.793V170.393C335.276 172.725 333.34 174.793 330.876 174.793H324.276C321.922 174.793 319.876 172.879 319.876 170.393V163.793C319.876 161.461 321.812 159.393 324.276 159.393H330.876C333.23 159.393 335.21 161.351 335.276 163.793ZM352.222 159.393V161.175L341.596 174.793H340.122V173.099L350.836 159.393H352.222ZM341.222 165.993C342.432 165.993 343.422 165.003 343.422 163.793C343.422 162.583 342.432 161.593 341.222 161.593C340.012 161.593 339.022 162.583 339.022 163.793C339.022 165.003 340.012 165.993 341.222 165.993ZM345.622 163.793C345.622 166.125 343.686 168.193 341.222 168.193C338.868 168.193 336.822 166.279 336.822 163.793C336.822 161.461 338.758 159.393 341.222 159.393C343.576 159.393 345.556 161.351 345.622 163.793ZM351.122 172.593C352.332 172.593 353.322 171.603 353.322 170.393C353.322 169.183 352.332 168.193 351.122 168.193C349.912 168.193 348.922 169.183 348.922 170.393C348.922 171.603 349.912 172.593 351.122 172.593ZM355.522 170.393C355.522 172.725 353.586 174.793 351.122 174.793C348.768 174.793 346.722 172.879 346.722 170.393C346.722 168.061 348.658 165.993 351.122 165.993C353.476 165.993 355.456 167.951 355.522 170.393Z" fill="#1C195B"/>
<path d="M449.357 301.75V302.85H462.557V305.05H447.157V301.75C447.157 299.418 449.093 297.35 451.557 297.35H458.157C459.367 297.35 460.357 296.36 460.357 295.15V294.05C460.357 292.84 459.367 291.85 458.157 291.85H451.557C450.347 291.85 449.357 292.84 449.357 294.05H447.157C447.157 291.718 449.093 289.65 451.557 289.65H458.157C460.467 289.65 462.557 291.608 462.557 294.05V295.15C462.557 297.482 460.621 299.55 458.157 299.55H451.557C450.347 299.55 449.357 300.54 449.357 301.75ZM477.523 300.65V294.05C477.523 292.84 476.533 291.85 475.323 291.85H468.723C467.513 291.85 466.523 292.84 466.523 294.05V300.65C466.523 301.86 467.513 302.85 468.723 302.85H475.323C476.533 302.85 477.523 301.86 477.523 300.65ZM479.723 294.05V300.65C479.723 302.982 477.787 305.05 475.323 305.05H468.723C466.369 305.05 464.323 303.136 464.323 300.65V294.05C464.323 291.718 466.259 289.65 468.723 289.65H475.323C477.677 289.65 479.657 291.608 479.723 294.05ZM496.669 289.65V291.432L486.043 305.05H484.569V303.356L495.283 289.65H496.669ZM485.669 296.25C486.879 296.25 487.869 295.26 487.869 294.05C487.869 292.84 486.879 291.85 485.669 291.85C484.459 291.85 483.469 292.84 483.469 294.05C483.469 295.26 484.459 296.25 485.669 296.25ZM490.069 294.05C490.069 296.382 488.133 298.45 485.669 298.45C483.315 298.45 481.269 296.536 481.269 294.05C481.269 291.718 483.205 289.65 485.669 289.65C488.023 289.65 490.003 291.608 490.069 294.05ZM495.569 302.85C496.779 302.85 497.769 301.86 497.769 300.65C497.769 299.44 496.779 298.45 495.569 298.45C494.359 298.45 493.369 299.44 493.369 300.65C493.369 301.86 494.359 302.85 495.569 302.85ZM499.969 300.65C499.969 302.982 498.033 305.05 495.569 305.05C493.215 305.05 491.169 303.136 491.169 300.65C491.169 298.318 493.105 296.25 495.569 296.25C497.923 296.25 499.903 298.208 499.969 300.65Z" fill="#28368B"/>
<path d="M375.007 378.787L378.607 375.187H380.407V387.787H378.607V377.725L375.745 380.587H375.007V378.787ZM392.833 384.187V378.787C392.833 377.797 392.023 376.987 391.033 376.987H385.633C384.643 376.987 383.833 377.797 383.833 378.787V384.187C383.833 385.177 384.643 385.987 385.633 385.987H391.033C392.023 385.987 392.833 385.177 392.833 384.187ZM394.633 378.787V384.187C394.633 386.095 393.049 387.787 391.033 387.787H385.633C383.707 387.787 382.033 386.221 382.033 384.187V378.787C382.033 376.879 383.617 375.187 385.633 375.187H391.033C392.959 375.187 394.579 376.789 394.633 378.787ZM408.498 375.187V376.645L399.804 387.787H398.598V386.401L407.364 375.187H408.498ZM399.498 380.587C400.488 380.587 401.298 379.777 401.298 378.787C401.298 377.797 400.488 376.987 399.498 376.987C398.508 376.987 397.698 377.797 397.698 378.787C397.698 379.777 398.508 380.587 399.498 380.587ZM403.098 378.787C403.098 380.695 401.514 382.387 399.498 382.387C397.572 382.387 395.898 380.821 395.898 378.787C395.898 376.879 397.482 375.187 399.498 375.187C401.424 375.187 403.044 376.789 403.098 378.787ZM407.598 385.987C408.588 385.987 409.398 385.177 409.398 384.187C409.398 383.197 408.588 382.387 407.598 382.387C406.608 382.387 405.798 383.197 405.798 384.187C405.798 385.177 406.608 385.987 407.598 385.987ZM411.198 384.187C411.198 386.095 409.614 387.787 407.598 387.787C405.672 387.787 403.998 386.221 403.998 384.187C403.998 382.279 405.582 380.587 407.598 380.587C409.524 380.587 411.144 382.189 411.198 384.187Z" fill="white"/>
<path d="M233.211 366.695L236.811 363.095H238.611V375.695H236.811V365.633L233.949 368.495H233.211V366.695ZM252.298 364.895H242.758V367.775H249.418C251.308 367.775 253.018 369.377 253.018 371.375V372.095C253.018 374.003 251.434 375.695 249.418 375.695H244.018C242.056 375.695 240.472 374.129 240.418 372.095H242.218C242.218 373.085 243.028 373.895 244.018 373.895H249.418C250.408 373.895 251.218 373.085 251.218 372.095V371.375C251.218 370.385 250.408 369.575 249.418 369.575H240.958V363.095H252.298V364.895ZM266.878 363.095V364.553L258.184 375.695H256.978V374.309L265.744 363.095H266.878ZM257.878 368.495C258.868 368.495 259.678 367.685 259.678 366.695C259.678 365.705 258.868 364.895 257.878 364.895C256.888 364.895 256.078 365.705 256.078 366.695C256.078 367.685 256.888 368.495 257.878 368.495ZM261.478 366.695C261.478 368.603 259.894 370.295 257.878 370.295C255.952 370.295 254.278 368.729 254.278 366.695C254.278 364.787 255.862 363.095 257.878 363.095C259.804 363.095 261.424 364.697 261.478 366.695ZM265.978 373.895C266.968 373.895 267.778 373.085 267.778 372.095C267.778 371.105 266.968 370.295 265.978 370.295C264.988 370.295 264.178 371.105 264.178 372.095C264.178 373.085 264.988 373.895 265.978 373.895ZM269.578 372.095C269.578 374.003 267.994 375.695 265.978 375.695C264.052 375.695 262.378 374.129 262.378 372.095C262.378 370.187 263.962 368.495 265.978 368.495C267.904 368.495 269.524 370.097 269.578 372.095Z" fill="white"/>
<path d="M193.639 304.59L197.239 300.99H199.039V313.59H197.239V303.528L194.377 306.39H193.639V304.59ZM211.465 309.99V304.59C211.465 303.6 210.655 302.79 209.665 302.79H204.265C203.275 302.79 202.465 303.6 202.465 304.59V309.99C202.465 310.98 203.275 311.79 204.265 311.79H209.665C210.655 311.79 211.465 310.98 211.465 309.99ZM213.265 304.59V309.99C213.265 311.898 211.681 313.59 209.665 313.59H204.265C202.339 313.59 200.665 312.024 200.665 309.99V304.59C200.665 302.682 202.249 300.99 204.265 300.99H209.665C211.591 300.99 213.211 302.592 213.265 304.59ZM227.13 300.99V302.448L218.436 313.59H217.23V312.204L225.996 300.99H227.13ZM218.13 306.39C219.12 306.39 219.93 305.58 219.93 304.59C219.93 303.6 219.12 302.79 218.13 302.79C217.14 302.79 216.33 303.6 216.33 304.59C216.33 305.58 217.14 306.39 218.13 306.39ZM221.73 304.59C221.73 306.498 220.146 308.19 218.13 308.19C216.204 308.19 214.53 306.624 214.53 304.59C214.53 302.682 216.114 300.99 218.13 300.99C220.056 300.99 221.676 302.592 221.73 304.59ZM226.23 311.79C227.22 311.79 228.03 310.98 228.03 309.99C228.03 309 227.22 308.19 226.23 308.19C225.24 308.19 224.43 309 224.43 309.99C224.43 310.98 225.24 311.79 226.23 311.79ZM229.83 309.99C229.83 311.898 228.246 313.59 226.23 313.59C224.304 313.59 222.63 312.024 222.63 309.99C222.63 308.082 224.214 306.39 226.23 306.39C228.156 306.39 229.776 307.992 229.83 309.99Z" fill="white"/>
<path d="M321.78 413.2H312.24V416.08H318.9C320.79 416.08 322.5 417.682 322.5 419.68V420.4C322.5 422.308 320.916 424 318.9 424H313.5C311.538 424 309.954 422.434 309.9 420.4H311.7C311.7 421.39 312.51 422.2 313.5 422.2H318.9C319.89 422.2 320.7 421.39 320.7 420.4V419.68C320.7 418.69 319.89 417.88 318.9 417.88H310.44V411.4H321.78V413.2ZM336.361 411.4V412.858L327.667 424H326.461V422.614L335.227 411.4H336.361ZM327.361 416.8C328.351 416.8 329.161 415.99 329.161 415C329.161 414.01 328.351 413.2 327.361 413.2C326.371 413.2 325.561 414.01 325.561 415C325.561 415.99 326.371 416.8 327.361 416.8ZM330.961 415C330.961 416.908 329.377 418.6 327.361 418.6C325.435 418.6 323.761 417.034 323.761 415C323.761 413.092 325.345 411.4 327.361 411.4C329.287 411.4 330.907 413.002 330.961 415ZM335.461 422.2C336.451 422.2 337.261 421.39 337.261 420.4C337.261 419.41 336.451 418.6 335.461 418.6C334.471 418.6 333.661 419.41 333.661 420.4C333.661 421.39 334.471 422.2 335.461 422.2ZM339.061 420.4C339.061 422.308 337.477 424 335.461 424C333.535 424 331.861 422.434 331.861 420.4C331.861 418.492 333.445 416.8 335.461 416.8C337.387 416.8 339.007 418.402 339.061 420.4Z" fill="#1C195B"/>
<path fill-rule="evenodd" clip-rule="evenodd" d="M548.592 308.765L531.465 293.844L545.173 313.683C544.837 314.709 544.656 315.804 544.656 316.941V324.057C544.656 329.832 549.337 334.514 555.113 334.514H637.524C643.299 334.514 647.981 329.832 647.981 324.057V316.941C647.981 311.166 643.299 306.484 637.524 306.484H555.113C552.647 306.484 550.38 307.338 548.592 308.765Z" fill="#140D83"/>
<path d="M557.381 325.067V315.967H558.831V322.688L563.381 315.967H564.785V325.067H563.342V318.301L558.772 325.067H557.381ZM566.968 325.067V318.632H568.398V321.115H571.622V318.632H573.052V325.067H571.622V322.298H568.398V325.067H566.968ZM575.042 325.067V318.632H578.11C578.838 318.632 579.421 318.771 579.859 319.048C580.297 319.326 580.515 319.742 580.515 320.296C580.515 320.556 580.453 320.788 580.327 320.992C580.201 321.191 580.028 321.358 579.807 321.492C579.586 321.627 579.328 321.724 579.033 321.785L579.007 321.466C579.575 321.544 580.015 321.733 580.327 322.032C580.639 322.331 580.795 322.71 580.795 323.169C580.795 323.559 580.693 323.897 580.489 324.183C580.286 324.465 579.993 324.684 579.612 324.84C579.231 324.992 578.773 325.067 578.24 325.067H575.042ZM576.427 324.008H578.045C578.474 324.008 578.804 323.936 579.033 323.793C579.267 323.65 579.384 323.436 579.384 323.15C579.384 322.868 579.27 322.658 579.04 322.519C578.81 322.376 578.479 322.305 578.045 322.305H576.238V321.284H577.896C578.299 321.284 578.611 321.224 578.832 321.102C579.053 320.977 579.163 320.773 579.163 320.491C579.163 320.21 579.053 320.006 578.832 319.88C578.611 319.75 578.299 319.685 577.896 319.685H576.427V324.008ZM585.344 325.262C584.65 325.262 584.042 325.122 583.517 324.84C582.993 324.554 582.583 324.155 582.289 323.644C581.998 323.133 581.853 322.539 581.853 321.863C581.853 321.369 581.938 320.914 582.107 320.498C582.276 320.078 582.514 319.714 582.822 319.406C583.129 319.098 583.489 318.86 583.901 318.691C584.317 318.522 584.77 318.437 585.259 318.437C585.792 318.437 586.267 318.533 586.683 318.723C587.099 318.91 587.443 319.172 587.716 319.51C587.994 319.848 588.189 320.244 588.301 320.699C588.418 321.15 588.438 321.64 588.36 322.168H583.225C583.216 322.554 583.301 322.892 583.478 323.182C583.656 323.468 583.909 323.692 584.239 323.852C584.572 324.012 584.965 324.092 585.415 324.092C585.779 324.092 586.13 324.038 586.468 323.93C586.811 323.817 587.12 323.653 587.398 323.436L587.95 324.463C587.742 324.632 587.491 324.777 587.196 324.898C586.902 325.015 586.594 325.104 586.273 325.165C585.953 325.23 585.643 325.262 585.344 325.262ZM583.309 321.115H586.956C586.943 320.63 586.787 320.249 586.488 319.971C586.193 319.694 585.773 319.555 585.227 319.555C584.698 319.555 584.258 319.694 583.907 319.971C583.561 320.249 583.361 320.63 583.309 321.115ZM592.86 325.262C592.184 325.262 591.581 325.115 591.053 324.82C590.524 324.521 590.108 324.116 589.805 323.605C589.506 323.089 589.356 322.504 589.356 321.85C589.356 321.356 589.445 320.903 589.623 320.491C589.8 320.075 590.052 319.714 590.377 319.406C590.702 319.098 591.083 318.86 591.521 318.691C591.963 318.522 592.441 318.437 592.957 318.437C593.39 318.437 593.791 318.496 594.16 318.613C594.532 318.726 594.875 318.901 595.187 319.139L594.498 320.231C594.298 320.054 594.069 319.922 593.809 319.835C593.553 319.748 593.28 319.705 592.99 319.705C592.539 319.705 592.151 319.789 591.826 319.958C591.501 320.127 591.248 320.372 591.066 320.693C590.888 321.009 590.799 321.393 590.799 321.843C590.799 322.515 590.994 323.042 591.384 323.423C591.778 323.804 592.314 323.995 592.99 323.995C593.31 323.995 593.614 323.936 593.9 323.819C594.186 323.698 594.424 323.54 594.615 323.345L595.297 324.43C594.955 324.69 594.573 324.894 594.153 325.041C593.733 325.189 593.302 325.262 592.86 325.262ZM598.048 325.067V319.815H595.936V318.632H601.597V319.815H599.478V325.067H598.048ZM605.84 325.262C605.168 325.262 604.568 325.109 604.04 324.801C603.515 324.489 603.104 324.075 602.805 323.559C602.506 323.039 602.356 322.47 602.356 321.85C602.356 321.391 602.441 320.957 602.61 320.55C602.783 320.138 603.026 319.774 603.338 319.458C603.654 319.142 604.024 318.892 604.449 318.71C604.874 318.528 605.34 318.437 605.847 318.437C606.518 318.437 607.116 318.593 607.641 318.905C608.169 319.213 608.583 319.627 608.882 320.147C609.181 320.663 609.331 321.23 609.331 321.85C609.331 322.305 609.244 322.738 609.071 323.15C608.902 323.562 608.661 323.926 608.349 324.242C608.037 324.558 607.669 324.807 607.244 324.989C606.819 325.171 606.351 325.262 605.84 325.262ZM605.84 323.995C606.239 323.995 606.592 323.908 606.9 323.735C607.212 323.557 607.456 323.308 607.634 322.987C607.812 322.667 607.901 322.288 607.901 321.85C607.901 321.412 607.812 321.033 607.634 320.712C607.456 320.387 607.212 320.138 606.9 319.965C606.592 319.792 606.239 319.705 605.84 319.705C605.441 319.705 605.086 319.792 604.774 319.965C604.466 320.138 604.224 320.387 604.046 320.712C603.873 321.033 603.786 321.412 603.786 321.85C603.786 322.288 603.875 322.667 604.053 322.987C604.23 323.308 604.473 323.557 604.781 323.735C605.093 323.908 605.446 323.995 605.84 323.995ZM610.767 327.797V318.632H612.054V319.536C612.31 319.211 612.637 318.947 613.036 318.743C613.434 318.539 613.926 318.437 614.511 318.437C615.139 318.437 615.696 318.587 616.182 318.886C616.671 319.181 617.053 319.586 617.326 320.101C617.599 320.613 617.735 321.196 617.735 321.85C617.735 322.322 617.657 322.766 617.501 323.182C617.345 323.594 617.122 323.956 616.832 324.268C616.546 324.58 616.203 324.825 615.805 325.002C615.41 325.176 614.973 325.262 614.492 325.262C613.989 325.262 613.547 325.171 613.166 324.989C612.784 324.807 612.459 324.563 612.191 324.255V327.797H610.767ZM614.251 323.995C614.65 323.995 615.003 323.908 615.311 323.735C615.623 323.557 615.865 323.308 616.039 322.987C616.216 322.667 616.305 322.288 616.305 321.85C616.305 321.412 616.216 321.033 616.039 320.712C615.861 320.387 615.616 320.138 615.304 319.965C614.996 319.792 614.645 319.705 614.251 319.705C613.852 319.705 613.497 319.792 613.185 319.965C612.877 320.138 612.635 320.387 612.457 320.712C612.279 321.033 612.191 321.412 612.191 321.85C612.191 322.288 612.279 322.667 612.457 322.987C612.635 323.308 612.877 323.557 613.185 323.735C613.497 323.908 613.852 323.995 614.251 323.995ZM620.959 325.262C620.513 325.262 620.12 325.18 619.782 325.015C619.444 324.846 619.18 324.61 618.989 324.307C618.803 323.999 618.71 323.637 618.71 323.221C618.71 322.87 618.799 322.554 618.976 322.272C619.154 321.986 619.429 321.75 619.802 321.564C620.179 321.378 620.662 321.254 621.251 321.193C621.841 321.128 622.549 321.137 623.377 321.219L623.403 322.207C622.814 322.125 622.307 322.09 621.882 322.103C621.457 322.116 621.108 322.171 620.835 322.266C620.567 322.357 620.367 322.48 620.237 322.636C620.112 322.788 620.049 322.964 620.049 323.163C620.049 323.475 620.159 323.715 620.38 323.884C620.606 324.053 620.913 324.138 621.303 324.138C621.637 324.138 621.936 324.077 622.2 323.956C622.465 323.835 622.673 323.663 622.824 323.442C622.98 323.221 623.058 322.961 623.058 322.662V320.953C623.058 320.667 622.998 320.42 622.876 320.212C622.755 320 622.571 319.835 622.324 319.718C622.077 319.601 621.769 319.542 621.401 319.542C621.063 319.542 620.729 319.594 620.4 319.698C620.071 319.798 619.756 319.956 619.457 320.173L619.054 319.12C619.457 318.847 619.878 318.654 620.315 318.541C620.753 318.429 621.173 318.372 621.576 318.372C622.174 318.372 622.686 318.468 623.11 318.658C623.539 318.845 623.869 319.129 624.098 319.51C624.328 319.887 624.443 320.364 624.443 320.94V325.067H623.156V324.307C622.939 324.615 622.638 324.851 622.252 325.015C621.867 325.18 621.436 325.262 620.959 325.262ZM626.344 325.067V318.632H627.586H627.625L630.511 322.805L629.893 322.818L632.636 318.632H633.904V325.067H632.604L632.623 320.309L632.89 320.426L630.589 323.787H629.666L627.261 320.42L627.527 320.303L627.547 325.067H626.344Z" fill="white"/>
<path fill-rule="evenodd" clip-rule="evenodd" d="M422.181 460.454L405.054 445.533L418.762 465.372C418.426 466.397 418.245 467.492 418.245 468.629V492.233C418.245 498.008 422.927 502.69 428.702 502.69H511.663C517.438 502.69 522.12 498.008 522.12 492.233V468.629C522.12 462.854 517.438 458.172 511.663 458.172H428.702C426.236 458.172 423.969 459.026 422.181 460.454Z" fill="#140D83"/>
<path d="M433.564 476.952C432.927 476.952 432.307 476.863 431.705 476.685C431.107 476.503 430.585 476.239 430.139 475.892L430.828 474.729C431.231 475.032 431.666 475.255 432.134 475.398C432.606 475.537 433.092 475.606 433.59 475.606C434.249 475.606 434.819 475.476 435.3 475.216C435.785 474.952 436.158 474.562 436.418 474.046C436.678 473.531 436.808 472.887 436.808 472.116C436.808 471.401 436.675 470.796 436.411 470.302C436.151 469.808 435.783 469.434 435.306 469.178C434.834 468.922 434.279 468.794 433.642 468.794C433.135 468.794 432.669 468.862 432.245 468.996C431.824 469.13 431.449 469.332 431.12 469.6L430.425 468.528C430.81 468.194 431.28 467.934 431.835 467.748C432.39 467.557 433.005 467.462 433.681 467.462C434.591 467.462 435.386 467.657 436.067 468.047C436.751 468.433 437.282 468.974 437.659 469.672C438.04 470.37 438.231 471.182 438.231 472.109C438.231 472.846 438.118 473.513 437.893 474.111C437.672 474.709 437.354 475.221 436.938 475.645C436.526 476.066 436.034 476.389 435.462 476.614C434.894 476.839 434.262 476.952 433.564 476.952ZM431.926 472.59V471.414H437.165V472.59H431.926ZM444.124 476.757L441.992 473.338L443.974 470.322H445.502L443.532 473.273L445.833 476.757H444.124ZM439.847 476.757V470.322H441.277V472.805H443.214V473.988H441.277V476.757H439.847ZM449.92 476.952C449.244 476.952 448.641 476.805 448.113 476.51C447.584 476.211 447.168 475.806 446.865 475.294C446.566 474.779 446.416 474.194 446.416 473.539C446.416 473.045 446.505 472.593 446.683 472.181C446.86 471.765 447.112 471.403 447.437 471.095C447.762 470.788 448.143 470.549 448.581 470.38C449.023 470.211 449.501 470.127 450.017 470.127C450.45 470.127 450.851 470.185 451.22 470.302C451.592 470.415 451.935 470.591 452.247 470.829L451.558 471.921C451.358 471.743 451.129 471.611 450.869 471.524C450.613 471.438 450.34 471.394 450.05 471.394C449.599 471.394 449.211 471.479 448.886 471.648C448.561 471.817 448.308 472.062 448.126 472.382C447.948 472.699 447.859 473.082 447.859 473.533C447.859 474.205 448.054 474.731 448.444 475.112C448.838 475.494 449.374 475.684 450.05 475.684C450.37 475.684 450.674 475.626 450.96 475.509C451.246 475.388 451.484 475.229 451.675 475.034L452.357 476.12C452.015 476.38 451.633 476.584 451.213 476.731C450.793 476.878 450.362 476.952 449.92 476.952ZM453.672 476.757V470.322H459.749V476.757H458.319V471.505H455.102V476.757H453.672ZM464.671 476.952C463.978 476.952 463.369 476.811 462.845 476.529C462.32 476.243 461.911 475.845 461.616 475.333C461.326 474.822 461.181 474.228 461.181 473.552C461.181 473.058 461.265 472.603 461.434 472.187C461.603 471.767 461.842 471.403 462.149 471.095C462.457 470.788 462.817 470.549 463.228 470.38C463.644 470.211 464.097 470.127 464.587 470.127C465.12 470.127 465.594 470.222 466.01 470.413C466.426 470.599 466.771 470.861 467.044 471.199C467.321 471.537 467.516 471.934 467.629 472.389C467.746 472.84 467.765 473.329 467.687 473.858H462.552C462.544 474.244 462.628 474.582 462.806 474.872C462.983 475.158 463.237 475.381 463.566 475.541C463.9 475.702 464.292 475.782 464.743 475.782C465.107 475.782 465.458 475.728 465.796 475.619C466.138 475.507 466.448 475.342 466.725 475.125L467.278 476.152C467.07 476.321 466.818 476.467 466.524 476.588C466.229 476.705 465.921 476.794 465.601 476.854C465.28 476.919 464.97 476.952 464.671 476.952ZM462.637 472.805H466.283C466.27 472.32 466.114 471.938 465.815 471.661C465.521 471.384 465.1 471.245 464.554 471.245C464.026 471.245 463.586 471.384 463.235 471.661C462.888 471.938 462.689 472.32 462.637 472.805ZM469.173 479.487V470.322H470.46V471.225C470.715 470.9 471.043 470.636 471.441 470.432C471.84 470.229 472.332 470.127 472.917 470.127C473.545 470.127 474.102 470.276 474.587 470.575C475.077 470.87 475.458 471.275 475.731 471.791C476.004 472.302 476.141 472.885 476.141 473.539C476.141 474.012 476.063 474.456 475.907 474.872C475.751 475.284 475.528 475.645 475.237 475.957C474.951 476.269 474.609 476.514 474.21 476.692C473.816 476.865 473.378 476.952 472.897 476.952C472.395 476.952 471.953 476.861 471.571 476.679C471.19 476.497 470.865 476.252 470.596 475.944V479.487H469.173ZM472.657 475.684C473.055 475.684 473.409 475.598 473.716 475.424C474.028 475.247 474.271 474.998 474.444 474.677C474.622 474.356 474.711 473.977 474.711 473.539C474.711 473.102 474.622 472.723 474.444 472.402C474.267 472.077 474.022 471.828 473.71 471.654C473.402 471.481 473.051 471.394 472.657 471.394C472.258 471.394 471.903 471.481 471.591 471.654C471.283 471.828 471.04 472.077 470.863 472.402C470.685 472.723 470.596 473.102 470.596 473.539C470.596 473.977 470.685 474.356 470.863 474.677C471.04 474.998 471.283 475.247 471.591 475.424C471.903 475.598 472.258 475.684 472.657 475.684ZM479.014 476.757V471.505H476.901V470.322H482.563V471.505H480.444V476.757H479.014ZM483.874 476.757V470.322H485.304V472.805H488.528V470.322H489.958V476.757H488.528V473.988H485.304V476.757H483.874ZM494.88 476.952C494.208 476.952 493.608 476.798 493.079 476.49C492.555 476.178 492.143 475.765 491.844 475.249C491.545 474.729 491.396 474.159 491.396 473.539C491.396 473.08 491.48 472.647 491.649 472.239C491.822 471.828 492.065 471.464 492.377 471.147C492.693 470.831 493.064 470.582 493.489 470.4C493.913 470.218 494.379 470.127 494.886 470.127C495.558 470.127 496.156 470.283 496.68 470.595C497.209 470.903 497.623 471.316 497.922 471.836C498.221 472.352 498.37 472.92 498.37 473.539C498.37 473.994 498.283 474.428 498.11 474.839C497.941 475.251 497.701 475.615 497.389 475.931C497.077 476.248 496.708 476.497 496.284 476.679C495.859 476.861 495.391 476.952 494.88 476.952ZM494.88 475.684C495.278 475.684 495.631 475.598 495.939 475.424C496.251 475.247 496.496 474.998 496.674 474.677C496.851 474.356 496.94 473.977 496.94 473.539C496.94 473.102 496.851 472.723 496.674 472.402C496.496 472.077 496.251 471.828 495.939 471.654C495.631 471.481 495.278 471.394 494.88 471.394C494.481 471.394 494.126 471.481 493.814 471.654C493.506 471.828 493.263 472.077 493.086 472.402C492.912 472.723 492.826 473.102 492.826 473.539C492.826 473.977 492.914 474.356 493.092 474.677C493.27 474.998 493.512 475.247 493.82 475.424C494.132 475.598 494.485 475.684 494.88 475.684ZM499.807 476.757V470.322H501.191V474.664L504.682 470.322H505.93V476.757H504.552V472.363L501.029 476.757H499.807ZM502.868 469.217C502.387 469.217 501.965 469.117 501.601 468.918C501.237 468.719 500.955 468.443 500.756 468.092C500.556 467.741 500.463 467.338 500.476 466.883H501.672C501.655 467.282 501.754 467.605 501.971 467.852C502.192 468.095 502.491 468.216 502.868 468.216C503.245 468.216 503.542 468.095 503.759 467.852C503.975 467.605 504.073 467.282 504.051 466.883H505.254C505.262 467.334 505.165 467.735 504.961 468.086C504.762 468.437 504.48 468.714 504.116 468.918C503.756 469.117 503.34 469.217 502.868 469.217ZM435.059 492.757L432.927 489.338L434.91 486.322H436.437L434.468 489.273L436.769 492.757H435.059ZM430.782 492.757V486.322H432.212V488.805H434.149V489.988H432.212V492.757H430.782ZM440.836 492.952C440.164 492.952 439.564 492.798 439.035 492.49C438.511 492.178 438.099 491.765 437.8 491.249C437.501 490.729 437.352 490.159 437.352 489.539C437.352 489.08 437.436 488.647 437.605 488.239C437.779 487.828 438.021 487.464 438.333 487.147C438.65 486.831 439.02 486.582 439.445 486.4C439.869 486.218 440.335 486.127 440.842 486.127C441.514 486.127 442.112 486.283 442.636 486.595C443.165 486.903 443.579 487.316 443.878 487.836C444.177 488.352 444.326 488.92 444.326 489.539C444.326 489.994 444.24 490.428 444.066 490.839C443.897 491.251 443.657 491.615 443.345 491.931C443.033 492.248 442.664 492.497 442.24 492.679C441.815 492.861 441.347 492.952 440.836 492.952ZM440.836 491.684C441.234 491.684 441.588 491.598 441.895 491.424C442.207 491.247 442.452 490.998 442.63 490.677C442.807 490.356 442.896 489.977 442.896 489.539C442.896 489.102 442.807 488.723 442.63 488.402C442.452 488.077 442.207 487.828 441.895 487.654C441.588 487.481 441.234 487.394 440.836 487.394C440.437 487.394 440.082 487.481 439.77 487.654C439.462 487.828 439.219 488.077 439.042 488.402C438.868 488.723 438.782 489.102 438.782 489.539C438.782 489.977 438.871 490.356 439.048 490.677C439.226 490.998 439.469 491.247 439.776 491.424C440.088 491.598 440.441 491.684 440.836 491.684ZM445.763 492.757V486.322H447.004H447.043L449.929 490.495L449.312 490.508L452.055 486.322H453.322V492.757H452.022L452.042 487.999L452.308 488.116L450.007 491.476H449.084L446.679 488.109L446.946 487.992L446.965 492.757H445.763ZM457.097 492.952C456.651 492.952 456.258 492.87 455.92 492.705C455.582 492.536 455.318 492.3 455.127 491.996C454.941 491.689 454.848 491.327 454.848 490.911C454.848 490.56 454.937 490.244 455.114 489.962C455.292 489.676 455.567 489.44 455.94 489.253C456.317 489.067 456.8 488.944 457.389 488.883C457.979 488.818 458.687 488.827 459.515 488.909L459.541 489.897C458.952 489.815 458.445 489.78 458.02 489.793C457.595 489.806 457.246 489.86 456.973 489.955C456.705 490.046 456.505 490.17 456.375 490.326C456.25 490.478 456.187 490.653 456.187 490.852C456.187 491.164 456.297 491.405 456.518 491.574C456.744 491.743 457.051 491.827 457.441 491.827C457.775 491.827 458.074 491.767 458.338 491.645C458.603 491.524 458.811 491.353 458.962 491.132C459.118 490.911 459.196 490.651 459.196 490.352V488.642C459.196 488.356 459.136 488.109 459.014 487.901C458.893 487.689 458.709 487.524 458.462 487.407C458.215 487.29 457.907 487.232 457.539 487.232C457.201 487.232 456.867 487.284 456.538 487.388C456.209 487.488 455.894 487.646 455.595 487.862L455.192 486.809C455.595 486.536 456.016 486.344 456.453 486.231C456.891 486.118 457.311 486.062 457.714 486.062C458.312 486.062 458.824 486.157 459.248 486.348C459.677 486.534 460.007 486.818 460.236 487.199C460.466 487.576 460.581 488.053 460.581 488.629V492.757H459.294V491.996C459.077 492.304 458.776 492.54 458.39 492.705C458.005 492.87 457.574 492.952 457.097 492.952ZM462.482 492.757V486.322H463.912V488.805H467.136V486.322H468.566V492.757H467.136V489.988H463.912V492.757H462.482ZM475.23 492.757V487.505H472.63V488.356C472.63 488.941 472.595 489.47 472.526 489.942C472.457 490.415 472.333 490.831 472.156 491.19C471.978 491.546 471.729 491.84 471.408 492.074C471.092 492.308 470.687 492.48 470.193 492.588L469.842 491.619C470.253 491.52 470.563 491.333 470.771 491.06C470.979 490.787 471.118 490.428 471.187 489.981C471.261 489.531 471.298 488.989 471.298 488.356V486.322H476.66V492.757H475.23ZM469.842 494.707V491.619L470.726 491.71L470.947 491.574H477.954V494.707H476.647V492.757H471.148V494.707H469.842ZM482.051 492.952C481.358 492.952 480.749 492.811 480.225 492.529C479.7 492.243 479.291 491.845 478.996 491.333C478.706 490.822 478.561 490.228 478.561 489.552C478.561 489.058 478.645 488.603 478.814 488.187C478.983 487.767 479.222 487.403 479.529 487.095C479.837 486.788 480.197 486.549 480.608 486.38C481.024 486.211 481.477 486.127 481.967 486.127C482.5 486.127 482.974 486.222 483.39 486.413C483.806 486.599 484.151 486.861 484.424 487.199C484.701 487.537 484.896 487.934 485.009 488.389C485.126 488.84 485.145 489.329 485.067 489.858H479.932C479.924 490.244 480.008 490.582 480.186 490.872C480.363 491.158 480.617 491.381 480.946 491.541C481.28 491.702 481.672 491.782 482.123 491.782C482.487 491.782 482.838 491.728 483.176 491.619C483.518 491.507 483.828 491.342 484.105 491.125L484.658 492.152C484.45 492.321 484.198 492.467 483.904 492.588C483.609 492.705 483.301 492.794 482.981 492.854C482.66 492.919 482.35 492.952 482.051 492.952ZM480.017 488.805H483.663C483.65 488.32 483.494 487.938 483.195 487.661C482.901 487.384 482.48 487.245 481.934 487.245C481.406 487.245 480.966 487.384 480.615 487.661C480.268 487.938 480.069 488.32 480.017 488.805Z" fill="white"/>
<path fill-rule="evenodd" clip-rule="evenodd" d="M130.671 224.728L147.857 209.754L134.12 229.636C134.465 230.675 134.652 231.785 134.652 232.939V240.055C134.652 245.83 129.971 250.512 124.195 250.512H10.457C4.68176 250.512 0 245.83 0 240.055V232.939C0 227.164 4.68176 222.482 10.457 222.482H124.195C126.641 222.482 128.89 223.322 130.671 224.728Z" fill="#79F585"/>
<path d="M12.9273 241.134L12.3553 239.795C12.858 239.674 13.3108 239.494 13.7138 239.256C14.1211 239.017 14.4916 238.701 14.8253 238.307C15.159 237.912 15.4666 237.425 15.7483 236.844L18.1728 231.878H19.8563L17.1068 237.299C16.8035 237.897 16.498 238.417 16.1903 238.859C15.8826 239.297 15.562 239.667 15.2283 239.971C14.8946 240.274 14.5371 240.519 14.1558 240.705C13.7788 240.892 13.3693 241.035 12.9273 241.134ZM15.5468 238.118L12.0823 231.878H13.8568L16.5218 236.831L15.5468 238.118ZM24.2737 240.978V238.463C23.9704 238.541 23.6822 238.599 23.4092 238.638C23.1406 238.677 22.8567 238.697 22.5577 238.697C21.9814 238.697 21.4961 238.608 21.1017 238.43C20.7074 238.253 20.4106 237.984 20.2112 237.624C20.0119 237.265 19.9122 236.812 19.9122 236.266V234.543H21.3422V236.064C21.3422 236.524 21.4527 236.872 21.6737 237.111C21.8947 237.349 22.2717 237.468 22.8047 237.468C23.1124 237.468 23.3811 237.455 23.6107 237.429C23.8447 237.399 24.0657 237.362 24.2737 237.319V234.543H25.7037V240.978H24.2737ZM29.483 241.173C29.0367 241.173 28.6445 241.091 28.3065 240.926C27.9685 240.757 27.7042 240.521 27.5135 240.218C27.3272 239.91 27.234 239.548 27.234 239.132C27.234 238.781 27.3228 238.465 27.5005 238.183C27.6782 237.897 27.9533 237.661 28.326 237.475C28.703 237.288 29.1862 237.165 29.7755 237.104C30.3648 237.039 31.0733 237.048 31.901 237.13L31.927 238.118C31.3377 238.036 30.8307 238.001 30.406 238.014C29.9813 238.027 29.6325 238.081 29.3595 238.177C29.0908 238.268 28.8915 238.391 28.7615 238.547C28.6358 238.699 28.573 238.874 28.573 239.074C28.573 239.386 28.6835 239.626 28.9045 239.795C29.1298 239.964 29.4375 240.049 29.8275 240.049C30.1612 240.049 30.4602 239.988 30.7245 239.867C30.9888 239.745 31.1968 239.574 31.3485 239.353C31.5045 239.132 31.5825 238.872 31.5825 238.573V236.864C31.5825 236.578 31.5218 236.331 31.4005 236.123C31.2792 235.91 31.095 235.746 30.848 235.629C30.601 235.512 30.2933 235.453 29.925 235.453C29.587 235.453 29.2533 235.505 28.924 235.609C28.5947 235.709 28.2805 235.867 27.9815 236.084L27.5785 235.031C27.9815 234.758 28.4018 234.565 28.8395 234.452C29.2772 234.34 29.6975 234.283 30.1005 234.283C30.6985 234.283 31.2098 234.379 31.6345 234.569C32.0635 234.756 32.3928 235.039 32.6225 235.421C32.8522 235.798 32.967 236.274 32.967 236.851V240.978H31.68V240.218C31.4633 240.525 31.1622 240.762 30.7765 240.926C30.3908 241.091 29.9597 241.173 29.483 241.173ZM37.8193 241.173C37.1433 241.173 36.541 241.026 36.0123 240.731C35.4837 240.432 35.0677 240.027 34.7643 239.516C34.4653 239 34.3158 238.415 34.3158 237.761C34.3158 237.267 34.4047 236.814 34.5823 236.402C34.76 235.986 35.0113 235.624 35.3363 235.317C35.6613 235.009 36.0427 234.771 36.4803 234.602C36.9223 234.433 37.4012 234.348 37.9168 234.348C38.3502 234.348 38.751 234.407 39.1193 234.524C39.492 234.636 39.8343 234.812 40.1463 235.05L39.4573 236.142C39.258 235.965 39.0283 235.832 38.7683 235.746C38.5127 235.659 38.2397 235.616 37.9493 235.616C37.4987 235.616 37.1108 235.7 36.7858 235.869C36.4608 236.038 36.2073 236.283 36.0253 236.604C35.8477 236.92 35.7588 237.304 35.7588 237.754C35.7588 238.426 35.9538 238.952 36.3438 239.334C36.7382 239.715 37.2733 239.906 37.9493 239.906C38.27 239.906 38.5733 239.847 38.8593 239.73C39.1453 239.609 39.3837 239.451 39.5743 239.256L40.2568 240.341C39.9145 240.601 39.5332 240.805 39.1128 240.952C38.6925 241.1 38.2613 241.173 37.8193 241.173ZM43.008 240.978V235.726H40.8955V234.543H46.557V235.726H44.438V240.978H43.008ZM47.8683 240.978V234.543H49.2983V237.026H52.5223V234.543H53.9523V240.978H52.5223V238.209H49.2983V240.978H47.8683ZM55.9426 240.978V234.543H57.3271V238.885L60.8176 234.543H62.0656V240.978H60.6876V236.584L57.1646 240.978H55.9426ZM68.3319 240.978L66.1999 237.559L68.1824 234.543H69.7099L67.7404 237.494L70.0414 240.978H68.3319ZM64.0549 240.978V234.543H65.4849V237.026H67.4219V238.209H65.4849V240.978H64.0549ZM73.0914 241.173C72.6451 241.173 72.2529 241.091 71.9149 240.926C71.5769 240.757 71.3126 240.521 71.1219 240.218C70.9356 239.91 70.8424 239.548 70.8424 239.132C70.8424 238.781 70.9312 238.465 71.1089 238.183C71.2866 237.897 71.5617 237.661 71.9344 237.475C72.3114 237.288 72.7946 237.165 73.3839 237.104C73.9732 237.039 74.6817 237.048 75.5094 237.13L75.5354 238.118C74.9461 238.036 74.4391 238.001 74.0144 238.014C73.5897 238.027 73.2409 238.081 72.9679 238.177C72.6992 238.268 72.4999 238.391 72.3699 238.547C72.2442 238.699 72.1814 238.874 72.1814 239.074C72.1814 239.386 72.2919 239.626 72.5129 239.795C72.7382 239.964 73.0459 240.049 73.4359 240.049C73.7696 240.049 74.0686 239.988 74.3329 239.867C74.5972 239.745 74.8052 239.574 74.9569 239.353C75.1129 239.132 75.1909 238.872 75.1909 238.573V236.864C75.1909 236.578 75.1302 236.331 75.0089 236.123C74.8876 235.91 74.7034 235.746 74.4564 235.629C74.2094 235.512 73.9017 235.453 73.5334 235.453C73.1954 235.453 72.8617 235.505 72.5324 235.609C72.2031 235.709 71.8889 235.867 71.5899 236.084L71.1869 235.031C71.5899 234.758 72.0102 234.565 72.4479 234.452C72.8856 234.34 73.3059 234.283 73.7089 234.283C74.3069 234.283 74.8182 234.379 75.2429 234.569C75.6719 234.756 76.0012 235.039 76.2309 235.421C76.4606 235.798 76.5754 236.274 76.5754 236.851V240.978H75.2884V240.218C75.0717 240.525 74.7706 240.762 74.3849 240.926C73.9992 241.091 73.5681 241.173 73.0914 241.173ZM78.4767 240.978V234.543H79.7182H79.7572L82.6432 238.716L82.0257 238.729L84.7687 234.543H86.0362V240.978H84.7362L84.7557 236.22L85.0222 236.337L82.7212 239.698H81.7982L79.3932 236.331L79.6597 236.214L79.6792 240.978H78.4767ZM92.8611 242.473C92.3238 241.568 91.9208 240.603 91.6521 239.581C91.3835 238.558 91.2491 237.525 91.2491 236.48C91.2491 235.783 91.3076 235.091 91.4246 234.407C91.546 233.718 91.7258 233.046 91.9641 232.392C92.2025 231.737 92.5015 231.111 92.8611 230.513L93.9531 230.955C93.7148 231.332 93.5046 231.74 93.3226 232.177C93.145 232.611 92.9955 233.061 92.8741 233.529C92.7528 233.997 92.6618 234.478 92.6011 234.972C92.5448 235.462 92.5166 235.956 92.5166 236.454C92.5166 237.451 92.6358 238.435 92.8741 239.405C93.1168 240.372 93.4765 241.247 93.9531 242.031L92.8611 242.473ZM95.7043 240.978V234.543H98.7723C99.5003 234.543 100.083 234.682 100.521 234.959C100.958 235.237 101.177 235.653 101.177 236.207C101.177 236.467 101.114 236.699 100.989 236.903C100.863 237.102 100.69 237.269 100.469 237.403C100.248 237.538 99.9899 237.635 99.6953 237.696L99.6693 237.377C100.237 237.455 100.677 237.644 100.989 237.943C101.301 238.242 101.457 238.621 101.457 239.08C101.457 239.47 101.355 239.808 101.151 240.094C100.948 240.376 100.655 240.595 100.274 240.751C99.8924 240.902 99.4353 240.978 98.9023 240.978H95.7043ZM97.0888 239.919H98.7073C99.1363 239.919 99.4656 239.847 99.6953 239.704C99.9293 239.561 100.046 239.347 100.046 239.061C100.046 238.779 99.9314 238.569 99.7018 238.43C99.4721 238.287 99.1406 238.216 98.7073 238.216H96.9003V237.195H98.5578C98.9608 237.195 99.2728 237.135 99.4938 237.013C99.7148 236.888 99.8253 236.684 99.8253 236.402C99.8253 236.121 99.7148 235.917 99.4938 235.791C99.2728 235.661 98.9608 235.596 98.5578 235.596H97.0888V239.919ZM104.855 241.173C104.409 241.173 104.017 241.091 103.679 240.926C103.341 240.757 103.076 240.521 102.886 240.218C102.699 239.91 102.606 239.548 102.606 239.132C102.606 238.781 102.695 238.465 102.873 238.183C103.05 237.897 103.325 237.661 103.698 237.475C104.075 237.288 104.558 237.165 105.148 237.104C105.737 237.039 106.445 237.048 107.273 237.13L107.299 238.118C106.71 238.036 106.203 238.001 105.778 238.014C105.353 238.027 105.005 238.081 104.732 238.177C104.463 238.268 104.264 238.391 104.134 238.547C104.008 238.699 103.945 238.874 103.945 239.074C103.945 239.386 104.056 239.626 104.277 239.795C104.502 239.964 104.81 240.049 105.2 240.049C105.533 240.049 105.832 239.988 106.097 239.867C106.361 239.745 106.569 239.574 106.721 239.353C106.877 239.132 106.955 238.872 106.955 238.573V236.864C106.955 236.578 106.894 236.331 106.773 236.123C106.651 235.91 106.467 235.746 106.22 235.629C105.973 235.512 105.665 235.453 105.297 235.453C104.959 235.453 104.625 235.505 104.296 235.609C103.967 235.709 103.653 235.867 103.354 236.084L102.951 235.031C103.354 234.758 103.774 234.565 104.212 234.452C104.649 234.34 105.07 234.283 105.473 234.283C106.071 234.283 106.582 234.379 107.007 234.569C107.436 234.756 107.765 235.039 107.995 235.421C108.224 235.798 108.339 236.274 108.339 236.851V240.978H107.052V240.218C106.835 240.525 106.534 240.762 106.149 240.926C105.763 241.091 105.332 241.173 104.855 241.173ZM110.24 240.978V234.543H111.482H111.521L114.407 238.716L113.789 238.729L116.532 234.543H117.8V240.978H116.5L116.519 236.22L116.786 236.337L114.485 239.698H113.562L111.157 236.331L111.423 236.214L111.443 240.978H110.24ZM120.639 242.473L119.547 242.031C119.785 241.65 119.993 241.243 120.171 240.809C120.353 240.376 120.504 239.925 120.626 239.457C120.747 238.989 120.836 238.508 120.892 238.014C120.953 237.52 120.983 237.026 120.983 236.532C120.983 235.531 120.862 234.548 120.619 233.581C120.381 232.615 120.023 231.74 119.547 230.955L120.639 230.513C121.18 231.415 121.583 232.377 121.848 233.399C122.116 234.422 122.251 235.458 122.251 236.506C122.251 237.204 122.19 237.897 122.069 238.586C121.952 239.271 121.774 239.94 121.536 240.595C121.297 241.249 120.998 241.875 120.639 242.473Z" fill="#1C195B"/>
<path fill-rule="evenodd" clip-rule="evenodd" d="M142.266 332.954L159.4 318.026L145.682 337.88C146.015 338.901 146.195 339.991 146.195 341.124V365.827C146.195 371.602 141.513 376.284 135.738 376.284H21.9998C16.2245 376.284 11.5428 371.602 11.5428 365.827V341.124C11.5428 335.348 16.2245 330.667 21.9998 330.667H135.738C138.207 330.667 140.477 331.522 142.266 332.954Z" fill="#140D83"/>
<path d="M24.266 349.25V340.15H29.986V341.437H25.722V343.907H27.3795C28.3631 343.907 29.1518 344.135 29.7455 344.59C30.3391 345.04 30.636 345.703 30.636 346.579C30.636 347.151 30.506 347.636 30.246 348.035C29.9903 348.429 29.6176 348.73 29.128 348.938C28.6426 349.146 28.0576 349.25 27.373 349.25H24.266ZM25.722 348.106H27.295C27.8843 348.106 28.3371 347.976 28.6535 347.716C28.9741 347.456 29.1345 347.084 29.1345 346.598C29.1345 346.126 28.9763 345.751 28.66 345.474C28.3436 345.196 27.9081 345.058 27.3535 345.058H25.722V348.106ZM35.2547 349.445C34.5614 349.445 33.9526 349.304 33.4282 349.023C32.9039 348.737 32.4944 348.338 32.1997 347.827C31.9094 347.315 31.7642 346.722 31.7642 346.046C31.7642 345.552 31.8487 345.097 32.0177 344.681C32.1867 344.26 32.4251 343.896 32.7327 343.589C33.0404 343.281 33.4001 343.043 33.8117 342.874C34.2277 342.705 34.6806 342.62 35.1702 342.62C35.7032 342.62 36.1777 342.716 36.5937 342.906C37.0097 343.093 37.3542 343.355 37.6272 343.693C37.9046 344.031 38.0996 344.427 38.2122 344.882C38.3292 345.333 38.3487 345.823 38.2707 346.351H33.1357C33.1271 346.737 33.2116 347.075 33.3892 347.365C33.5669 347.651 33.8204 347.874 34.1497 348.035C34.4834 348.195 34.8756 348.275 35.3262 348.275C35.6902 348.275 36.0412 348.221 36.3792 348.113C36.7216 348 37.0314 347.835 37.3087 347.619L37.8612 348.646C37.6532 348.815 37.4019 348.96 37.1072 349.081C36.8126 349.198 36.5049 349.287 36.1842 349.348C35.8636 349.413 35.5537 349.445 35.2547 349.445ZM33.2202 345.298H36.8667C36.8537 344.813 36.6977 344.432 36.3987 344.154C36.1041 343.877 35.6837 343.738 35.1377 343.738C34.6091 343.738 34.1692 343.877 33.8182 344.154C33.4716 344.432 33.2722 344.813 33.2202 345.298ZM41.9272 349.406C41.5675 349.406 41.2209 349.378 40.8872 349.322C40.5535 349.27 40.2394 349.187 39.9447 349.075C39.65 348.958 39.3835 348.804 39.1452 348.613L39.7692 347.645C40.0422 347.874 40.365 348.041 40.7377 348.145C41.1104 348.245 41.4895 348.295 41.8752 348.295C42.3995 348.295 42.8134 348.219 43.1167 348.067C43.42 347.911 43.5717 347.656 43.5717 347.3C43.5717 346.988 43.4114 346.765 43.0907 346.631C42.7744 346.496 42.3129 346.429 41.7062 346.429H40.5232V345.35H41.6672C42.2045 345.35 42.6184 345.29 42.9087 345.168C43.199 345.043 43.3442 344.83 43.3442 344.531C43.3442 344.354 43.2814 344.206 43.1557 344.089C43.0344 343.972 42.861 343.883 42.6357 343.823C42.4147 343.762 42.1547 343.732 41.8557 343.732C41.4874 343.732 41.132 343.786 40.7897 343.894C40.4474 344.003 40.1484 344.169 39.8927 344.395L39.3597 343.439C39.689 343.166 40.0877 342.958 40.5557 342.815C41.0237 342.668 41.496 342.594 41.9727 342.594C42.5274 342.594 43.004 342.664 43.4027 342.802C43.8014 342.941 44.109 343.14 44.3257 343.4C44.5424 343.66 44.6507 343.974 44.6507 344.343C44.6507 344.672 44.5445 344.958 44.3322 345.201C44.1242 345.443 43.8209 345.619 43.4222 345.727C43.9075 345.836 44.2759 346.026 44.5272 346.299C44.7829 346.572 44.9107 346.915 44.9107 347.326C44.9107 347.76 44.7872 348.132 44.5402 348.444C44.2975 348.752 43.9509 348.99 43.5002 349.159C43.0539 349.324 42.5295 349.406 41.9272 349.406ZM49.4035 349.445C48.7318 349.445 48.1317 349.291 47.603 348.984C47.0787 348.672 46.667 348.258 46.368 347.742C46.069 347.222 45.9195 346.652 45.9195 346.033C45.9195 345.573 46.004 345.14 46.173 344.733C46.3463 344.321 46.589 343.957 46.901 343.641C47.2173 343.324 47.5878 343.075 48.0125 342.893C48.4372 342.711 48.903 342.62 49.41 342.62C50.0817 342.62 50.6797 342.776 51.204 343.088C51.7327 343.396 52.1465 343.81 52.4455 344.33C52.7445 344.845 52.894 345.413 52.894 346.033C52.894 346.488 52.8073 346.921 52.634 347.333C52.465 347.744 52.2245 348.108 51.9125 348.425C51.6005 348.741 51.2322 348.99 50.8075 349.172C50.3828 349.354 49.9148 349.445 49.4035 349.445ZM49.4035 348.178C49.8022 348.178 50.1553 348.091 50.463 347.918C50.775 347.74 51.0198 347.491 51.1975 347.17C51.3752 346.85 51.464 346.47 51.464 346.033C51.464 345.595 51.3752 345.216 51.1975 344.895C51.0198 344.57 50.775 344.321 50.463 344.148C50.1553 343.974 49.8022 343.888 49.4035 343.888C49.0048 343.888 48.6495 343.974 48.3375 344.148C48.0298 344.321 47.7872 344.57 47.6095 344.895C47.4362 345.216 47.3495 345.595 47.3495 346.033C47.3495 346.47 47.4383 346.85 47.616 347.17C47.7937 347.491 48.0363 347.74 48.344 347.918C48.656 348.091 49.0092 348.178 49.4035 348.178ZM54.3304 349.25V342.815H60.4079V349.25H58.9779V343.998H55.7604V349.25H54.3304ZM64.1794 349.445C63.7331 349.445 63.3409 349.363 63.0029 349.198C62.6649 349.029 62.4006 348.793 62.2099 348.49C62.0236 348.182 61.9304 347.82 61.9304 347.404C61.9304 347.053 62.0193 346.737 62.1969 346.455C62.3746 346.169 62.6498 345.933 63.0224 345.747C63.3994 345.56 63.8826 345.437 64.4719 345.376C65.0613 345.311 65.7698 345.32 66.5974 345.402L66.6234 346.39C66.0341 346.308 65.5271 346.273 65.1024 346.286C64.6778 346.299 64.3289 346.353 64.0559 346.449C63.7873 346.54 63.5879 346.663 63.4579 346.819C63.3323 346.971 63.2694 347.146 63.2694 347.346C63.2694 347.658 63.3799 347.898 63.6009 348.067C63.8263 348.236 64.1339 348.321 64.5239 348.321C64.8576 348.321 65.1566 348.26 65.4209 348.139C65.6853 348.017 65.8933 347.846 66.0449 347.625C66.2009 347.404 66.2789 347.144 66.2789 346.845V345.136C66.2789 344.85 66.2183 344.603 66.0969 344.395C65.9756 344.182 65.7914 344.018 65.5444 343.901C65.2974 343.784 64.9898 343.725 64.6214 343.725C64.2834 343.725 63.9498 343.777 63.6204 343.881C63.2911 343.981 62.9769 344.139 62.6779 344.356L62.2749 343.303C62.6779 343.03 63.0983 342.837 63.5359 342.724C63.9736 342.612 64.3939 342.555 64.7969 342.555C65.3949 342.555 65.9063 342.651 66.3309 342.841C66.7599 343.028 67.0893 343.311 67.3189 343.693C67.5486 344.07 67.6634 344.546 67.6634 345.123V349.25H66.3764V348.49C66.1598 348.797 65.8586 349.034 65.4729 349.198C65.0873 349.363 64.6561 349.445 64.1794 349.445ZM72.5158 349.445C71.8398 349.445 71.2374 349.298 70.7088 349.003C70.1801 348.704 69.7641 348.299 69.4608 347.788C69.1618 347.272 69.0123 346.687 69.0123 346.033C69.0123 345.539 69.1011 345.086 69.2788 344.674C69.4564 344.258 69.7078 343.896 70.0328 343.589C70.3578 343.281 70.7391 343.043 71.1768 342.874C71.6188 342.705 72.0976 342.62 72.6133 342.62C73.0466 342.62 73.4474 342.679 73.8158 342.796C74.1884 342.908 74.5308 343.084 74.8428 343.322L74.1538 344.414C73.9544 344.237 73.7248 344.104 73.4648 344.018C73.2091 343.931 72.9361 343.888 72.6458 343.888C72.1951 343.888 71.8073 343.972 71.4823 344.141C71.1573 344.31 70.9038 344.555 70.7218 344.876C70.5441 345.192 70.4553 345.576 70.4553 346.026C70.4553 346.698 70.6503 347.224 71.0403 347.606C71.4346 347.987 71.9698 348.178 72.6458 348.178C72.9664 348.178 73.2698 348.119 73.5558 348.002C73.8418 347.881 74.0801 347.723 74.2708 347.528L74.9533 348.613C74.6109 348.873 74.2296 349.077 73.8093 349.224C73.3889 349.372 72.9578 349.445 72.5158 349.445ZM76.2679 349.25V342.815H77.6979V345.298H80.9219V342.815H82.3519V349.25H80.9219V346.481H77.6979V349.25H76.2679ZM87.2736 349.445C86.602 349.445 86.0018 349.291 85.4731 348.984C84.9488 348.672 84.5371 348.258 84.2381 347.742C83.9391 347.222 83.7896 346.652 83.7896 346.033C83.7896 345.573 83.8741 345.14 84.0431 344.733C84.2165 344.321 84.4591 343.957 84.7711 343.641C85.0875 343.324 85.458 343.075 85.8826 342.893C86.3073 342.711 86.7731 342.62 87.2801 342.62C87.9518 342.62 88.5498 342.776 89.0741 343.088C89.6028 343.396 90.0166 343.81 90.3156 344.33C90.6146 344.845 90.7641 345.413 90.7641 346.033C90.7641 346.488 90.6775 346.921 90.5041 347.333C90.3351 347.744 90.0946 348.108 89.7826 348.425C89.4706 348.741 89.1023 348.99 88.6776 349.172C88.253 349.354 87.785 349.445 87.2736 349.445ZM87.2736 348.178C87.6723 348.178 88.0255 348.091 88.3331 347.918C88.6451 347.74 88.89 347.491 89.0676 347.17C89.2453 346.85 89.3341 346.47 89.3341 346.033C89.3341 345.595 89.2453 345.216 89.0676 344.895C88.89 344.57 88.6451 344.321 88.3331 344.148C88.0255 343.974 87.6723 343.888 87.2736 343.888C86.875 343.888 86.5196 343.974 86.2076 344.148C85.9 344.321 85.6573 344.57 85.4796 344.895C85.3063 345.216 85.2196 345.595 85.2196 346.033C85.2196 346.47 85.3085 346.85 85.4861 347.17C85.6638 347.491 85.9065 347.74 86.2141 347.918C86.5261 348.091 86.8793 348.178 87.2736 348.178ZM95.215 349.445C94.539 349.445 93.9367 349.298 93.408 349.003C92.8793 348.704 92.4633 348.299 92.16 347.788C91.861 347.272 91.7115 346.687 91.7115 346.033C91.7115 345.539 91.8003 345.086 91.978 344.674C92.1557 344.258 92.407 343.896 92.732 343.589C93.057 343.281 93.4383 343.043 93.876 342.874C94.318 342.705 94.7968 342.62 95.3125 342.62C95.7458 342.62 96.1467 342.679 96.515 342.796C96.8877 342.908 97.23 343.084 97.542 343.322L96.853 344.414C96.6537 344.237 96.424 344.104 96.164 344.018C95.9083 343.931 95.6353 343.888 95.345 343.888C94.8943 343.888 94.5065 343.972 94.1815 344.141C93.8565 344.31 93.603 344.555 93.421 344.876C93.2433 345.192 93.1545 345.576 93.1545 346.026C93.1545 346.698 93.3495 347.224 93.7395 347.606C94.1338 347.987 94.669 348.178 95.345 348.178C95.6657 348.178 95.969 348.119 96.255 348.002C96.541 347.881 96.7793 347.723 96.97 347.528L97.6525 348.613C97.3102 348.873 96.9288 349.077 96.5085 349.224C96.0882 349.372 95.657 349.445 95.215 349.445ZM100.404 349.25V343.998H98.2911V342.815H103.953V343.998H101.834V349.25H100.404ZM105.264 349.25V342.815H106.694V348.165H107.923C108.391 348.165 108.744 348.074 108.982 347.892C109.22 347.71 109.34 347.439 109.34 347.079C109.34 346.724 109.229 346.451 109.008 346.26C108.787 346.07 108.462 345.974 108.033 345.974H106.499V344.902H108.144C108.976 344.902 109.63 345.088 110.107 345.461C110.583 345.833 110.822 346.373 110.822 347.079C110.822 347.534 110.707 347.924 110.477 348.249C110.247 348.57 109.925 348.817 109.509 348.99C109.097 349.164 108.614 349.25 108.059 349.25H105.264ZM112.531 350.745L111.335 350.277L116.067 338.785L117.256 339.253L112.531 350.745ZM24.0775 365.25V358.815H25.462V363.157L28.9525 358.815H30.2005V365.25H28.8225V360.856L25.2995 365.25H24.0775ZM32.1898 365.25V358.815H33.6198V361.298H36.8438V358.815H38.2738V365.25H36.8438V362.481H33.6198V365.25H32.1898ZM43.501 367.98V355.89H44.931V367.98H43.501ZM44.203 365.419C43.3017 365.419 42.513 365.291 41.837 365.036C41.1653 364.776 40.6432 364.394 40.2705 363.892C39.8978 363.385 39.7115 362.765 39.7115 362.033C39.7115 361.296 39.8978 360.676 40.2705 360.174C40.6475 359.671 41.1762 359.292 41.8565 359.036C42.5368 358.776 43.3298 358.646 44.2355 358.646C45.1498 358.646 45.9428 358.774 46.6145 359.03C47.2905 359.285 47.8148 359.665 48.1875 360.167C48.5602 360.67 48.7465 361.292 48.7465 362.033C48.7465 362.583 48.6382 363.071 48.4215 363.495C48.2048 363.916 47.895 364.269 47.492 364.555C47.089 364.841 46.6102 365.057 46.0555 365.205C45.5008 365.348 44.8833 365.419 44.203 365.419ZM44.229 364.236C44.892 364.236 45.451 364.154 45.906 363.989C46.3653 363.825 46.7142 363.58 46.9525 363.255C47.1908 362.93 47.31 362.522 47.31 362.033C47.31 361.543 47.1865 361.136 46.9395 360.811C46.6968 360.481 46.3437 360.237 45.88 360.076C45.4207 359.912 44.8638 359.829 44.2095 359.829C43.5595 359.829 43.0048 359.912 42.5455 360.076C42.0862 360.237 41.7352 360.481 41.4925 360.811C41.2498 361.136 41.1285 361.543 41.1285 362.033C41.1285 362.522 41.2498 362.93 41.4925 363.255C41.7395 363.58 42.0927 363.825 42.552 363.989C43.0157 364.154 43.5747 364.236 44.229 364.236ZM50.179 367.98V358.815H51.466V359.719C51.7217 359.394 52.0489 359.129 52.4475 358.926C52.8462 358.722 53.338 358.62 53.923 358.62C54.5514 358.62 55.1082 358.77 55.5935 359.069C56.0832 359.363 56.4645 359.769 56.7375 360.284C57.0105 360.796 57.147 361.378 57.147 362.033C57.147 362.505 57.069 362.949 56.913 363.365C56.757 363.777 56.5339 364.139 56.2435 364.451C55.9575 364.763 55.6152 365.008 55.2165 365.185C54.8222 365.359 54.3845 365.445 53.9035 365.445C53.4009 365.445 52.9589 365.354 52.5775 365.172C52.1962 364.99 51.8712 364.745 51.6025 364.438V367.98H50.179ZM53.663 364.178C54.0617 364.178 54.4149 364.091 54.7225 363.918C55.0345 363.74 55.2772 363.491 55.4505 363.17C55.6282 362.85 55.717 362.47 55.717 362.033C55.717 361.595 55.6282 361.216 55.4505 360.895C55.2729 360.57 55.028 360.321 54.716 360.148C54.4084 359.974 54.0574 359.888 53.663 359.888C53.2644 359.888 52.909 359.974 52.597 360.148C52.2894 360.321 52.0467 360.57 51.869 360.895C51.6914 361.216 51.6025 361.595 51.6025 362.033C51.6025 362.47 51.6914 362.85 51.869 363.17C52.0467 363.491 52.2894 363.74 52.597 363.918C52.909 364.091 53.2644 364.178 53.663 364.178ZM60.3708 365.445C59.9245 365.445 59.5323 365.363 59.1943 365.198C58.8563 365.029 58.592 364.793 58.4013 364.49C58.215 364.182 58.1218 363.82 58.1218 363.404C58.1218 363.053 58.2107 362.737 58.3883 362.455C58.566 362.169 58.8412 361.933 59.2138 361.747C59.5908 361.56 60.074 361.437 60.6633 361.376C61.2527 361.311 61.9612 361.32 62.7888 361.402L62.8148 362.39C62.2255 362.308 61.7185 362.273 61.2938 362.286C60.8692 362.299 60.5203 362.353 60.2473 362.449C59.9787 362.54 59.7793 362.663 59.6493 362.819C59.5237 362.971 59.4608 363.146 59.4608 363.346C59.4608 363.658 59.5713 363.898 59.7923 364.067C60.0177 364.236 60.3253 364.321 60.7153 364.321C61.049 364.321 61.348 364.26 61.6123 364.139C61.8767 364.017 62.0847 363.846 62.2363 363.625C62.3923 363.404 62.4703 363.144 62.4703 362.845V361.136C62.4703 360.85 62.4097 360.603 62.2883 360.395C62.167 360.182 61.9828 360.018 61.7358 359.901C61.4888 359.784 61.1812 359.725 60.8128 359.725C60.4748 359.725 60.1412 359.777 59.8118 359.881C59.4825 359.981 59.1683 360.139 58.8693 360.356L58.4663 359.303C58.8693 359.03 59.2897 358.837 59.7273 358.724C60.165 358.612 60.5853 358.555 60.9883 358.555C61.5863 358.555 62.0977 358.651 62.5223 358.841C62.9513 359.028 63.2807 359.311 63.5103 359.693C63.74 360.07 63.8548 360.546 63.8548 361.123V365.25H62.5678V364.49C62.3512 364.797 62.05 365.034 61.6643 365.198C61.2787 365.363 60.8475 365.445 60.3708 365.445ZM68.7072 365.445C68.0312 365.445 67.4289 365.298 66.9002 365.003C66.3715 364.704 65.9555 364.299 65.6522 363.788C65.3532 363.272 65.2037 362.687 65.2037 362.033C65.2037 361.539 65.2925 361.086 65.4702 360.674C65.6479 360.258 65.8992 359.896 66.2242 359.589C66.5492 359.281 66.9305 359.043 67.3682 358.874C67.8102 358.705 68.289 358.62 68.8047 358.62C69.238 358.62 69.6389 358.679 70.0072 358.796C70.3799 358.908 70.7222 359.084 71.0342 359.322L70.3452 360.414C70.1459 360.237 69.9162 360.104 69.6562 360.018C69.4005 359.931 69.1275 359.888 68.8372 359.888C68.3865 359.888 67.9987 359.972 67.6737 360.141C67.3487 360.31 67.0952 360.555 66.9132 360.876C66.7355 361.192 66.6467 361.576 66.6467 362.026C66.6467 362.698 66.8417 363.224 67.2317 363.606C67.626 363.987 68.1612 364.178 68.8372 364.178C69.1579 364.178 69.4612 364.119 69.7472 364.002C70.0332 363.881 70.2715 363.723 70.4622 363.528L71.1447 364.613C70.8024 364.873 70.421 365.077 70.0007 365.224C69.5804 365.372 69.1492 365.445 68.7072 365.445ZM73.8958 365.25V359.998H71.7833V358.815H77.4448V359.998H75.3258V365.25H73.8958ZM78.7562 367.98V358.815H80.0432V359.719C80.2989 359.394 80.626 359.129 81.0247 358.926C81.4234 358.722 81.9152 358.62 82.5002 358.62C83.1285 358.62 83.6854 358.77 84.1707 359.069C84.6604 359.363 85.0417 359.769 85.3147 360.284C85.5877 360.796 85.7242 361.378 85.7242 362.033C85.7242 362.505 85.6462 362.949 85.4902 363.365C85.3342 363.777 85.111 364.139 84.8207 364.451C84.5347 364.763 84.1924 365.008 83.7937 365.185C83.3994 365.359 82.9617 365.445 82.4807 365.445C81.978 365.445 81.536 365.354 81.1547 365.172C80.7734 364.99 80.4484 364.745 80.1797 364.438V367.98H78.7562ZM82.2402 364.178C82.6389 364.178 82.992 364.091 83.2997 363.918C83.6117 363.74 83.8544 363.491 84.0277 363.17C84.2054 362.85 84.2942 362.47 84.2942 362.033C84.2942 361.595 84.2054 361.216 84.0277 360.895C83.85 360.57 83.6052 360.321 83.2932 360.148C82.9855 359.974 82.6345 359.888 82.2402 359.888C81.8415 359.888 81.4862 359.974 81.1742 360.148C80.8665 360.321 80.6239 360.57 80.4462 360.895C80.2685 361.216 80.1797 361.595 80.1797 362.033C80.1797 362.47 80.2685 362.85 80.4462 363.17C80.6239 363.491 80.8665 363.74 81.1742 363.918C81.4862 364.091 81.8415 364.178 82.2402 364.178ZM87.6495 368.162C87.4155 368.162 87.1858 368.136 86.9605 368.084C86.7352 368.032 86.5142 367.943 86.2975 367.818L86.6225 366.596C86.7568 366.682 86.9042 366.747 87.0645 366.791C87.2248 366.834 87.3678 366.856 87.4935 366.856C87.7968 366.856 88.0352 366.784 88.2085 366.641C88.3818 366.498 88.5183 366.277 88.618 365.978L88.8325 365.354L86.2975 358.815H87.864L89.645 363.807L91.3805 358.815H92.895L90.113 366.18C89.9137 366.695 89.6905 367.096 89.4435 367.382C89.1965 367.673 88.9235 367.874 88.6245 367.987C88.3255 368.104 88.0005 368.162 87.6495 368.162ZM98.293 365.25L96.161 361.831L98.1435 358.815H99.671L97.7015 361.766L100.002 365.25H98.293ZM94.016 365.25V358.815H95.446V361.298H97.383V362.481H95.446V365.25H94.016ZM102.701 365.25V359.998H100.589V358.815H106.25V359.998H104.131V365.25H102.701ZM108.305 368.162C108.071 368.162 107.841 368.136 107.616 368.084C107.39 368.032 107.169 367.943 106.953 367.818L107.278 366.596C107.412 366.682 107.559 366.747 107.72 366.791C107.88 366.834 108.023 366.856 108.149 366.856C108.452 366.856 108.69 366.784 108.864 366.641C109.037 366.498 109.174 366.277 109.273 365.978L109.488 365.354L106.953 358.815H108.519L110.3 363.807L112.036 358.815H113.55L110.768 366.18C110.569 366.695 110.346 367.096 110.099 367.382C109.852 367.673 109.579 367.874 109.28 367.987C108.981 368.104 108.656 368.162 108.305 368.162ZM114.671 367.98V358.815H115.958V359.719C116.214 359.394 116.541 359.129 116.94 358.926C117.338 358.722 117.83 358.62 118.415 358.62C119.044 358.62 119.6 358.77 120.086 359.069C120.575 359.363 120.957 359.769 121.23 360.284C121.503 360.796 121.639 361.378 121.639 362.033C121.639 362.505 121.561 362.949 121.405 363.365C121.249 363.777 121.026 364.139 120.736 364.451C120.45 364.763 120.107 365.008 119.709 365.185C119.314 365.359 118.877 365.445 118.396 365.445C117.893 365.445 117.451 365.354 117.07 365.172C116.688 364.99 116.363 364.745 116.095 364.438V367.98H114.671ZM118.155 364.178C118.554 364.178 118.907 364.091 119.215 363.918C119.527 363.74 119.769 363.491 119.943 363.17C120.12 362.85 120.209 362.47 120.209 362.033C120.209 361.595 120.12 361.216 119.943 360.895C119.765 360.57 119.52 360.321 119.208 360.148C118.901 359.974 118.55 359.888 118.155 359.888C117.757 359.888 117.401 359.974 117.089 360.148C116.782 360.321 116.539 360.57 116.361 360.895C116.184 361.216 116.095 361.595 116.095 362.033C116.095 362.47 116.184 362.85 116.361 363.17C116.539 363.491 116.782 363.74 117.089 363.918C117.401 364.091 117.757 364.178 118.155 364.178ZM124.863 365.445C124.417 365.445 124.025 365.363 123.687 365.198C123.349 365.029 123.084 364.793 122.894 364.49C122.707 364.182 122.614 363.82 122.614 363.404C122.614 363.053 122.703 362.737 122.881 362.455C123.058 362.169 123.333 361.933 123.706 361.747C124.083 361.56 124.566 361.437 125.156 361.376C125.745 361.311 126.453 361.32 127.281 361.402L127.307 362.39C126.718 362.308 126.211 362.273 125.786 362.286C125.361 362.299 125.013 362.353 124.74 362.449C124.471 362.54 124.272 362.663 124.142 362.819C124.016 362.971 123.953 363.146 123.953 363.346C123.953 363.658 124.064 363.898 124.285 364.067C124.51 364.236 124.818 364.321 125.208 364.321C125.541 364.321 125.84 364.26 126.105 364.139C126.369 364.017 126.577 363.846 126.729 363.625C126.885 363.404 126.963 363.144 126.963 362.845V361.136C126.963 360.85 126.902 360.603 126.781 360.395C126.659 360.182 126.475 360.018 126.228 359.901C125.981 359.784 125.673 359.725 125.305 359.725C124.967 359.725 124.633 359.777 124.304 359.881C123.975 359.981 123.661 360.139 123.362 360.356L122.959 359.303C123.362 359.03 123.782 358.837 124.22 358.724C124.657 358.612 125.078 358.555 125.481 358.555C126.079 358.555 126.59 358.651 127.015 358.841C127.444 359.028 127.773 359.311 128.003 359.693C128.232 360.07 128.347 360.546 128.347 361.123V365.25H127.06V364.49C126.843 364.797 126.542 365.034 126.157 365.198C125.771 365.363 125.34 365.445 124.863 365.445Z" fill="white"/>
<path fill-rule="evenodd" clip-rule="evenodd" d="M206.894 419.24L221.504 406.512L211.486 421.01C214.209 422.898 215.992 426.046 215.992 429.61V437.275C215.992 443.05 211.31 447.732 205.535 447.732H78.606C72.8308 447.732 68.149 443.05 68.149 437.275V429.61C68.149 423.834 72.8308 419.153 78.606 419.153H205.535C205.996 419.153 206.449 419.182 206.894 419.24Z" fill="#140D83"/>
<path d="M80.8749 437.736V428.636H82.2854L85.9969 434.675L85.4314 434.681L89.0064 428.636H90.3909V437.736H88.9674L88.9869 430.573L89.2664 430.671L86.1724 435.773H85.1064L81.9539 430.671L82.1879 430.573L82.2074 437.736H80.8749ZM94.3567 437.931C93.9104 437.931 93.5182 437.849 93.1802 437.684C92.8422 437.515 92.5779 437.279 92.3872 436.976C92.2009 436.668 92.1077 436.306 92.1077 435.89C92.1077 435.539 92.1965 435.223 92.3742 434.941C92.5519 434.655 92.827 434.419 93.1997 434.233C93.5767 434.046 94.0599 433.923 94.6492 433.862C95.2385 433.797 95.947 433.806 96.7747 433.888L96.8007 434.876C96.2114 434.794 95.7044 434.759 95.2797 434.772C94.855 434.785 94.5062 434.839 94.2332 434.935C93.9645 435.026 93.7652 435.149 93.6352 435.305C93.5095 435.457 93.4467 435.632 93.4467 435.832C93.4467 436.144 93.5572 436.384 93.7782 436.553C94.0035 436.722 94.3112 436.807 94.7012 436.807C95.0349 436.807 95.3339 436.746 95.5982 436.625C95.8625 436.503 96.0705 436.332 96.2222 436.111C96.3782 435.89 96.4562 435.63 96.4562 435.331V433.622C96.4562 433.336 96.3955 433.089 96.2742 432.881C96.1529 432.668 95.9687 432.504 95.7217 432.387C95.4747 432.27 95.167 432.211 94.7987 432.211C94.4607 432.211 94.127 432.263 93.7977 432.367C93.4684 432.467 93.1542 432.625 92.8552 432.842L92.4522 431.789C92.8552 431.516 93.2755 431.323 93.7132 431.21C94.1509 431.097 94.5712 431.041 94.9742 431.041C95.5722 431.041 96.0835 431.136 96.5082 431.327C96.9372 431.513 97.2665 431.797 97.4962 432.179C97.7259 432.556 97.8407 433.032 97.8407 433.609V437.736H96.5537V436.976C96.337 437.283 96.0359 437.519 95.6502 437.684C95.2645 437.849 94.8334 437.931 94.3567 437.931ZM99.7421 440.466V431.301H101.029V432.205C101.285 431.88 101.612 431.615 102.011 431.412C102.409 431.208 102.901 431.106 103.486 431.106C104.114 431.106 104.671 431.256 105.157 431.555C105.646 431.849 106.028 432.254 106.301 432.77C106.574 433.281 106.71 433.864 106.71 434.519C106.71 434.991 106.632 435.435 106.476 435.851C106.32 436.263 106.097 436.625 105.807 436.937C105.521 437.249 105.178 437.493 104.78 437.671C104.385 437.844 103.948 437.931 103.467 437.931C102.964 437.931 102.522 437.84 102.141 437.658C101.759 437.476 101.434 437.231 101.166 436.924V440.466H99.7421ZM103.226 436.664C103.625 436.664 103.978 436.577 104.286 436.404C104.598 436.226 104.84 435.977 105.014 435.656C105.191 435.335 105.28 434.956 105.28 434.519C105.28 434.081 105.191 433.702 105.014 433.381C104.836 433.056 104.591 432.807 104.279 432.634C103.971 432.46 103.62 432.374 103.226 432.374C102.827 432.374 102.472 432.46 102.16 432.634C101.852 432.807 101.61 433.056 101.432 433.381C101.254 433.702 101.166 434.081 101.166 434.519C101.166 434.956 101.254 435.335 101.432 435.656C101.61 435.977 101.852 436.226 102.16 436.404C102.472 436.577 102.827 436.664 103.226 436.664ZM112.423 437.736L110.291 434.317L112.274 431.301H113.801L111.832 434.252L114.133 437.736H112.423ZM108.146 437.736V431.301H109.576V433.784H111.513V434.967H109.576V437.736H108.146ZM118.206 437.931C117.513 437.931 116.904 437.79 116.38 437.509C115.856 437.223 115.446 436.824 115.151 436.313C114.861 435.801 114.716 435.208 114.716 434.532C114.716 434.038 114.8 433.583 114.969 433.167C115.138 432.746 115.377 432.382 115.684 432.075C115.992 431.767 116.352 431.529 116.763 431.36C117.179 431.191 117.632 431.106 118.122 431.106C118.655 431.106 119.129 431.201 119.545 431.392C119.961 431.578 120.306 431.841 120.579 432.179C120.856 432.517 121.051 432.913 121.164 433.368C121.281 433.819 121.3 434.308 121.222 434.837H116.087C116.079 435.223 116.163 435.561 116.341 435.851C116.519 436.137 116.772 436.36 117.101 436.521C117.435 436.681 117.827 436.761 118.278 436.761C118.642 436.761 118.993 436.707 119.331 436.599C119.673 436.486 119.983 436.321 120.26 436.105L120.813 437.132C120.605 437.301 120.354 437.446 120.059 437.567C119.764 437.684 119.457 437.773 119.136 437.834C118.815 437.899 118.505 437.931 118.206 437.931ZM116.172 433.784H119.818C119.805 433.299 119.649 432.917 119.35 432.64C119.056 432.363 118.635 432.224 118.089 432.224C117.561 432.224 117.121 432.363 116.77 432.64C116.423 432.917 116.224 433.299 116.172 433.784ZM124.144 437.736V432.484H122.032V431.301H127.693V432.484H125.574V437.736H124.144ZM129.005 437.736V431.301H130.389V435.643L133.88 431.301H135.128V437.736H133.75V433.342L130.227 437.736H129.005ZM137.117 437.736V431.301H138.547V433.784H141.771V431.301H143.201V437.736H141.771V434.967H138.547V437.736H137.117ZM145.191 437.736V431.301H149.429V432.484H146.621V437.736H145.191ZM153.938 437.736V431.301H160.016V437.736H158.586V432.484H155.368V437.736H153.938ZM162 440.466V431.301H163.287V432.205C163.543 431.88 163.87 431.615 164.268 431.412C164.667 431.208 165.159 431.106 165.744 431.106C166.372 431.106 166.929 431.256 167.414 431.555C167.904 431.849 168.285 432.254 168.558 432.77C168.831 433.281 168.968 433.864 168.968 434.519C168.968 434.991 168.89 435.435 168.734 435.851C168.578 436.263 168.355 436.625 168.064 436.937C167.778 437.249 167.436 437.493 167.037 437.671C166.643 437.844 166.205 437.931 165.724 437.931C165.222 437.931 164.78 437.84 164.398 437.658C164.017 437.476 163.692 437.231 163.423 436.924V440.466H162ZM165.484 436.664C165.883 436.664 166.236 436.577 166.543 436.404C166.855 436.226 167.098 435.977 167.271 435.656C167.449 435.335 167.538 434.956 167.538 434.519C167.538 434.081 167.449 433.702 167.271 433.381C167.094 433.056 166.849 432.807 166.537 432.634C166.229 432.46 165.878 432.374 165.484 432.374C165.085 432.374 164.73 432.46 164.418 432.634C164.11 432.807 163.868 433.056 163.69 433.381C163.512 433.702 163.423 434.081 163.423 434.519C163.423 434.956 163.512 435.335 163.69 435.656C163.868 435.977 164.11 436.226 164.418 436.404C164.73 436.577 165.085 436.664 165.484 436.664ZM173.399 437.931C172.727 437.931 172.127 437.777 171.599 437.47C171.074 437.158 170.663 436.744 170.364 436.228C170.065 435.708 169.915 435.138 169.915 434.519C169.915 434.059 170 433.626 170.169 433.219C170.342 432.807 170.585 432.443 170.897 432.127C171.213 431.81 171.583 431.561 172.008 431.379C172.433 431.197 172.899 431.106 173.406 431.106C174.077 431.106 174.675 431.262 175.2 431.574C175.728 431.882 176.142 432.296 176.441 432.816C176.74 433.331 176.89 433.899 176.89 434.519C176.89 434.974 176.803 435.407 176.63 435.819C176.461 436.23 176.22 436.594 175.908 436.911C175.596 437.227 175.228 437.476 174.803 437.658C174.378 437.84 173.91 437.931 173.399 437.931ZM173.399 436.664C173.798 436.664 174.151 436.577 174.459 436.404C174.771 436.226 175.015 435.977 175.193 435.656C175.371 435.335 175.46 434.956 175.46 434.519C175.46 434.081 175.371 433.702 175.193 433.381C175.015 433.056 174.771 432.807 174.459 432.634C174.151 432.46 173.798 432.374 173.399 432.374C173 432.374 172.645 432.46 172.333 432.634C172.025 432.807 171.783 433.056 171.605 433.381C171.432 433.702 171.345 434.081 171.345 434.519C171.345 434.956 171.434 435.335 171.612 435.656C171.789 435.977 172.032 436.226 172.34 436.404C172.652 436.577 173.005 436.664 173.399 436.664ZM181.328 437.931C180.634 437.931 180.025 437.79 179.501 437.509C178.977 437.223 178.567 436.824 178.273 436.313C177.982 435.801 177.837 435.208 177.837 434.532C177.837 434.038 177.922 433.583 178.091 433.167C178.26 432.746 178.498 432.382 178.806 432.075C179.113 431.767 179.473 431.529 179.885 431.36C180.301 431.191 180.753 431.106 181.243 431.106C181.776 431.106 182.251 431.201 182.667 431.392C183.083 431.578 183.427 431.841 183.7 432.179C183.977 432.517 184.172 432.913 184.285 433.368C184.402 433.819 184.422 434.308 184.344 434.837H179.209C179.2 435.223 179.284 435.561 179.462 435.851C179.64 436.137 179.893 436.36 180.223 436.521C180.556 436.681 180.948 436.761 181.399 436.761C181.763 436.761 182.114 436.707 182.452 436.599C182.794 436.486 183.104 436.321 183.382 436.105L183.934 437.132C183.726 437.301 183.475 437.446 183.18 437.567C182.885 437.684 182.578 437.773 182.257 437.834C181.936 437.899 181.627 437.931 181.328 437.931ZM179.293 433.784H182.94C182.927 433.299 182.771 432.917 182.472 432.64C182.177 432.363 181.757 432.224 181.211 432.224C180.682 432.224 180.242 432.363 179.891 432.64C179.544 432.917 179.345 433.299 179.293 433.784ZM190.106 437.736L187.974 434.317L189.956 431.301H191.484L189.514 434.252L191.815 437.736H190.106ZM185.829 437.736V431.301H187.259V433.784H189.196V434.967H187.259V437.736H185.829ZM194.514 437.736V432.484H192.402V431.301H198.063V432.484H195.944V437.736H194.514ZM201.162 437.931C200.716 437.931 200.324 437.849 199.986 437.684C199.648 437.515 199.384 437.279 199.193 436.976C199.007 436.668 198.913 436.306 198.913 435.89C198.913 435.539 199.002 435.223 199.18 434.941C199.358 434.655 199.633 434.419 200.005 434.233C200.382 434.046 200.866 433.923 201.455 433.862C202.044 433.797 202.753 433.806 203.58 433.888L203.606 434.876C203.017 434.794 202.51 434.759 202.085 434.772C201.661 434.785 201.312 434.839 201.039 434.935C200.77 435.026 200.571 435.149 200.441 435.305C200.315 435.457 200.252 435.632 200.252 435.832C200.252 436.144 200.363 436.384 200.584 436.553C200.809 436.722 201.117 436.807 201.507 436.807C201.841 436.807 202.14 436.746 202.404 436.625C202.668 436.503 202.876 436.332 203.028 436.111C203.184 435.89 203.262 435.63 203.262 435.331V433.622C203.262 433.336 203.201 433.089 203.08 432.881C202.959 432.668 202.774 432.504 202.527 432.387C202.28 432.27 201.973 432.211 201.604 432.211C201.266 432.211 200.933 432.263 200.603 432.367C200.274 432.467 199.96 432.625 199.661 432.842L199.258 431.789C199.661 431.516 200.081 431.323 200.519 431.21C200.957 431.097 201.377 431.041 201.78 431.041C202.378 431.041 202.889 431.136 203.314 431.327C203.743 431.513 204.072 431.797 204.302 432.179C204.532 432.556 204.646 433.032 204.646 433.609V437.736H203.359V436.976C203.143 437.283 202.842 437.519 202.456 437.684C202.07 437.849 201.639 437.931 201.162 437.931Z" fill="white"/>
<path fill-rule="evenodd" clip-rule="evenodd" d="M319.889 472.479L334.418 459.821L324.663 473.939C327.716 475.765 329.76 479.104 329.76 482.92V490.585C329.76 496.36 325.078 501.042 319.303 501.042H175.886C170.111 501.042 165.429 496.36 165.429 490.585V482.92C165.429 477.145 170.111 472.463 175.886 472.463H319.303C319.5 472.463 319.695 472.468 319.889 472.479Z" fill="#B2FDFF"/>
<path d="M178.155 491.046V481.946H183.875V483.233H179.611V485.703H181.269C182.252 485.703 183.041 485.93 183.635 486.385C184.228 486.836 184.525 487.499 184.525 488.374C184.525 488.946 184.395 489.432 184.135 489.83C183.88 490.225 183.507 490.526 183.017 490.734C182.532 490.942 181.947 491.046 181.262 491.046H178.155ZM179.611 489.902H181.184C181.774 489.902 182.226 489.772 182.543 489.512C182.863 489.252 183.024 488.879 183.024 488.394C183.024 487.922 182.866 487.547 182.549 487.269C182.233 486.992 181.797 486.853 181.243 486.853H179.611V489.902ZM185.972 491.156L185.472 489.869C185.914 489.757 186.236 489.579 186.44 489.336C186.648 489.094 186.778 488.756 186.83 488.322C186.886 487.889 186.915 487.33 186.915 486.645V484.611H192.147V491.046H190.717V485.794H188.247V486.645C188.247 487.334 188.215 487.935 188.15 488.446C188.089 488.957 187.976 489.393 187.812 489.752C187.647 490.112 187.415 490.407 187.116 490.636C186.821 490.862 186.44 491.035 185.972 491.156ZM195.928 491.241C195.482 491.241 195.09 491.159 194.752 490.994C194.414 490.825 194.149 490.589 193.959 490.285C193.772 489.978 193.679 489.616 193.679 489.2C193.679 488.849 193.768 488.533 193.946 488.251C194.123 487.965 194.398 487.729 194.771 487.542C195.148 487.356 195.631 487.233 196.221 487.172C196.81 487.107 197.518 487.116 198.346 487.198L198.372 488.186C197.783 488.104 197.276 488.069 196.851 488.082C196.426 488.095 196.078 488.149 195.805 488.244C195.536 488.335 195.337 488.459 195.207 488.615C195.081 488.767 195.018 488.942 195.018 489.141C195.018 489.453 195.129 489.694 195.35 489.863C195.575 490.032 195.883 490.116 196.273 490.116C196.606 490.116 196.905 490.056 197.17 489.934C197.434 489.813 197.642 489.642 197.794 489.421C197.95 489.2 198.028 488.94 198.028 488.641V486.931C198.028 486.645 197.967 486.398 197.846 486.19C197.724 485.978 197.54 485.813 197.293 485.696C197.046 485.579 196.738 485.521 196.37 485.521C196.032 485.521 195.698 485.573 195.369 485.677C195.04 485.777 194.726 485.935 194.427 486.151L194.024 485.098C194.427 484.825 194.847 484.633 195.285 484.52C195.722 484.407 196.143 484.351 196.546 484.351C197.144 484.351 197.655 484.446 198.08 484.637C198.509 484.823 198.838 485.107 199.068 485.488C199.297 485.865 199.412 486.342 199.412 486.918V491.046H198.125V490.285C197.908 490.593 197.607 490.829 197.222 490.994C196.836 491.159 196.405 491.241 195.928 491.241ZM201.313 491.046V484.611H205.551V485.794H202.743V491.046H201.313ZM209.806 491.241C209.134 491.241 208.534 491.087 208.005 490.779C207.481 490.467 207.069 490.054 206.77 489.538C206.471 489.018 206.322 488.448 206.322 487.828C206.322 487.369 206.406 486.936 206.575 486.528C206.748 486.117 206.991 485.753 207.303 485.436C207.619 485.12 207.99 484.871 208.415 484.689C208.839 484.507 209.305 484.416 209.812 484.416C210.484 484.416 211.082 484.572 211.606 484.884C212.135 485.192 212.549 485.605 212.848 486.125C213.147 486.641 213.296 487.209 213.296 487.828C213.296 488.283 213.209 488.717 213.036 489.128C212.867 489.54 212.627 489.904 212.315 490.22C212.003 490.537 211.634 490.786 211.21 490.968C210.785 491.15 210.317 491.241 209.806 491.241ZM209.806 489.973C210.204 489.973 210.557 489.887 210.865 489.713C211.177 489.536 211.422 489.287 211.6 488.966C211.777 488.645 211.866 488.266 211.866 487.828C211.866 487.391 211.777 487.012 211.6 486.691C211.422 486.366 211.177 486.117 210.865 485.943C210.557 485.77 210.204 485.683 209.806 485.683C209.407 485.683 209.052 485.77 208.74 485.943C208.432 486.117 208.189 486.366 208.012 486.691C207.838 487.012 207.752 487.391 207.752 487.828C207.752 488.266 207.84 488.645 208.018 488.966C208.196 489.287 208.438 489.536 208.746 489.713C209.058 489.887 209.411 489.973 209.806 489.973ZM216.169 491.046V485.794H214.056V484.611H219.718V485.794H217.599V491.046H216.169ZM221.029 491.046V484.611H224.097C224.825 484.611 225.408 484.75 225.846 485.027C226.283 485.304 226.502 485.72 226.502 486.275C226.502 486.535 226.439 486.767 226.314 486.97C226.188 487.17 226.015 487.337 225.794 487.471C225.573 487.605 225.315 487.703 225.02 487.763L224.994 487.445C225.562 487.523 226.002 487.711 226.314 488.01C226.626 488.309 226.782 488.689 226.782 489.148C226.782 489.538 226.68 489.876 226.476 490.162C226.273 490.444 225.98 490.662 225.599 490.818C225.217 490.97 224.76 491.046 224.227 491.046H221.029ZM222.414 489.986H224.032C224.461 489.986 224.791 489.915 225.02 489.772C225.254 489.629 225.371 489.414 225.371 489.128C225.371 488.847 225.256 488.637 225.027 488.498C224.797 488.355 224.466 488.283 224.032 488.283H222.225V487.263H223.883C224.286 487.263 224.598 487.202 224.819 487.081C225.04 486.955 225.15 486.752 225.15 486.47C225.15 486.188 225.04 485.985 224.819 485.859C224.598 485.729 224.286 485.664 223.883 485.664H222.414V489.986ZM231.324 491.241C230.652 491.241 230.052 491.087 229.524 490.779C228.999 490.467 228.588 490.054 228.289 489.538C227.99 489.018 227.84 488.448 227.84 487.828C227.84 487.369 227.925 486.936 228.094 486.528C228.267 486.117 228.51 485.753 228.822 485.436C229.138 485.12 229.508 484.871 229.933 484.689C230.358 484.507 230.824 484.416 231.331 484.416C232.002 484.416 232.6 484.572 233.125 484.884C233.653 485.192 234.067 485.605 234.366 486.125C234.665 486.641 234.815 487.209 234.815 487.828C234.815 488.283 234.728 488.717 234.555 489.128C234.386 489.54 234.145 489.904 233.833 490.22C233.521 490.537 233.153 490.786 232.728 490.968C232.303 491.15 231.835 491.241 231.324 491.241ZM231.324 489.973C231.723 489.973 232.076 489.887 232.384 489.713C232.696 489.536 232.94 489.287 233.118 488.966C233.296 488.645 233.385 488.266 233.385 487.828C233.385 487.391 233.296 487.012 233.118 486.691C232.94 486.366 232.696 486.117 232.384 485.943C232.076 485.77 231.723 485.683 231.324 485.683C230.925 485.683 230.57 485.77 230.258 485.943C229.95 486.117 229.708 486.366 229.53 486.691C229.357 487.012 229.27 487.391 229.27 487.828C229.27 488.266 229.359 488.645 229.537 488.966C229.714 489.287 229.957 489.536 230.265 489.713C230.577 489.887 230.93 489.973 231.324 489.973ZM236.251 493.776V484.611H237.538V485.514C237.794 485.189 238.121 484.925 238.519 484.721C238.918 484.518 239.41 484.416 239.995 484.416C240.623 484.416 241.18 484.565 241.665 484.864C242.155 485.159 242.536 485.564 242.809 486.08C243.082 486.591 243.219 487.174 243.219 487.828C243.219 488.301 243.141 488.745 242.985 489.161C242.829 489.573 242.606 489.934 242.315 490.246C242.029 490.558 241.687 490.803 241.288 490.981C240.894 491.154 240.456 491.241 239.975 491.241C239.473 491.241 239.031 491.15 238.649 490.968C238.268 490.786 237.943 490.541 237.674 490.233V493.776H236.251ZM239.735 489.973C240.134 489.973 240.487 489.887 240.794 489.713C241.106 489.536 241.349 489.287 241.522 488.966C241.7 488.645 241.789 488.266 241.789 487.828C241.789 487.391 241.7 487.012 241.522 486.691C241.345 486.366 241.1 486.117 240.788 485.943C240.48 485.77 240.129 485.683 239.735 485.683C239.336 485.683 238.981 485.77 238.669 485.943C238.361 486.117 238.119 486.366 237.941 486.691C237.763 487.012 237.674 487.391 237.674 487.828C237.674 488.266 237.763 488.645 237.941 488.966C238.119 489.287 238.361 489.536 238.669 489.713C238.981 489.887 239.336 489.973 239.735 489.973ZM244.655 491.046V484.611H246.04V488.953L249.53 484.611H250.778V491.046H249.4V486.652L245.877 491.046H244.655ZM254.204 491.046V485.794H252.092V484.611H257.753V485.794H255.634V491.046H254.204ZM262.002 491.241C261.309 491.241 260.7 491.1 260.176 490.818C259.652 490.532 259.242 490.134 258.947 489.622C258.657 489.111 258.512 488.517 258.512 487.841C258.512 487.347 258.596 486.892 258.765 486.476C258.934 486.056 259.173 485.692 259.48 485.384C259.788 485.077 260.148 484.838 260.559 484.669C260.975 484.5 261.428 484.416 261.918 484.416C262.451 484.416 262.925 484.511 263.341 484.702C263.757 484.888 264.102 485.15 264.375 485.488C264.652 485.826 264.847 486.223 264.96 486.678C265.077 487.129 265.096 487.618 265.018 488.147H259.883C259.875 488.533 259.959 488.871 260.137 489.161C260.315 489.447 260.568 489.67 260.897 489.83C261.231 489.991 261.623 490.071 262.074 490.071C262.438 490.071 262.789 490.017 263.127 489.908C263.469 489.796 263.779 489.631 264.056 489.414L264.609 490.441C264.401 490.61 264.15 490.756 263.855 490.877C263.56 490.994 263.253 491.083 262.932 491.143C262.611 491.208 262.301 491.241 262.002 491.241ZM259.968 487.094H263.614C263.601 486.609 263.445 486.227 263.146 485.95C262.852 485.673 262.431 485.534 261.885 485.534C261.357 485.534 260.917 485.673 260.566 485.95C260.219 486.227 260.02 486.609 259.968 487.094ZM266.27 491.156L265.769 489.869C266.211 489.757 266.534 489.579 266.738 489.336C266.946 489.094 267.076 488.756 267.128 488.322C267.184 487.889 267.212 487.33 267.212 486.645V484.611H272.445V491.046H271.015V485.794H268.545V486.645C268.545 487.334 268.512 487.935 268.447 488.446C268.387 488.957 268.274 489.393 268.109 489.752C267.945 490.112 267.713 490.407 267.414 490.636C267.119 490.862 266.738 491.035 266.27 491.156ZM274.438 491.046V484.611H275.868V489.96H277.097C277.565 489.96 277.918 489.869 278.156 489.687C278.395 489.505 278.514 489.235 278.514 488.875C278.514 488.52 278.403 488.247 278.182 488.056C277.961 487.865 277.636 487.77 277.207 487.77H275.673V486.697H277.318C278.15 486.697 278.804 486.884 279.281 487.256C279.758 487.629 279.996 488.169 279.996 488.875C279.996 489.33 279.881 489.72 279.651 490.045C279.422 490.366 279.099 490.613 278.683 490.786C278.271 490.959 277.788 491.046 277.233 491.046H274.438ZM281.497 491.046V484.611H282.927V487.094H286.151V484.611H287.581V491.046H286.151V488.277H282.927V491.046H281.497ZM292.503 491.241C291.831 491.241 291.231 491.087 290.702 490.779C290.178 490.467 289.766 490.054 289.467 489.538C289.168 489.018 289.019 488.448 289.019 487.828C289.019 487.369 289.103 486.936 289.272 486.528C289.446 486.117 289.688 485.753 290 485.436C290.317 485.12 290.687 484.871 291.112 484.689C291.536 484.507 292.002 484.416 292.509 484.416C293.181 484.416 293.779 484.572 294.303 484.884C294.832 485.192 295.246 485.605 295.545 486.125C295.844 486.641 295.993 487.209 295.993 487.828C295.993 488.283 295.907 488.717 295.733 489.128C295.564 489.54 295.324 489.904 295.012 490.22C294.7 490.537 294.331 490.786 293.907 490.968C293.482 491.15 293.014 491.241 292.503 491.241ZM292.503 489.973C292.901 489.973 293.255 489.887 293.562 489.713C293.874 489.536 294.119 489.287 294.297 488.966C294.474 488.645 294.563 488.266 294.563 487.828C294.563 487.391 294.474 487.012 294.297 486.691C294.119 486.366 293.874 486.117 293.562 485.943C293.255 485.77 292.901 485.683 292.503 485.683C292.104 485.683 291.749 485.77 291.437 485.943C291.129 486.117 290.886 486.366 290.709 486.691C290.535 487.012 290.449 487.391 290.449 487.828C290.449 488.266 290.538 488.645 290.715 488.966C290.893 489.287 291.136 489.536 291.443 489.713C291.755 489.887 292.108 489.973 292.503 489.973ZM300.444 491.241C299.768 491.241 299.166 491.094 298.637 490.799C298.108 490.5 297.692 490.095 297.389 489.583C297.09 489.068 296.941 488.483 296.941 487.828C296.941 487.334 297.029 486.882 297.207 486.47C297.385 486.054 297.636 485.692 297.961 485.384C298.286 485.077 298.667 484.838 299.105 484.669C299.547 484.5 300.026 484.416 300.542 484.416C300.975 484.416 301.376 484.474 301.744 484.591C302.117 484.704 302.459 484.88 302.771 485.118L302.082 486.21C301.883 486.032 301.653 485.9 301.393 485.813C301.137 485.727 300.864 485.683 300.574 485.683C300.123 485.683 299.736 485.768 299.411 485.937C299.086 486.106 298.832 486.351 298.65 486.671C298.472 486.988 298.384 487.371 298.384 487.822C298.384 488.494 298.579 489.02 298.969 489.401C299.363 489.783 299.898 489.973 300.574 489.973C300.895 489.973 301.198 489.915 301.484 489.798C301.77 489.677 302.008 489.518 302.199 489.323L302.882 490.409C302.539 490.669 302.158 490.873 301.738 491.02C301.317 491.167 300.886 491.241 300.444 491.241ZM305.633 491.046V485.794H303.52V484.611H309.182V485.794H307.063V491.046H305.633ZM310.493 491.046V484.611H311.923V489.96H313.152C313.62 489.96 313.973 489.869 314.211 489.687C314.449 489.505 314.569 489.235 314.569 488.875C314.569 488.52 314.458 488.247 314.237 488.056C314.016 487.865 313.691 487.77 313.262 487.77H311.728V486.697H313.373C314.205 486.697 314.859 486.884 315.336 487.256C315.812 487.629 316.051 488.169 316.051 488.875C316.051 489.33 315.936 489.72 315.706 490.045C315.476 490.366 315.154 490.613 314.738 490.786C314.326 490.959 313.843 491.046 313.288 491.046H310.493Z" fill="#1C195B"/>
<defs>
<linearGradient id="paint0_linear_428_1579" x1="152.949" y1="117.769" x2="573.276" y2="141.702" gradientUnits="userSpaceOnUse">
<stop stop-color="#544CF9"/>
<stop offset="0.52" stop-color="#8B86FF"/>
<stop offset="1" stop-color="#5D56FF"/>
</linearGradient>
<linearGradient id="paint1_linear_428_1579" x1="153.528" y1="394.609" x2="319.573" y2="7.72844" gradientUnits="userSpaceOnUse">
<stop stop-color="#544CF9"/>
<stop offset="0.52" stop-color="#8B86FF"/>
<stop offset="1" stop-color="#5D56FF"/>
</linearGradient>
<linearGradient id="paint2_linear_428_1579" x1="167.354" y1="103.673" x2="583.323" y2="168.616" gradientUnits="userSpaceOnUse">
<stop stop-color="#544CF9"/>
<stop offset="0.52" stop-color="#8B86FF"/>
<stop offset="1" stop-color="#5D56FF"/>
</linearGradient>
<linearGradient id="paint3_linear_428_1579" x1="267.829" y1="34.4353" x2="596.645" y2="297.358" gradientUnits="userSpaceOnUse">
<stop stop-color="#544CF9"/>
<stop offset="0.52" stop-color="#8B86FF"/>
<stop offset="1" stop-color="#5D56FF"/>
</linearGradient>
<linearGradient id="paint4_linear_428_1579" x1="390.708" y1="24.461" x2="543.41" y2="416.8" gradientUnits="userSpaceOnUse">
<stop stop-color="#544CF9"/>
<stop offset="0.52" stop-color="#8B86FF"/>
<stop offset="1" stop-color="#5D56FF"/>
</linearGradient>
<linearGradient id="paint5_linear_428_1579" x1="503.847" y1="78.9986" x2="435.087" y2="494.354" gradientUnits="userSpaceOnUse">
<stop stop-color="#544CF9"/>
<stop offset="0.52" stop-color="#8B86FF"/>
<stop offset="1" stop-color="#5D56FF"/>
</linearGradient>
</defs>
</svg>
