<svg width="302" height="206" viewBox="0 0 302 206" fill="none" xmlns="http://www.w3.org/2000/svg">
<path fill-rule="evenodd" clip-rule="evenodd" d="M106.498 166.054L117 159L110.391 166.374C111.929 167.011 113.011 168.526 113.011 170.294V177.761C113.011 180.102 111.112 182.001 108.771 182.001H10.24C7.89836 182.001 6.00006 180.102 6.00006 177.761V170.294C6.00006 167.952 7.89836 166.054 10.24 166.054H106.498Z" fill="#140D83"/>
<path d="M11.5902 176.389V169.389H12.6752L15.5302 174.034L15.0952 174.039L17.8452 169.389H18.9102V176.389H17.8152L17.8302 170.879L18.0452 170.954L15.6652 174.879H14.8452L12.4202 170.954L12.6002 170.879L12.6152 176.389H11.5902ZM21.9608 176.539C21.6175 176.539 21.3158 176.476 21.0558 176.349C20.7958 176.219 20.5925 176.038 20.4458 175.804C20.3025 175.568 20.2308 175.289 20.2308 174.969C20.2308 174.699 20.2991 174.456 20.4358 174.239C20.5725 174.019 20.7841 173.838 21.0708 173.694C21.3608 173.551 21.7325 173.456 22.1858 173.409C22.6391 173.359 23.1841 173.366 23.8208 173.429L23.8408 174.189C23.3875 174.126 22.9975 174.099 22.6708 174.109C22.3441 174.119 22.0758 174.161 21.8658 174.234C21.6591 174.304 21.5058 174.399 21.4058 174.519C21.3091 174.636 21.2608 174.771 21.2608 174.924C21.2608 175.164 21.3458 175.349 21.5158 175.479C21.6891 175.609 21.9258 175.674 22.2258 175.674C22.4825 175.674 22.7125 175.628 22.9158 175.534C23.1191 175.441 23.2791 175.309 23.3958 175.139C23.5158 174.969 23.5758 174.769 23.5758 174.539V173.224C23.5758 173.004 23.5291 172.814 23.4358 172.654C23.3425 172.491 23.2008 172.364 23.0108 172.274C22.8208 172.184 22.5841 172.139 22.3008 172.139C22.0408 172.139 21.7841 172.179 21.5308 172.259C21.2775 172.336 21.0358 172.458 20.8058 172.624L20.4958 171.814C20.8058 171.604 21.1291 171.456 21.4658 171.369C21.8025 171.283 22.1258 171.239 22.4358 171.239C22.8958 171.239 23.2891 171.313 23.6158 171.459C23.9458 171.603 24.1991 171.821 24.3758 172.114C24.5525 172.404 24.6408 172.771 24.6408 173.214V176.389H23.6508V175.804C23.4841 176.041 23.2525 176.223 22.9558 176.349C22.6591 176.476 22.3275 176.539 21.9608 176.539ZM26.1034 178.489V171.439H27.0934V172.134C27.29 171.884 27.5417 171.681 27.8484 171.524C28.155 171.368 28.5334 171.289 28.9834 171.289C29.4667 171.289 29.895 171.404 30.2684 171.634C30.645 171.861 30.9384 172.173 31.1484 172.569C31.3584 172.963 31.4634 173.411 31.4634 173.914C31.4634 174.278 31.4034 174.619 31.2834 174.939C31.1634 175.256 30.9917 175.534 30.7684 175.774C30.5484 176.014 30.285 176.203 29.9784 176.339C29.675 176.473 29.3384 176.539 28.9684 176.539C28.5817 176.539 28.2417 176.469 27.9484 176.329C27.655 176.189 27.405 176.001 27.1984 175.764V178.489H26.1034ZM28.7834 175.564C29.09 175.564 29.3617 175.498 29.5984 175.364C29.8384 175.228 30.025 175.036 30.1584 174.789C30.295 174.543 30.3634 174.251 30.3634 173.914C30.3634 173.578 30.295 173.286 30.1584 173.039C30.0217 172.789 29.8334 172.598 29.5934 172.464C29.3567 172.331 29.0867 172.264 28.7834 172.264C28.4767 172.264 28.2034 172.331 27.9634 172.464C27.7267 172.598 27.54 172.789 27.4034 173.039C27.2667 173.286 27.1984 173.578 27.1984 173.914C27.1984 174.251 27.2667 174.543 27.4034 174.789C27.54 175.036 27.7267 175.228 27.9634 175.364C28.2034 175.498 28.4767 175.564 28.7834 175.564ZM35.8582 176.389L34.2182 173.759L35.7432 171.439H36.9182L35.4032 173.709L37.1732 176.389H35.8582ZM32.5682 176.389V171.439H33.6682V173.349H35.1582V174.259H33.6682V176.389H32.5682ZM40.3067 176.539C39.7734 176.539 39.3051 176.431 38.9017 176.214C38.4984 175.994 38.1834 175.688 37.9567 175.294C37.7334 174.901 37.6217 174.444 37.6217 173.924C37.6217 173.544 37.6867 173.194 37.8167 172.874C37.9467 172.551 38.1301 172.271 38.3667 172.034C38.6034 171.798 38.8801 171.614 39.1967 171.484C39.5167 171.354 39.8651 171.289 40.2417 171.289C40.6517 171.289 41.0167 171.363 41.3367 171.509C41.6567 171.653 41.9217 171.854 42.1317 172.114C42.3451 172.374 42.4951 172.679 42.5817 173.029C42.6717 173.376 42.6867 173.753 42.6267 174.159H38.6767C38.6701 174.456 38.7351 174.716 38.8717 174.939C39.0084 175.159 39.2034 175.331 39.4567 175.454C39.7134 175.578 40.0151 175.639 40.3617 175.639C40.6417 175.639 40.9117 175.598 41.1717 175.514C41.4351 175.428 41.6734 175.301 41.8867 175.134L42.3117 175.924C42.1517 176.054 41.9584 176.166 41.7317 176.259C41.5051 176.349 41.2684 176.418 41.0217 176.464C40.7751 176.514 40.5367 176.539 40.3067 176.539ZM38.7417 173.349H41.5467C41.5367 172.976 41.4167 172.683 41.1867 172.469C40.9601 172.256 40.6367 172.149 40.2167 172.149C39.8101 172.149 39.4717 172.256 39.2017 172.469C38.9351 172.683 38.7817 172.976 38.7417 173.349ZM44.8744 176.389V172.349H43.2494V171.439H47.6044V172.349H45.9744V176.389H44.8744ZM48.6131 176.389V171.439H49.6781V174.779L52.3631 171.439H53.3231V176.389H52.2631V173.009L49.5531 176.389H48.6131ZM54.8534 176.389V171.439H55.9534V173.349H58.4334V171.439H59.5334V176.389H58.4334V174.259H55.9534V176.389H54.8534ZM61.0643 176.389V171.439H64.3243V172.349H62.1643V176.389H61.0643ZM67.7928 176.389V171.439H72.4678V176.389H71.3678V172.349H68.8928V176.389H67.7928ZM73.994 178.489V171.439H74.984V172.134C75.1807 171.884 75.4323 171.681 75.739 171.524C76.0457 171.368 76.424 171.289 76.874 171.289C77.3573 171.289 77.7857 171.404 78.159 171.634C78.5357 171.861 78.829 172.173 79.039 172.569C79.249 172.963 79.354 173.411 79.354 173.914C79.354 174.278 79.294 174.619 79.174 174.939C79.054 175.256 78.8823 175.534 78.659 175.774C78.439 176.014 78.1757 176.203 77.869 176.339C77.5657 176.473 77.229 176.539 76.859 176.539C76.4723 176.539 76.1323 176.469 75.839 176.329C75.5457 176.189 75.2957 176.001 75.089 175.764V178.489H73.994ZM76.674 175.564C76.9807 175.564 77.2523 175.498 77.489 175.364C77.729 175.228 77.9157 175.036 78.049 174.789C78.1857 174.543 78.254 174.251 78.254 173.914C78.254 173.578 78.1857 173.286 78.049 173.039C77.9123 172.789 77.724 172.598 77.484 172.464C77.2473 172.331 76.9773 172.264 76.674 172.264C76.3673 172.264 76.094 172.331 75.854 172.464C75.6173 172.598 75.4307 172.789 75.294 173.039C75.1573 173.286 75.089 173.578 75.089 173.914C75.089 174.251 75.1573 174.543 75.294 174.789C75.4307 175.036 75.6173 175.228 75.854 175.364C76.094 175.498 76.3673 175.564 76.674 175.564ZM82.7627 176.539C82.246 176.539 81.7843 176.421 81.3777 176.184C80.9743 175.944 80.6577 175.626 80.4277 175.229C80.1977 174.829 80.0827 174.391 80.0827 173.914C80.0827 173.561 80.1477 173.228 80.2777 172.914C80.411 172.598 80.5977 172.318 80.8377 172.074C81.081 171.831 81.366 171.639 81.6927 171.499C82.0193 171.359 82.3777 171.289 82.7677 171.289C83.2843 171.289 83.7443 171.409 84.1477 171.649C84.5543 171.886 84.8727 172.204 85.1027 172.604C85.3327 173.001 85.4477 173.438 85.4477 173.914C85.4477 174.264 85.381 174.598 85.2477 174.914C85.1177 175.231 84.9327 175.511 84.6927 175.754C84.4527 175.998 84.1693 176.189 83.8427 176.329C83.516 176.469 83.156 176.539 82.7627 176.539ZM82.7627 175.564C83.0693 175.564 83.341 175.498 83.5777 175.364C83.8177 175.228 84.006 175.036 84.1427 174.789C84.2793 174.543 84.3477 174.251 84.3477 173.914C84.3477 173.578 84.2793 173.286 84.1427 173.039C84.006 172.789 83.8177 172.598 83.5777 172.464C83.341 172.331 83.0693 172.264 82.7627 172.264C82.456 172.264 82.1827 172.331 81.9427 172.464C81.706 172.598 81.5193 172.789 81.3827 173.039C81.2493 173.286 81.1827 173.578 81.1827 173.914C81.1827 174.251 81.251 174.543 81.3877 174.789C81.5243 175.036 81.711 175.228 81.9477 175.364C82.1877 175.498 82.4593 175.564 82.7627 175.564ZM88.8614 176.539C88.3281 176.539 87.8598 176.431 87.4564 176.214C87.0531 175.994 86.7381 175.688 86.5114 175.294C86.2881 174.901 86.1764 174.444 86.1764 173.924C86.1764 173.544 86.2414 173.194 86.3714 172.874C86.5014 172.551 86.6848 172.271 86.9214 172.034C87.1581 171.798 87.4348 171.614 87.7514 171.484C88.0714 171.354 88.4198 171.289 88.7964 171.289C89.2064 171.289 89.5714 171.363 89.8914 171.509C90.2114 171.653 90.4764 171.854 90.6864 172.114C90.8998 172.374 91.0498 172.679 91.1364 173.029C91.2264 173.376 91.2414 173.753 91.1814 174.159H87.2314C87.2248 174.456 87.2898 174.716 87.4264 174.939C87.5631 175.159 87.7581 175.331 88.0114 175.454C88.2681 175.578 88.5698 175.639 88.9164 175.639C89.1964 175.639 89.4664 175.598 89.7264 175.514C89.9898 175.428 90.2281 175.301 90.4414 175.134L90.8664 175.924C90.7064 176.054 90.5131 176.166 90.2864 176.259C90.0598 176.349 89.8231 176.418 89.5764 176.464C89.3298 176.514 89.0914 176.539 88.8614 176.539ZM87.2964 173.349H90.1014C90.0914 172.976 89.9714 172.683 89.7414 172.469C89.5148 172.256 89.1914 172.149 88.7714 172.149C88.3648 172.149 88.0264 172.256 87.7564 172.469C87.4898 172.683 87.3364 172.976 87.2964 173.349ZM95.6141 176.389L93.9741 173.759L95.4991 171.439H96.6741L95.1591 173.709L96.9291 176.389H95.6141ZM92.3241 176.389V171.439H93.4241V173.349H94.9141V174.259H93.4241V176.389H92.3241ZM99.0053 176.389V172.349H97.3803V171.439H101.735V172.349H100.105V176.389H99.0053ZM104.119 176.539C103.776 176.539 103.474 176.476 103.214 176.349C102.954 176.219 102.751 176.038 102.604 175.804C102.461 175.568 102.389 175.289 102.389 174.969C102.389 174.699 102.457 174.456 102.594 174.239C102.731 174.019 102.942 173.838 103.229 173.694C103.519 173.551 103.891 173.456 104.344 173.409C104.797 173.359 105.342 173.366 105.979 173.429L105.999 174.189C105.546 174.126 105.156 174.099 104.829 174.109C104.502 174.119 104.234 174.161 104.024 174.234C103.817 174.304 103.664 174.399 103.564 174.519C103.467 174.636 103.419 174.771 103.419 174.924C103.419 175.164 103.504 175.349 103.674 175.479C103.847 175.609 104.084 175.674 104.384 175.674C104.641 175.674 104.871 175.628 105.074 175.534C105.277 175.441 105.437 175.309 105.554 175.139C105.674 174.969 105.734 174.769 105.734 174.539V173.224C105.734 173.004 105.687 172.814 105.594 172.654C105.501 172.491 105.359 172.364 105.169 172.274C104.979 172.184 104.742 172.139 104.459 172.139C104.199 172.139 103.942 172.179 103.689 172.259C103.436 172.336 103.194 172.458 102.964 172.624L102.654 171.814C102.964 171.604 103.287 171.456 103.624 171.369C103.961 171.283 104.284 171.239 104.594 171.239C105.054 171.239 105.447 171.313 105.774 171.459C106.104 171.603 106.357 171.821 106.534 172.114C106.711 172.404 106.799 172.771 106.799 173.214V176.389H105.809V175.804C105.642 176.041 105.411 176.223 105.114 176.349C104.817 176.476 104.486 176.539 104.119 176.539Z" fill="white"/>
<g clip-path="url(#clip0_437_2874)">
<mask id="mask0_437_2874" style="mask-type:luminance" maskUnits="userSpaceOnUse" x="82" y="0" width="172" height="92">
<path d="M253.216 68.8572C248.819 47.5559 236.519 28.71 218.791 16.1094C201.063 3.50873 179.221 -1.91206 157.658 0.937235C136.096 3.78644 116.411 14.6945 102.565 31.4675C88.7178 48.2404 81.7354 69.6342 83.0217 91.3462L168.932 86.2572L253.216 68.8572Z" fill="white"/>
</mask>
<g mask="url(#mask0_437_2874)">
<path d="M253.216 68.8572C248.819 47.5559 236.519 28.71 218.791 16.1094C201.063 3.50873 179.221 -1.91206 157.658 0.937235C136.096 3.78644 116.411 14.6945 102.565 31.4675C88.7178 48.2404 81.7354 69.6342 83.0217 91.3462L168.932 86.2572L253.216 68.8572Z" fill="#4BE05A" stroke="url(#paint0_linear_437_2874)" stroke-width="0.424994"/>
</g>
<mask id="mask1_437_2874" style="mask-type:luminance" maskUnits="userSpaceOnUse" x="169" y="71" width="87" height="85">
<path d="M222.417 155.478C234.762 145.706 244.19 132.733 249.673 117.973C255.157 103.214 256.486 87.2325 253.516 71.7695L169 88.0005L222.417 155.478Z" fill="white"/>
</mask>
<g mask="url(#mask1_437_2874)">
<path d="M222.417 155.478C234.762 145.706 244.19 132.733 249.673 117.973C255.157 103.214 256.486 87.2325 253.516 71.7695L169 88.0005L222.417 155.478Z" fill="#05E9F0" stroke="url(#paint1_linear_437_2874)" stroke-width="0.424994"/>
</g>
<mask id="mask2_437_2874" style="mask-type:luminance" maskUnits="userSpaceOnUse" x="169" y="88" width="49" height="86">
<path d="M177.181 173.672C191.758 172.28 205.738 167.192 217.799 158.889L169 88L177.181 173.672Z" fill="white"/>
</mask>
<g mask="url(#mask2_437_2874)">
<path d="M177.181 173.672C191.758 172.28 205.738 167.192 217.799 158.889L169 88L177.181 173.672Z" fill="#2943DE" stroke="url(#paint2_linear_437_2874)" stroke-width="0.424994"/>
</g>
<mask id="mask3_437_2874" style="mask-type:luminance" maskUnits="userSpaceOnUse" x="83" y="87" width="87" height="47">
<path d="M83.4639 93.8453C84.486 107.784 88.8871 121.263 96.2869 133.119L169.295 87.552L83.4639 93.8453Z" fill="white"/>
</mask>
<g mask="url(#mask3_437_2874)">
<path d="M83.4639 93.8453C84.486 107.784 88.8871 121.263 96.2869 133.119L169.295 87.552L83.4639 93.8453Z" fill="#544CF9" stroke="url(#paint3_linear_437_2874)" stroke-width="0.424994"/>
</g>
<mask id="path-11-inside-1_437_2874" fill="white">
<path d="M144.17 170.656C154.388 173.707 165.1 174.746 175.714 173.713L167.74 91.7403L144.17 170.656Z"/>
</mask>
<path d="M144.17 170.656C154.388 173.707 165.1 174.746 175.714 173.713L167.74 91.7403L144.17 170.656Z" fill="#B2FDFF" stroke="url(#paint4_linear_437_2874)" stroke-width="0.406716" mask="url(#path-11-inside-1_437_2874)"/>
<mask id="path-12-inside-2_437_2874" fill="white">
<path d="M98.0329 134.263C108.107 150.501 123.578 162.672 141.732 168.639L167.119 91.4047L98.0329 134.263Z"/>
</mask>
<path d="M98.0329 134.263C108.107 150.501 123.578 162.672 141.732 168.639L167.119 91.4047L98.0329 134.263Z" fill="#8B86FF" stroke="url(#paint5_linear_437_2874)" stroke-width="0.401481" mask="url(#path-12-inside-2_437_2874)"/>
<path d="M150.484 55.8V54.6L156.484 48.6H157.684V54.6H158.884V55.8H157.684V57H156.484V55.8H150.484ZM156.484 54.6V50.292L152.176 54.6H156.484ZM166.921 54.6V51C166.921 50.34 166.381 49.8 165.721 49.8H162.121C161.461 49.8 160.921 50.34 160.921 51V54.6C160.921 55.26 161.461 55.8 162.121 55.8H165.721C166.381 55.8 166.921 55.26 166.921 54.6ZM168.121 51V54.6C168.121 55.872 167.065 57 165.721 57H162.121C160.837 57 159.721 55.956 159.721 54.6V51C159.721 49.728 160.777 48.6 162.121 48.6H165.721C167.005 48.6 168.085 49.668 168.121 51ZM177.364 48.6V49.572L171.568 57H170.764V56.076L176.608 48.6H177.364ZM171.364 52.2C172.024 52.2 172.564 51.66 172.564 51C172.564 50.34 172.024 49.8 171.364 49.8C170.704 49.8 170.164 50.34 170.164 51C170.164 51.66 170.704 52.2 171.364 52.2ZM173.764 51C173.764 52.272 172.708 53.4 171.364 53.4C170.08 53.4 168.964 52.356 168.964 51C168.964 49.728 170.02 48.6 171.364 48.6C172.648 48.6 173.728 49.668 173.764 51ZM176.764 55.8C177.424 55.8 177.964 55.26 177.964 54.6C177.964 53.94 177.424 53.4 176.764 53.4C176.104 53.4 175.564 53.94 175.564 54.6C175.564 55.26 176.104 55.8 176.764 55.8ZM179.164 54.6C179.164 55.872 178.108 57 176.764 57C175.48 57 174.364 55.956 174.364 54.6C174.364 53.328 175.42 52.2 176.764 52.2C178.048 52.2 179.128 53.268 179.164 54.6Z" fill="#1C195B"/>
<path d="M209.909 106.314V106.814H215.909V107.814H208.909V106.314C208.909 105.254 209.789 104.314 210.909 104.314H213.909C214.459 104.314 214.909 103.864 214.909 103.314V102.814C214.909 102.264 214.459 101.814 213.909 101.814H210.909C210.359 101.814 209.909 102.264 209.909 102.814H208.909C208.909 101.754 209.789 100.814 210.909 100.814H213.909C214.959 100.814 215.909 101.704 215.909 102.814V103.314C215.909 104.374 215.029 105.314 213.909 105.314H210.909C210.359 105.314 209.909 105.764 209.909 106.314ZM222.712 105.814V102.814C222.712 102.264 222.262 101.814 221.712 101.814H218.712C218.162 101.814 217.712 102.264 217.712 102.814V105.814C217.712 106.364 218.162 106.814 218.712 106.814H221.712C222.262 106.814 222.712 106.364 222.712 105.814ZM223.712 102.814V105.814C223.712 106.874 222.832 107.814 221.712 107.814H218.712C217.642 107.814 216.712 106.944 216.712 105.814V102.814C216.712 101.754 217.592 100.814 218.712 100.814H221.712C222.782 100.814 223.682 101.704 223.712 102.814ZM231.415 100.814V101.624L226.585 107.814H225.915V107.044L230.785 100.814H231.415ZM226.415 103.814C226.965 103.814 227.415 103.364 227.415 102.814C227.415 102.264 226.965 101.814 226.415 101.814C225.865 101.814 225.415 102.264 225.415 102.814C225.415 103.364 225.865 103.814 226.415 103.814ZM228.415 102.814C228.415 103.874 227.535 104.814 226.415 104.814C225.345 104.814 224.415 103.944 224.415 102.814C224.415 101.754 225.295 100.814 226.415 100.814C227.485 100.814 228.385 101.704 228.415 102.814ZM230.915 106.814C231.465 106.814 231.915 106.364 231.915 105.814C231.915 105.264 231.465 104.814 230.915 104.814C230.365 104.814 229.915 105.264 229.915 105.814C229.915 106.364 230.365 106.814 230.915 106.814ZM232.915 105.814C232.915 106.874 232.035 107.814 230.915 107.814C229.845 107.814 228.915 106.944 228.915 105.814C228.915 104.754 229.795 103.814 230.915 103.814C231.985 103.814 232.885 104.704 232.915 105.814Z" fill="#28368B"/>
<path d="M179.639 137.578L181.639 135.578H182.639V142.578H181.639V136.988L180.049 138.578H179.639V137.578ZM189.542 140.578V137.578C189.542 137.028 189.092 136.578 188.542 136.578H185.542C184.992 136.578 184.542 137.028 184.542 137.578V140.578C184.542 141.128 184.992 141.578 185.542 141.578H188.542C189.092 141.578 189.542 141.128 189.542 140.578ZM190.542 137.578V140.578C190.542 141.638 189.662 142.578 188.542 142.578H185.542C184.472 142.578 183.542 141.708 183.542 140.578V137.578C183.542 136.518 184.422 135.578 185.542 135.578H188.542C189.612 135.578 190.512 136.468 190.542 137.578ZM198.245 135.578V136.388L193.415 142.578H192.745V141.808L197.615 135.578H198.245ZM193.245 138.578C193.795 138.578 194.245 138.128 194.245 137.578C194.245 137.028 193.795 136.578 193.245 136.578C192.695 136.578 192.245 137.028 192.245 137.578C192.245 138.128 192.695 138.578 193.245 138.578ZM195.245 137.578C195.245 138.638 194.365 139.578 193.245 139.578C192.175 139.578 191.245 138.708 191.245 137.578C191.245 136.518 192.125 135.578 193.245 135.578C194.315 135.578 195.215 136.468 195.245 137.578ZM197.745 141.578C198.295 141.578 198.745 141.128 198.745 140.578C198.745 140.028 198.295 139.578 197.745 139.578C197.195 139.578 196.745 140.028 196.745 140.578C196.745 141.128 197.195 141.578 197.745 141.578ZM199.745 140.578C199.745 141.638 198.865 142.578 197.745 142.578C196.675 142.578 195.745 141.708 195.745 140.578C195.745 139.518 196.625 138.578 197.745 138.578C198.815 138.578 199.715 139.468 199.745 140.578Z" fill="white"/>
<path d="M117.1 135L119.1 133H120.1V140H119.1V134.41L117.51 136H117.1V135ZM127.704 134H122.404V135.6H126.104C127.154 135.6 128.104 136.49 128.104 137.6V138C128.104 139.06 127.224 140 126.104 140H123.104C122.014 140 121.134 139.13 121.104 138H122.104C122.104 138.55 122.554 139 123.104 139H126.104C126.654 139 127.104 138.55 127.104 138V137.6C127.104 137.05 126.654 136.6 126.104 136.6H121.404V133H127.704V134ZM135.804 133V133.81L130.974 140H130.304V139.23L135.174 133H135.804ZM130.804 136C131.354 136 131.804 135.55 131.804 135C131.804 134.45 131.354 134 130.804 134C130.254 134 129.804 134.45 129.804 135C129.804 135.55 130.254 136 130.804 136ZM132.804 135C132.804 136.06 131.924 137 130.804 137C129.734 137 128.804 136.13 128.804 135C128.804 133.94 129.684 133 130.804 133C131.874 133 132.774 133.89 132.804 135ZM135.304 139C135.854 139 136.304 138.55 136.304 138C136.304 137.45 135.854 137 135.304 137C134.754 137 134.304 137.45 134.304 138C134.304 138.55 134.754 139 135.304 139ZM137.304 138C137.304 139.06 136.424 140 135.304 140C134.234 140 133.304 139.13 133.304 138C133.304 136.94 134.184 136 135.304 136C136.374 136 137.274 136.89 137.304 138Z" fill="white"/>
<path d="M99.1 106L101.1 104H102.1V111H101.1V105.41L99.51 107H99.1V106ZM109.004 109V106C109.004 105.45 108.554 105 108.004 105H105.004C104.454 105 104.004 105.45 104.004 106V109C104.004 109.55 104.454 110 105.004 110H108.004C108.554 110 109.004 109.55 109.004 109ZM110.004 106V109C110.004 110.06 109.124 111 108.004 111H105.004C103.934 111 103.004 110.13 103.004 109V106C103.004 104.94 103.884 104 105.004 104H108.004C109.074 104 109.974 104.89 110.004 106ZM117.706 104V104.81L112.876 111H112.206V110.23L117.076 104H117.706ZM112.706 107C113.256 107 113.706 106.55 113.706 106C113.706 105.45 113.256 105 112.706 105C112.156 105 111.706 105.45 111.706 106C111.706 106.55 112.156 107 112.706 107ZM114.706 106C114.706 107.06 113.826 108 112.706 108C111.636 108 110.706 107.13 110.706 106C110.706 104.94 111.586 104 112.706 104C113.776 104 114.676 104.89 114.706 106ZM117.206 110C117.756 110 118.206 109.55 118.206 109C118.206 108.45 117.756 108 117.206 108C116.656 108 116.206 108.45 116.206 109C116.206 109.55 116.656 110 117.206 110ZM119.206 109C119.206 110.06 118.326 111 117.206 111C116.136 111 115.206 110.13 115.206 109C115.206 107.94 116.086 107 117.206 107C118.276 107 119.176 107.89 119.206 109Z" fill="white"/>
<path d="M159.1 152H153.8V153.6H157.5C158.55 153.6 159.5 154.49 159.5 155.6V156C159.5 157.06 158.62 158 157.5 158H154.5C153.41 158 152.53 157.13 152.5 156H153.5C153.5 156.55 153.95 157 154.5 157H157.5C158.05 157 158.5 156.55 158.5 156V155.6C158.5 155.05 158.05 154.6 157.5 154.6H152.8V151H159.1V152ZM167.2 151V151.81L162.37 158H161.7V157.23L166.57 151H167.2ZM162.2 154C162.75 154 163.2 153.55 163.2 153C163.2 152.45 162.75 152 162.2 152C161.65 152 161.2 152.45 161.2 153C161.2 153.55 161.65 154 162.2 154ZM164.2 153C164.2 154.06 163.32 155 162.2 155C161.13 155 160.2 154.13 160.2 153C160.2 151.94 161.08 151 162.2 151C163.27 151 164.17 151.89 164.2 153ZM166.7 157C167.25 157 167.7 156.55 167.7 156C167.7 155.45 167.25 155 166.7 155C166.15 155 165.7 155.45 165.7 156C165.7 156.55 166.15 157 166.7 157ZM168.7 156C168.7 157.06 167.82 158 166.7 158C165.63 158 164.7 157.13 164.7 156C164.7 154.94 165.58 154 166.7 154C167.77 154 168.67 154.89 168.7 156Z" fill="#1C195B"/>
</g>
<path fill-rule="evenodd" clip-rule="evenodd" d="M229.37 147.123L218 138L227.51 150.675V160.761C227.51 163.102 229.408 165.001 231.75 165.001H297.76C300.102 165.001 302 163.102 302 160.761V150.633C302 148.291 300.102 146.393 297.76 146.393H231.75C230.868 146.393 230.049 146.662 229.37 147.123Z" fill="#140D83"/>
<path d="M234.939 158.389V151.389H236.054V156.559L239.554 151.389H240.634V158.389H239.524V153.184L236.009 158.389H234.939ZM242.313 158.389V153.439H243.413V155.349H245.893V153.439H246.993V158.389H245.893V156.259H243.413V158.389H242.313ZM248.524 158.389V153.439H250.884C251.444 153.439 251.893 153.545 252.229 153.759C252.566 153.972 252.734 154.292 252.734 154.719C252.734 154.919 252.686 155.097 252.589 155.254C252.493 155.407 252.359 155.535 252.189 155.639C252.019 155.742 251.821 155.817 251.594 155.864L251.574 155.619C252.011 155.679 252.349 155.824 252.589 156.054C252.829 156.284 252.949 156.575 252.949 156.929C252.949 157.229 252.871 157.489 252.714 157.709C252.558 157.925 252.333 158.094 252.039 158.214C251.746 158.33 251.394 158.389 250.984 158.389H248.524ZM249.589 157.574H250.834C251.164 157.574 251.418 157.519 251.594 157.409C251.774 157.299 251.864 157.134 251.864 156.914C251.864 156.697 251.776 156.535 251.599 156.429C251.423 156.319 251.168 156.264 250.834 156.264H249.444V155.479H250.719C251.029 155.479 251.269 155.432 251.439 155.339C251.609 155.242 251.694 155.085 251.694 154.869C251.694 154.652 251.609 154.495 251.439 154.399C251.269 154.299 251.029 154.249 250.719 154.249H249.589V157.574ZM256.448 158.539C255.915 158.539 255.447 158.43 255.043 158.214C254.64 157.994 254.325 157.687 254.098 157.294C253.875 156.9 253.763 156.444 253.763 155.924C253.763 155.544 253.828 155.194 253.958 154.874C254.088 154.55 254.272 154.27 254.508 154.034C254.745 153.797 255.022 153.614 255.338 153.484C255.658 153.354 256.007 153.289 256.383 153.289C256.793 153.289 257.158 153.362 257.478 153.509C257.798 153.652 258.063 153.854 258.273 154.114C258.487 154.374 258.637 154.679 258.723 155.029C258.813 155.375 258.828 155.752 258.768 156.159H254.818C254.812 156.455 254.877 156.715 255.013 156.939C255.15 157.159 255.345 157.33 255.598 157.454C255.855 157.577 256.157 157.639 256.503 157.639C256.783 157.639 257.053 157.597 257.313 157.514C257.577 157.427 257.815 157.3 258.028 157.134L258.453 157.924C258.293 158.054 258.1 158.165 257.873 158.259C257.647 158.349 257.41 158.417 257.163 158.464C256.917 158.514 256.678 158.539 256.448 158.539ZM254.883 155.349H257.688C257.678 154.975 257.558 154.682 257.328 154.469C257.102 154.255 256.778 154.149 256.358 154.149C255.952 154.149 255.613 154.255 255.343 154.469C255.077 154.682 254.923 154.975 254.883 155.349ZM262.23 158.539C261.71 158.539 261.246 158.425 260.84 158.199C260.433 157.969 260.113 157.657 259.88 157.264C259.65 156.867 259.535 156.417 259.535 155.914C259.535 155.534 259.603 155.185 259.74 154.869C259.876 154.549 260.07 154.27 260.32 154.034C260.57 153.797 260.863 153.614 261.2 153.484C261.54 153.354 261.908 153.289 262.305 153.289C262.638 153.289 262.946 153.334 263.23 153.424C263.516 153.51 263.78 153.645 264.02 153.829L263.49 154.669C263.336 154.532 263.16 154.43 262.96 154.364C262.763 154.297 262.553 154.264 262.33 154.264C261.983 154.264 261.685 154.329 261.435 154.459C261.185 154.589 260.99 154.777 260.85 155.024C260.713 155.267 260.645 155.562 260.645 155.909C260.645 156.425 260.795 156.83 261.095 157.124C261.398 157.417 261.81 157.564 262.33 157.564C262.576 157.564 262.81 157.519 263.03 157.429C263.25 157.335 263.433 157.214 263.58 157.064L264.105 157.899C263.841 158.099 263.548 158.255 263.225 158.369C262.901 158.482 262.57 158.539 262.23 158.539ZM266.221 158.389V154.349H264.596V153.439H268.951V154.349H267.321V158.389H266.221ZM272.215 158.539C271.698 158.539 271.236 158.42 270.83 158.184C270.426 157.944 270.11 157.625 269.88 157.229C269.65 156.829 269.535 156.39 269.535 155.914C269.535 155.56 269.6 155.227 269.73 154.914C269.863 154.597 270.05 154.317 270.29 154.074C270.533 153.83 270.818 153.639 271.145 153.499C271.471 153.359 271.83 153.289 272.22 153.289C272.736 153.289 273.196 153.409 273.6 153.649C274.006 153.885 274.325 154.204 274.555 154.604C274.785 155 274.9 155.437 274.9 155.914C274.9 156.264 274.833 156.597 274.7 156.914C274.57 157.23 274.385 157.51 274.145 157.754C273.905 157.997 273.621 158.189 273.295 158.329C272.968 158.469 272.608 158.539 272.215 158.539ZM272.215 157.564C272.521 157.564 272.793 157.497 273.03 157.364C273.27 157.227 273.458 157.035 273.595 156.789C273.731 156.542 273.8 156.25 273.8 155.914C273.8 155.577 273.731 155.285 273.595 155.039C273.458 154.789 273.27 154.597 273.03 154.464C272.793 154.33 272.521 154.264 272.215 154.264C271.908 154.264 271.635 154.33 271.395 154.464C271.158 154.597 270.971 154.789 270.835 155.039C270.701 155.285 270.635 155.577 270.635 155.914C270.635 156.25 270.703 156.542 270.84 156.789C270.976 157.035 271.163 157.227 271.4 157.364C271.64 157.497 271.911 157.564 272.215 157.564ZM276.005 160.489V153.439H276.995V154.134C277.191 153.884 277.443 153.68 277.75 153.524C278.056 153.367 278.435 153.289 278.885 153.289C279.368 153.289 279.796 153.404 280.17 153.634C280.546 153.86 280.84 154.172 281.05 154.569C281.26 154.962 281.365 155.41 281.365 155.914C281.365 156.277 281.305 156.619 281.185 156.939C281.065 157.255 280.893 157.534 280.67 157.774C280.45 158.014 280.186 158.202 279.88 158.339C279.576 158.472 279.24 158.539 278.87 158.539C278.483 158.539 278.143 158.469 277.85 158.329C277.556 158.189 277.306 158 277.1 157.764V160.489H276.005ZM278.685 157.564C278.991 157.564 279.263 157.497 279.5 157.364C279.74 157.227 279.926 157.035 280.06 156.789C280.196 156.542 280.265 156.25 280.265 155.914C280.265 155.577 280.196 155.285 280.06 155.039C279.923 154.789 279.735 154.597 279.495 154.464C279.258 154.33 278.988 154.264 278.685 154.264C278.378 154.264 278.105 154.33 277.865 154.464C277.628 154.597 277.441 154.789 277.305 155.039C277.168 155.285 277.1 155.577 277.1 155.914C277.1 156.25 277.168 156.542 277.305 156.789C277.441 157.035 277.628 157.227 277.865 157.364C278.105 157.497 278.378 157.564 278.685 157.564ZM283.845 158.539C283.501 158.539 283.2 158.475 282.94 158.349C282.68 158.219 282.476 158.037 282.33 157.804C282.186 157.567 282.115 157.289 282.115 156.969C282.115 156.699 282.183 156.455 282.32 156.239C282.456 156.019 282.668 155.837 282.955 155.694C283.245 155.55 283.616 155.455 284.07 155.409C284.523 155.359 285.068 155.365 285.705 155.429L285.725 156.189C285.271 156.125 284.881 156.099 284.555 156.109C284.228 156.119 283.96 156.16 283.75 156.234C283.543 156.304 283.39 156.399 283.29 156.519C283.193 156.635 283.145 156.77 283.145 156.924C283.145 157.164 283.23 157.349 283.4 157.479C283.573 157.609 283.81 157.674 284.11 157.674C284.366 157.674 284.596 157.627 284.8 157.534C285.003 157.44 285.163 157.309 285.28 157.139C285.4 156.969 285.46 156.769 285.46 156.539V155.224C285.46 155.004 285.413 154.814 285.32 154.654C285.226 154.49 285.085 154.364 284.895 154.274C284.705 154.184 284.468 154.139 284.185 154.139C283.925 154.139 283.668 154.179 283.415 154.259C283.161 154.335 282.92 154.457 282.69 154.624L282.38 153.814C282.69 153.604 283.013 153.455 283.35 153.369C283.686 153.282 284.01 153.239 284.32 153.239C284.78 153.239 285.173 153.312 285.5 153.459C285.83 153.602 286.083 153.82 286.26 154.114C286.436 154.404 286.525 154.77 286.525 155.214V158.389H285.535V157.804C285.368 158.04 285.136 158.222 284.84 158.349C284.543 158.475 284.211 158.539 283.845 158.539ZM287.987 158.389V153.439H288.942H288.972L291.192 156.649L290.717 156.659L292.827 153.439H293.802V158.389H292.802L292.817 154.729L293.022 154.819L291.252 157.404H290.542L288.692 154.814L288.897 154.724L288.912 158.389H287.987Z" fill="white"/>
<path fill-rule="evenodd" clip-rule="evenodd" d="M205.042 171.724L194.938 157.684L211.746 171.724H260.619C262.961 171.724 264.859 173.622 264.859 175.964V197.86C264.859 200.202 262.961 202.1 260.619 202.1H189.24C186.898 202.1 185 200.202 185 197.86V175.964C185 173.622 186.898 171.724 189.24 171.724H205.042Z" fill="#140D83"/>
<path d="M195.764 184.25C195.274 184.25 194.797 184.182 194.334 184.045C193.874 183.905 193.472 183.702 193.129 183.435L193.659 182.54C193.969 182.773 194.304 182.945 194.664 183.055C195.027 183.162 195.401 183.215 195.784 183.215C196.291 183.215 196.729 183.115 197.099 182.915C197.472 182.712 197.759 182.412 197.959 182.015C198.159 181.618 198.259 181.123 198.259 180.53C198.259 179.98 198.157 179.515 197.954 179.135C197.754 178.755 197.471 178.467 197.104 178.27C196.741 178.073 196.314 177.975 195.824 177.975C195.434 177.975 195.076 178.027 194.749 178.13C194.426 178.233 194.137 178.388 193.884 178.595L193.349 177.77C193.646 177.513 194.007 177.313 194.434 177.17C194.861 177.023 195.334 176.95 195.854 176.95C196.554 176.95 197.166 177.1 197.689 177.4C198.216 177.697 198.624 178.113 198.914 178.65C199.207 179.187 199.354 179.812 199.354 180.525C199.354 181.092 199.267 181.605 199.094 182.065C198.924 182.525 198.679 182.918 198.359 183.245C198.042 183.568 197.664 183.817 197.224 183.99C196.787 184.163 196.301 184.25 195.764 184.25ZM194.504 180.895V179.99H198.534V180.895H194.504ZM203.887 184.1L202.247 181.47L203.772 179.15H204.947L203.432 181.42L205.202 184.1H203.887ZM200.597 184.1V179.15H201.697V181.06H203.187V181.97H201.697V184.1H200.597ZM208.345 184.25C207.825 184.25 207.362 184.137 206.955 183.91C206.548 183.68 206.228 183.368 205.995 182.975C205.765 182.578 205.65 182.128 205.65 181.625C205.65 181.245 205.718 180.897 205.855 180.58C205.992 180.26 206.185 179.982 206.435 179.745C206.685 179.508 206.978 179.325 207.315 179.195C207.655 179.065 208.023 179 208.42 179C208.753 179 209.062 179.045 209.345 179.135C209.632 179.222 209.895 179.357 210.135 179.54L209.605 180.38C209.452 180.243 209.275 180.142 209.075 180.075C208.878 180.008 208.668 179.975 208.445 179.975C208.098 179.975 207.8 180.04 207.55 180.17C207.3 180.3 207.105 180.488 206.965 180.735C206.828 180.978 206.76 181.273 206.76 181.62C206.76 182.137 206.91 182.542 207.21 182.835C207.513 183.128 207.925 183.275 208.445 183.275C208.692 183.275 208.925 183.23 209.145 183.14C209.365 183.047 209.548 182.925 209.695 182.775L210.22 183.61C209.957 183.81 209.663 183.967 209.34 184.08C209.017 184.193 208.685 184.25 208.345 184.25ZM211.231 184.1V179.15H215.906V184.1H214.806V180.06H212.331V184.1H211.231ZM219.692 184.25C219.159 184.25 218.691 184.142 218.287 183.925C217.884 183.705 217.569 183.398 217.342 183.005C217.119 182.612 217.007 182.155 217.007 181.635C217.007 181.255 217.072 180.905 217.202 180.585C217.332 180.262 217.516 179.982 217.752 179.745C217.989 179.508 218.266 179.325 218.582 179.195C218.902 179.065 219.251 179 219.627 179C220.037 179 220.402 179.073 220.722 179.22C221.042 179.363 221.307 179.565 221.517 179.825C221.731 180.085 221.881 180.39 221.967 180.74C222.057 181.087 222.072 181.463 222.012 181.87H218.062C218.056 182.167 218.121 182.427 218.257 182.65C218.394 182.87 218.589 183.042 218.842 183.165C219.099 183.288 219.401 183.35 219.747 183.35C220.027 183.35 220.297 183.308 220.557 183.225C220.821 183.138 221.059 183.012 221.272 182.845L221.697 183.635C221.537 183.765 221.344 183.877 221.117 183.97C220.891 184.06 220.654 184.128 220.407 184.175C220.161 184.225 219.922 184.25 219.692 184.25ZM218.127 181.06H220.932C220.922 180.687 220.802 180.393 220.572 180.18C220.346 179.967 220.022 179.86 219.602 179.86C219.196 179.86 218.857 179.967 218.587 180.18C218.321 180.393 218.167 180.687 218.127 181.06ZM223.155 186.2V179.15H224.145V179.845C224.342 179.595 224.593 179.392 224.9 179.235C225.207 179.078 225.585 179 226.035 179C226.518 179 226.947 179.115 227.32 179.345C227.697 179.572 227.99 179.883 228.2 180.28C228.41 180.673 228.515 181.122 228.515 181.625C228.515 181.988 228.455 182.33 228.335 182.65C228.215 182.967 228.043 183.245 227.82 183.485C227.6 183.725 227.337 183.913 227.03 184.05C226.727 184.183 226.39 184.25 226.02 184.25C225.633 184.25 225.293 184.18 225 184.04C224.707 183.9 224.457 183.712 224.25 183.475V186.2H223.155ZM225.835 183.275C226.142 183.275 226.413 183.208 226.65 183.075C226.89 182.938 227.077 182.747 227.21 182.5C227.347 182.253 227.415 181.962 227.415 181.625C227.415 181.288 227.347 180.997 227.21 180.75C227.073 180.5 226.885 180.308 226.645 180.175C226.408 180.042 226.138 179.975 225.835 179.975C225.528 179.975 225.255 180.042 225.015 180.175C224.778 180.308 224.592 180.5 224.455 180.75C224.318 180.997 224.25 181.288 224.25 181.625C224.25 181.962 224.318 182.253 224.455 182.5C224.592 182.747 224.778 182.938 225.015 183.075C225.255 183.208 225.528 183.275 225.835 183.275ZM230.725 184.1V180.06H229.1V179.15H233.455V180.06H231.825V184.1H230.725ZM234.464 184.1V179.15H235.564V181.06H238.044V179.15H239.144V184.1H238.044V181.97H235.564V184.1H234.464ZM242.93 184.25C242.413 184.25 241.951 184.132 241.545 183.895C241.141 183.655 240.825 183.337 240.595 182.94C240.365 182.54 240.25 182.102 240.25 181.625C240.25 181.272 240.315 180.938 240.445 180.625C240.578 180.308 240.765 180.028 241.005 179.785C241.248 179.542 241.533 179.35 241.86 179.21C242.186 179.07 242.545 179 242.935 179C243.451 179 243.911 179.12 244.315 179.36C244.721 179.597 245.04 179.915 245.27 180.315C245.5 180.712 245.615 181.148 245.615 181.625C245.615 181.975 245.548 182.308 245.415 182.625C245.285 182.942 245.1 183.222 244.86 183.465C244.62 183.708 244.336 183.9 244.01 184.04C243.683 184.18 243.323 184.25 242.93 184.25ZM242.93 183.275C243.236 183.275 243.508 183.208 243.745 183.075C243.985 182.938 244.173 182.747 244.31 182.5C244.446 182.253 244.515 181.962 244.515 181.625C244.515 181.288 244.446 180.997 244.31 180.75C244.173 180.5 243.985 180.308 243.745 180.175C243.508 180.042 243.236 179.975 242.93 179.975C242.623 179.975 242.35 180.042 242.11 180.175C241.873 180.308 241.686 180.5 241.55 180.75C241.416 180.997 241.35 181.288 241.35 181.625C241.35 181.962 241.418 182.253 241.555 182.5C241.691 182.747 241.878 182.938 242.115 183.075C242.355 183.208 242.626 183.275 242.93 183.275ZM246.72 184.1V179.15H247.785V182.49L250.47 179.15H251.43V184.1H250.37V180.72L247.66 184.1H246.72ZM249.075 178.3C248.705 178.3 248.38 178.223 248.1 178.07C247.82 177.917 247.603 177.705 247.45 177.435C247.296 177.165 247.225 176.855 247.235 176.505H248.155C248.141 176.812 248.218 177.06 248.385 177.25C248.555 177.437 248.785 177.53 249.075 177.53C249.365 177.53 249.593 177.437 249.76 177.25C249.926 177.06 250.001 176.812 249.985 176.505H250.91C250.916 176.852 250.841 177.16 250.685 177.43C250.531 177.7 250.315 177.913 250.035 178.07C249.758 178.223 249.438 178.3 249.075 178.3ZM196.914 196.1L195.274 193.47L196.799 191.15H197.974L196.459 193.42L198.229 196.1H196.914ZM193.624 196.1V191.15H194.724V193.06H196.214V193.97H194.724V196.1H193.624ZM201.357 196.25C200.841 196.25 200.379 196.132 199.972 195.895C199.569 195.655 199.252 195.337 199.022 194.94C198.792 194.54 198.677 194.102 198.677 193.625C198.677 193.272 198.742 192.938 198.872 192.625C199.006 192.308 199.192 192.028 199.432 191.785C199.676 191.542 199.961 191.35 200.287 191.21C200.614 191.07 200.972 191 201.362 191C201.879 191 202.339 191.12 202.742 191.36C203.149 191.597 203.467 191.915 203.697 192.315C203.927 192.712 204.042 193.148 204.042 193.625C204.042 193.975 203.976 194.308 203.842 194.625C203.712 194.942 203.527 195.222 203.287 195.465C203.047 195.708 202.764 195.9 202.437 196.04C202.111 196.18 201.751 196.25 201.357 196.25ZM201.357 195.275C201.664 195.275 201.936 195.208 202.172 195.075C202.412 194.938 202.601 194.747 202.737 194.5C202.874 194.253 202.942 193.962 202.942 193.625C202.942 193.288 202.874 192.997 202.737 192.75C202.601 192.5 202.412 192.308 202.172 192.175C201.936 192.042 201.664 191.975 201.357 191.975C201.051 191.975 200.777 192.042 200.537 192.175C200.301 192.308 200.114 192.5 199.977 192.75C199.844 192.997 199.777 193.288 199.777 193.625C199.777 193.962 199.846 194.253 199.982 194.5C200.119 194.747 200.306 194.938 200.542 195.075C200.782 195.208 201.054 195.275 201.357 195.275ZM205.147 196.1V191.15H206.102H206.132L208.352 194.36L207.877 194.37L209.987 191.15H210.962V196.1H209.962L209.977 192.44L210.182 192.53L208.412 195.115H207.702L205.852 192.525L206.057 192.435L206.072 196.1H205.147ZM213.866 196.25C213.523 196.25 213.221 196.187 212.961 196.06C212.701 195.93 212.498 195.748 212.351 195.515C212.208 195.278 212.136 195 212.136 194.68C212.136 194.41 212.204 194.167 212.341 193.95C212.478 193.73 212.689 193.548 212.976 193.405C213.266 193.262 213.638 193.167 214.091 193.12C214.544 193.07 215.089 193.077 215.726 193.14L215.746 193.9C215.293 193.837 214.903 193.81 214.576 193.82C214.249 193.83 213.981 193.872 213.771 193.945C213.564 194.015 213.411 194.11 213.311 194.23C213.214 194.347 213.166 194.482 213.166 194.635C213.166 194.875 213.251 195.06 213.421 195.19C213.594 195.32 213.831 195.385 214.131 195.385C214.388 195.385 214.618 195.338 214.821 195.245C215.024 195.152 215.184 195.02 215.301 194.85C215.421 194.68 215.481 194.48 215.481 194.25V192.935C215.481 192.715 215.434 192.525 215.341 192.365C215.248 192.202 215.106 192.075 214.916 191.985C214.726 191.895 214.489 191.85 214.206 191.85C213.946 191.85 213.689 191.89 213.436 191.97C213.183 192.047 212.941 192.168 212.711 192.335L212.401 191.525C212.711 191.315 213.034 191.167 213.371 191.08C213.708 190.993 214.031 190.95 214.341 190.95C214.801 190.95 215.194 191.023 215.521 191.17C215.851 191.313 216.104 191.532 216.281 191.825C216.458 192.115 216.546 192.482 216.546 192.925V196.1H215.556V195.515C215.389 195.752 215.158 195.933 214.861 196.06C214.564 196.187 214.233 196.25 213.866 196.25ZM218.009 196.1V191.15H219.109V193.06H221.589V191.15H222.689V196.1H221.589V193.97H219.109V196.1H218.009ZM227.815 196.1V192.06H225.815V192.715C225.815 193.165 225.788 193.572 225.735 193.935C225.681 194.298 225.586 194.618 225.45 194.895C225.313 195.168 225.121 195.395 224.875 195.575C224.631 195.755 224.32 195.887 223.94 195.97L223.67 195.225C223.986 195.148 224.225 195.005 224.385 194.795C224.545 194.585 224.651 194.308 224.705 193.965C224.761 193.618 224.79 193.202 224.79 192.715V191.15H228.915V196.1H227.815ZM223.67 197.6V195.225L224.35 195.295L224.52 195.19H229.91V197.6H228.905V196.1H224.675V197.6H223.67ZM233.062 196.25C232.528 196.25 232.06 196.142 231.657 195.925C231.253 195.705 230.938 195.398 230.712 195.005C230.488 194.612 230.377 194.155 230.377 193.635C230.377 193.255 230.442 192.905 230.572 192.585C230.702 192.262 230.885 191.982 231.122 191.745C231.358 191.508 231.635 191.325 231.952 191.195C232.272 191.065 232.62 191 232.997 191C233.407 191 233.772 191.073 234.092 191.22C234.412 191.363 234.677 191.565 234.887 191.825C235.1 192.085 235.25 192.39 235.337 192.74C235.427 193.087 235.442 193.463 235.382 193.87H231.432C231.425 194.167 231.49 194.427 231.627 194.65C231.763 194.87 231.958 195.042 232.212 195.165C232.468 195.288 232.77 195.35 233.117 195.35C233.397 195.35 233.667 195.308 233.927 195.225C234.19 195.138 234.428 195.012 234.642 194.845L235.067 195.635C234.907 195.765 234.713 195.877 234.487 195.97C234.26 196.06 234.023 196.128 233.777 196.175C233.53 196.225 233.292 196.25 233.062 196.25ZM231.497 193.06H234.302C234.292 192.687 234.172 192.393 233.942 192.18C233.715 191.967 233.392 191.86 232.972 191.86C232.565 191.86 232.227 191.967 231.957 192.18C231.69 192.393 231.537 192.687 231.497 193.06Z" fill="white"/>
<path fill-rule="evenodd" clip-rule="evenodd" d="M131.587 65.1676L143 57.0005L133.509 68.2826C133.525 68.431 133.533 68.5817 133.533 68.7342V76.7595C133.533 79.1012 131.635 80.9995 129.293 80.9995H41.24C38.8983 80.9995 37 79.1012 37 76.7595V68.7342C37 66.3926 38.8983 64.4943 41.24 64.4943H129.293C130.138 64.4943 130.926 64.7415 131.587 65.1676Z" fill="#79F585"/>
<path d="M44.7452 75.5087L44.3052 74.4787C44.6918 74.3853 45.0402 74.247 45.3502 74.0637C45.6635 73.8803 45.9485 73.637 46.2052 73.3337C46.4618 73.0303 46.6985 72.6553 46.9152 72.2087L48.7802 68.3887H50.0752L47.9602 72.5587C47.7268 73.0187 47.4918 73.4187 47.2552 73.7587C47.0185 74.0953 46.7718 74.3803 46.5152 74.6137C46.2585 74.847 45.9835 75.0353 45.6902 75.1787C45.4002 75.322 45.0852 75.432 44.7452 75.5087ZM46.7602 73.1887L44.0952 68.3887H45.4602L47.5102 72.1987L46.7602 73.1887ZM53.4732 75.3887V73.4537C53.2399 73.5137 53.0182 73.5587 52.8082 73.5887C52.6016 73.6187 52.3832 73.6337 52.1532 73.6337C51.7099 73.6337 51.3366 73.5653 51.0332 73.4287C50.7299 73.292 50.5016 73.0853 50.3482 72.8087C50.1949 72.532 50.1182 72.1837 50.1182 71.7637V70.4387H51.2182V71.6087C51.2182 71.962 51.3032 72.2303 51.4732 72.4137C51.6432 72.597 51.9332 72.6887 52.3432 72.6887C52.5799 72.6887 52.7866 72.6787 52.9632 72.6587C53.1432 72.6353 53.3132 72.607 53.4732 72.5737V70.4387H54.5732V75.3887H53.4732ZM57.4803 75.5387C57.137 75.5387 56.8353 75.4753 56.5753 75.3487C56.3153 75.2187 56.112 75.037 55.9653 74.8037C55.822 74.567 55.7503 74.2887 55.7503 73.9687C55.7503 73.6987 55.8187 73.4553 55.9553 73.2387C56.092 73.0187 56.3037 72.837 56.5903 72.6937C56.8803 72.5503 57.252 72.4553 57.7053 72.4087C58.1587 72.3587 58.7037 72.3653 59.3403 72.4287L59.3603 73.1887C58.907 73.1253 58.517 73.0987 58.1903 73.1087C57.8637 73.1187 57.5953 73.1603 57.3853 73.2337C57.1787 73.3037 57.0253 73.3987 56.9253 73.5187C56.8287 73.6353 56.7803 73.7703 56.7803 73.9237C56.7803 74.1637 56.8653 74.3487 57.0353 74.4787C57.2087 74.6087 57.4453 74.6737 57.7453 74.6737C58.002 74.6737 58.232 74.627 58.4353 74.5337C58.6387 74.4403 58.7987 74.3087 58.9153 74.1387C59.0353 73.9687 59.0953 73.7687 59.0953 73.5387V72.2237C59.0953 72.0037 59.0487 71.8137 58.9553 71.6537C58.862 71.4903 58.7203 71.3637 58.5303 71.2737C58.3403 71.1837 58.1037 71.1387 57.8203 71.1387C57.5603 71.1387 57.3037 71.1787 57.0503 71.2587C56.797 71.3353 56.5553 71.457 56.3253 71.6237L56.0153 70.8137C56.3253 70.6037 56.6487 70.4553 56.9853 70.3687C57.322 70.282 57.6453 70.2387 57.9553 70.2387C58.4153 70.2387 58.8087 70.312 59.1353 70.4587C59.4653 70.602 59.7187 70.8203 59.8953 71.1137C60.072 71.4037 60.1603 71.7703 60.1603 72.2137V75.3887H59.1703V74.8037C59.0037 75.0403 58.772 75.222 58.4753 75.3487C58.1787 75.4753 57.847 75.5387 57.4803 75.5387ZM63.8929 75.5387C63.3729 75.5387 62.9096 75.4253 62.5029 75.1987C62.0962 74.9687 61.7762 74.657 61.5429 74.2637C61.3129 73.867 61.1979 73.417 61.1979 72.9137C61.1979 72.5337 61.2662 72.1853 61.4029 71.8687C61.5396 71.5487 61.7329 71.2703 61.9829 71.0337C62.2329 70.797 62.5262 70.6137 62.8629 70.4837C63.2029 70.3537 63.5712 70.2887 63.9679 70.2887C64.3012 70.2887 64.6096 70.3337 64.8929 70.4237C65.1796 70.5103 65.4429 70.6453 65.6829 70.8287L65.1529 71.6687C64.9996 71.532 64.8229 71.4303 64.6229 71.3637C64.4262 71.297 64.2162 71.2637 63.9929 71.2637C63.6462 71.2637 63.3479 71.3287 63.0979 71.4587C62.8479 71.5887 62.6529 71.777 62.5129 72.0237C62.3762 72.267 62.3079 72.562 62.3079 72.9087C62.3079 73.4253 62.4579 73.8303 62.7579 74.1237C63.0612 74.417 63.4729 74.5637 63.9929 74.5637C64.2396 74.5637 64.4729 74.5187 64.6929 74.4287C64.9129 74.3353 65.0962 74.2137 65.2429 74.0637L65.7679 74.8987C65.5046 75.0987 65.2112 75.2553 64.8879 75.3687C64.5646 75.482 64.2329 75.5387 63.8929 75.5387ZM67.8842 75.3887V71.3487H66.2592V70.4387H70.6142V71.3487H68.9842V75.3887H67.8842ZM71.6229 75.3887V70.4387H72.7229V72.3487H75.2029V70.4387H76.3029V75.3887H75.2029V73.2587H72.7229V75.3887H71.6229ZM77.8338 75.3887V70.4387H78.8988V73.7787L81.5838 70.4387H82.5438V75.3887H81.4838V72.0087L78.7738 75.3887H77.8338ZM87.3641 75.3887L85.7241 72.7587L87.2491 70.4387H88.4241L86.9091 72.7087L88.6791 75.3887H87.3641ZM84.0741 75.3887V70.4387H85.1741V72.3487H86.6641V73.2587H85.1741V75.3887H84.0741ZM91.0253 75.5387C90.6819 75.5387 90.3803 75.4753 90.1203 75.3487C89.8603 75.2187 89.6569 75.037 89.5103 74.8037C89.3669 74.567 89.2953 74.2887 89.2953 73.9687C89.2953 73.6987 89.3636 73.4553 89.5003 73.2387C89.6369 73.0187 89.8486 72.837 90.1353 72.6937C90.4253 72.5503 90.7969 72.4553 91.2503 72.4087C91.7036 72.3587 92.2486 72.3653 92.8853 72.4287L92.9053 73.1887C92.4519 73.1253 92.0619 73.0987 91.7353 73.1087C91.4086 73.1187 91.1403 73.1603 90.9303 73.2337C90.7236 73.3037 90.5703 73.3987 90.4703 73.5187C90.3736 73.6353 90.3253 73.7703 90.3253 73.9237C90.3253 74.1637 90.4103 74.3487 90.5803 74.4787C90.7536 74.6087 90.9903 74.6737 91.2903 74.6737C91.5469 74.6737 91.7769 74.627 91.9803 74.5337C92.1836 74.4403 92.3436 74.3087 92.4603 74.1387C92.5803 73.9687 92.6403 73.7687 92.6403 73.5387V72.2237C92.6403 72.0037 92.5936 71.8137 92.5003 71.6537C92.4069 71.4903 92.2653 71.3637 92.0753 71.2737C91.8853 71.1837 91.6486 71.1387 91.3653 71.1387C91.1053 71.1387 90.8486 71.1787 90.5953 71.2587C90.3419 71.3353 90.1003 71.457 89.8703 71.6237L89.5603 70.8137C89.8703 70.6037 90.1936 70.4553 90.5303 70.3687C90.8669 70.282 91.1903 70.2387 91.5003 70.2387C91.9603 70.2387 92.3536 70.312 92.6803 70.4587C93.0103 70.602 93.2636 70.8203 93.4403 71.1137C93.6169 71.4037 93.7053 71.7703 93.7053 72.2137V75.3887H92.7153V74.8037C92.5486 75.0403 92.3169 75.222 92.0203 75.3487C91.7236 75.4753 91.3919 75.5387 91.0253 75.5387ZM95.1678 75.3887V70.4387H96.1228H96.1528L98.3728 73.6487L97.8978 73.6587L100.008 70.4387H100.983V75.3887H99.9828L99.9978 71.7287L100.203 71.8187L98.4328 74.4037H97.7228L95.8728 71.8137L96.0778 71.7237L96.0928 75.3887H95.1678ZM106.233 76.5387C105.819 75.842 105.509 75.1003 105.303 74.3137C105.096 73.527 104.993 72.732 104.993 71.9287C104.993 71.392 105.038 70.8603 105.128 70.3337C105.221 69.8037 105.359 69.287 105.543 68.7837C105.726 68.2803 105.956 67.7987 106.233 67.3387L107.073 67.6787C106.889 67.9687 106.728 68.282 106.588 68.6187C106.451 68.952 106.336 69.2987 106.243 69.6587C106.149 70.0187 106.079 70.3887 106.033 70.7687C105.989 71.1453 105.968 71.5253 105.968 71.9087C105.968 72.6753 106.059 73.432 106.243 74.1787C106.429 74.922 106.706 75.5953 107.073 76.1987L106.233 76.5387ZM108.42 75.3887V70.4387H110.78C111.34 70.4387 111.788 70.5453 112.125 70.7587C112.461 70.972 112.63 71.292 112.63 71.7187C112.63 71.9187 112.581 72.097 112.485 72.2537C112.388 72.407 112.255 72.5353 112.085 72.6387C111.915 72.742 111.716 72.817 111.49 72.8637L111.47 72.6187C111.906 72.6787 112.245 72.8237 112.485 73.0537C112.725 73.2837 112.845 73.5753 112.845 73.9287C112.845 74.2287 112.766 74.4887 112.61 74.7087C112.453 74.9253 112.228 75.0937 111.935 75.2137C111.641 75.3303 111.29 75.3887 110.88 75.3887H108.42ZM109.485 74.5737H110.73C111.06 74.5737 111.313 74.5187 111.49 74.4087C111.67 74.2987 111.76 74.1337 111.76 73.9137C111.76 73.697 111.671 73.5353 111.495 73.4287C111.318 73.3187 111.063 73.2637 110.73 73.2637H109.34V72.4787H110.615C110.925 72.4787 111.165 72.432 111.335 72.3387C111.505 72.242 111.59 72.0853 111.59 71.8687C111.59 71.652 111.505 71.4953 111.335 71.3987C111.165 71.2987 110.925 71.2487 110.615 71.2487H109.485V74.5737ZM115.459 75.5387C115.116 75.5387 114.814 75.4753 114.554 75.3487C114.294 75.2187 114.091 75.037 113.944 74.8037C113.801 74.567 113.729 74.2887 113.729 73.9687C113.729 73.6987 113.797 73.4553 113.934 73.2387C114.071 73.0187 114.282 72.837 114.569 72.6937C114.859 72.5503 115.231 72.4553 115.684 72.4087C116.137 72.3587 116.682 72.3653 117.319 72.4287L117.339 73.1887C116.886 73.1253 116.496 73.0987 116.169 73.1087C115.842 73.1187 115.574 73.1603 115.364 73.2337C115.157 73.3037 115.004 73.3987 114.904 73.5187C114.807 73.6353 114.759 73.7703 114.759 73.9237C114.759 74.1637 114.844 74.3487 115.014 74.4787C115.187 74.6087 115.424 74.6737 115.724 74.6737C115.981 74.6737 116.211 74.627 116.414 74.5337C116.617 74.4403 116.777 74.3087 116.894 74.1387C117.014 73.9687 117.074 73.7687 117.074 73.5387V72.2237C117.074 72.0037 117.027 71.8137 116.934 71.6537C116.841 71.4903 116.699 71.3637 116.509 71.2737C116.319 71.1837 116.082 71.1387 115.799 71.1387C115.539 71.1387 115.282 71.1787 115.029 71.2587C114.776 71.3353 114.534 71.457 114.304 71.6237L113.994 70.8137C114.304 70.6037 114.627 70.4553 114.964 70.3687C115.301 70.282 115.624 70.2387 115.934 70.2387C116.394 70.2387 116.787 70.312 117.114 70.4587C117.444 70.602 117.697 70.8203 117.874 71.1137C118.051 71.4037 118.139 71.7703 118.139 72.2137V75.3887H117.149V74.8037C116.982 75.0403 116.751 75.222 116.454 75.3487C116.157 75.4753 115.826 75.5387 115.459 75.5387ZM119.601 75.3887V70.4387H120.556H120.586L122.806 73.6487L122.331 73.6587L124.441 70.4387H125.416V75.3887H124.416L124.431 71.7287L124.636 71.8187L122.866 74.4037H122.156L120.306 71.8137L120.511 71.7237L120.526 75.3887H119.601ZM127.6 76.5387L126.76 76.1987C126.944 75.9053 127.104 75.592 127.24 75.2587C127.38 74.9253 127.497 74.5787 127.59 74.2187C127.684 73.8587 127.752 73.4887 127.795 73.1087C127.842 72.7287 127.865 72.3487 127.865 71.9687C127.865 71.1987 127.772 70.442 127.585 69.6987C127.402 68.9553 127.127 68.282 126.76 67.6787L127.6 67.3387C128.017 68.032 128.327 68.772 128.53 69.5587C128.737 70.3453 128.84 71.142 128.84 71.9487C128.84 72.4853 128.794 73.0187 128.7 73.5487C128.61 74.0753 128.474 74.5903 128.29 75.0937C128.107 75.597 127.877 76.0787 127.6 76.5387Z" fill="#1C195B"/>
<path fill-rule="evenodd" clip-rule="evenodd" d="M104.608 116.035L116.951 106L106.507 120.106V144.76C106.507 147.102 104.608 149 102.267 149H4.23997C1.8983 149 0 147.102 0 144.76V119.57C0 117.229 1.8983 115.33 4.23997 115.33H102.267C103.132 115.33 103.937 115.59 104.608 116.035Z" fill="#140D83"/>
<path d="M7.91 128V121H12.31V121.99H9.03V123.89H10.305C11.0617 123.89 11.6683 124.065 12.125 124.415C12.5817 124.762 12.81 125.272 12.81 125.945C12.81 126.385 12.71 126.758 12.51 127.065C12.3133 127.368 12.0267 127.6 11.65 127.76C11.2767 127.92 10.8267 128 10.3 128H7.91ZM9.03 127.12H10.24C10.6933 127.12 11.0417 127.02 11.285 126.82C11.5317 126.62 11.655 126.333 11.655 125.96C11.655 125.597 11.5333 125.308 11.29 125.095C11.0467 124.882 10.7117 124.775 10.285 124.775H9.03V127.12ZM16.3629 128.15C15.8296 128.15 15.3612 128.042 14.9579 127.825C14.5546 127.605 14.2396 127.298 14.0129 126.905C13.7896 126.512 13.6779 126.055 13.6779 125.535C13.6779 125.155 13.7429 124.805 13.8729 124.485C14.0029 124.162 14.1862 123.882 14.4229 123.645C14.6596 123.408 14.9362 123.225 15.2529 123.095C15.5729 122.965 15.9212 122.9 16.2979 122.9C16.7079 122.9 17.0729 122.973 17.3929 123.12C17.7129 123.263 17.9779 123.465 18.1879 123.725C18.4012 123.985 18.5512 124.29 18.6379 124.64C18.7279 124.987 18.7429 125.363 18.6829 125.77H14.7329C14.7262 126.067 14.7912 126.327 14.9279 126.55C15.0646 126.77 15.2596 126.942 15.5129 127.065C15.7696 127.188 16.0712 127.25 16.4179 127.25C16.6979 127.25 16.9679 127.208 17.2279 127.125C17.4912 127.038 17.7296 126.912 17.9429 126.745L18.3679 127.535C18.2079 127.665 18.0146 127.777 17.7879 127.87C17.5612 127.96 17.3246 128.028 17.0779 128.075C16.8312 128.125 16.5929 128.15 16.3629 128.15ZM14.7979 124.96H17.6029C17.5929 124.587 17.4729 124.293 17.2429 124.08C17.0162 123.867 16.6929 123.76 16.2729 123.76C15.8662 123.76 15.5279 123.867 15.2579 124.08C14.9912 124.293 14.8379 124.587 14.7979 124.96ZM21.4955 128.12C21.2189 128.12 20.9522 128.098 20.6955 128.055C20.4389 128.015 20.1972 127.952 19.9705 127.865C19.7439 127.775 19.5389 127.657 19.3555 127.51L19.8355 126.765C20.0455 126.942 20.2939 127.07 20.5805 127.15C20.8672 127.227 21.1589 127.265 21.4555 127.265C21.8589 127.265 22.1772 127.207 22.4105 127.09C22.6439 126.97 22.7605 126.773 22.7605 126.5C22.7605 126.26 22.6372 126.088 22.3905 125.985C22.1472 125.882 21.7922 125.83 21.3255 125.83H20.4155V125H21.2955C21.7089 125 22.0272 124.953 22.2505 124.86C22.4739 124.763 22.5855 124.6 22.5855 124.37C22.5855 124.233 22.5372 124.12 22.4405 124.03C22.3472 123.94 22.2139 123.872 22.0405 123.825C21.8705 123.778 21.6705 123.755 21.4405 123.755C21.1572 123.755 20.8839 123.797 20.6205 123.88C20.3572 123.963 20.1272 124.092 19.9305 124.265L19.5205 123.53C19.7739 123.32 20.0805 123.16 20.4405 123.05C20.8005 122.937 21.1639 122.88 21.5305 122.88C21.9572 122.88 22.3239 122.933 22.6305 123.04C22.9372 123.147 23.1739 123.3 23.3405 123.5C23.5072 123.7 23.5905 123.942 23.5905 124.225C23.5905 124.478 23.5089 124.698 23.3455 124.885C23.1855 125.072 22.9522 125.207 22.6455 125.29C23.0189 125.373 23.3022 125.52 23.4955 125.73C23.6922 125.94 23.7905 126.203 23.7905 126.52C23.7905 126.853 23.6955 127.14 23.5055 127.38C23.3189 127.617 23.0522 127.8 22.7055 127.93C22.3622 128.057 21.9589 128.12 21.4955 128.12ZM27.2466 128.15C26.7299 128.15 26.2682 128.032 25.8616 127.795C25.4582 127.555 25.1416 127.237 24.9116 126.84C24.6816 126.44 24.5666 126.002 24.5666 125.525C24.5666 125.172 24.6316 124.838 24.7616 124.525C24.8949 124.208 25.0816 123.928 25.3216 123.685C25.5649 123.442 25.8499 123.25 26.1766 123.11C26.5032 122.97 26.8616 122.9 27.2516 122.9C27.7682 122.9 28.2282 123.02 28.6316 123.26C29.0382 123.497 29.3566 123.815 29.5866 124.215C29.8166 124.612 29.9316 125.048 29.9316 125.525C29.9316 125.875 29.8649 126.208 29.7316 126.525C29.6016 126.842 29.4166 127.122 29.1766 127.365C28.9366 127.608 28.6532 127.8 28.3266 127.94C27.9999 128.08 27.6399 128.15 27.2466 128.15ZM27.2466 127.175C27.5532 127.175 27.8249 127.108 28.0616 126.975C28.3016 126.838 28.4899 126.647 28.6266 126.4C28.7632 126.153 28.8316 125.862 28.8316 125.525C28.8316 125.188 28.7632 124.897 28.6266 124.65C28.4899 124.4 28.3016 124.208 28.0616 124.075C27.8249 123.942 27.5532 123.875 27.2466 123.875C26.9399 123.875 26.6666 123.942 26.4266 124.075C26.1899 124.208 26.0032 124.4 25.8666 124.65C25.7332 124.897 25.6666 125.188 25.6666 125.525C25.6666 125.862 25.7349 126.153 25.8716 126.4C26.0082 126.647 26.1949 126.838 26.4316 126.975C26.6716 127.108 26.9432 127.175 27.2466 127.175ZM31.0365 128V123.05H35.7115V128H34.6115V123.96H32.1365V128H31.0365ZM38.6127 128.15C38.2693 128.15 37.9677 128.087 37.7077 127.96C37.4477 127.83 37.2443 127.648 37.0977 127.415C36.9543 127.178 36.8827 126.9 36.8827 126.58C36.8827 126.31 36.951 126.067 37.0877 125.85C37.2243 125.63 37.436 125.448 37.7227 125.305C38.0127 125.162 38.3843 125.067 38.8377 125.02C39.291 124.97 39.836 124.977 40.4727 125.04L40.4927 125.8C40.0393 125.737 39.6493 125.71 39.3227 125.72C38.996 125.73 38.7277 125.772 38.5177 125.845C38.311 125.915 38.1577 126.01 38.0577 126.13C37.961 126.247 37.9127 126.382 37.9127 126.535C37.9127 126.775 37.9977 126.96 38.1677 127.09C38.341 127.22 38.5777 127.285 38.8777 127.285C39.1343 127.285 39.3643 127.238 39.5677 127.145C39.771 127.052 39.931 126.92 40.0477 126.75C40.1677 126.58 40.2277 126.38 40.2277 126.15V124.835C40.2277 124.615 40.181 124.425 40.0877 124.265C39.9943 124.102 39.8527 123.975 39.6627 123.885C39.4727 123.795 39.236 123.75 38.9527 123.75C38.6927 123.75 38.436 123.79 38.1827 123.87C37.9293 123.947 37.6877 124.068 37.4577 124.235L37.1477 123.425C37.4577 123.215 37.781 123.067 38.1177 122.98C38.4543 122.893 38.7777 122.85 39.0877 122.85C39.5477 122.85 39.941 122.923 40.2677 123.07C40.5977 123.213 40.851 123.432 41.0277 123.725C41.2043 124.015 41.2927 124.382 41.2927 124.825V128H40.3027V127.415C40.136 127.652 39.9043 127.833 39.6077 127.96C39.311 128.087 38.9793 128.15 38.6127 128.15ZM45.0252 128.15C44.5052 128.15 44.0419 128.037 43.6352 127.81C43.2286 127.58 42.9086 127.268 42.6752 126.875C42.4452 126.478 42.3302 126.028 42.3302 125.525C42.3302 125.145 42.3986 124.797 42.5352 124.48C42.6719 124.16 42.8652 123.882 43.1152 123.645C43.3652 123.408 43.6586 123.225 43.9952 123.095C44.3352 122.965 44.7036 122.9 45.1002 122.9C45.4336 122.9 45.7419 122.945 46.0252 123.035C46.3119 123.122 46.5752 123.257 46.8152 123.44L46.2852 124.28C46.1319 124.143 45.9552 124.042 45.7552 123.975C45.5586 123.908 45.3486 123.875 45.1252 123.875C44.7786 123.875 44.4802 123.94 44.2302 124.07C43.9802 124.2 43.7852 124.388 43.6452 124.635C43.5086 124.878 43.4402 125.173 43.4402 125.52C43.4402 126.037 43.5902 126.442 43.8902 126.735C44.1936 127.028 44.6052 127.175 45.1252 127.175C45.3719 127.175 45.6052 127.13 45.8252 127.04C46.0452 126.947 46.2286 126.825 46.3752 126.675L46.9002 127.51C46.6369 127.71 46.3436 127.867 46.0202 127.98C45.6969 128.093 45.3652 128.15 45.0252 128.15ZM47.9115 128V123.05H49.0115V124.96H51.4915V123.05H52.5915V128H51.4915V125.87H49.0115V128H47.9115ZM56.3774 128.15C55.8608 128.15 55.3991 128.032 54.9924 127.795C54.5891 127.555 54.2724 127.237 54.0424 126.84C53.8124 126.44 53.6974 126.002 53.6974 125.525C53.6974 125.172 53.7624 124.838 53.8924 124.525C54.0258 124.208 54.2124 123.928 54.4524 123.685C54.6958 123.442 54.9808 123.25 55.3074 123.11C55.6341 122.97 55.9924 122.9 56.3824 122.9C56.8991 122.9 57.3591 123.02 57.7624 123.26C58.1691 123.497 58.4874 123.815 58.7174 124.215C58.9474 124.612 59.0624 125.048 59.0624 125.525C59.0624 125.875 58.9958 126.208 58.8624 126.525C58.7324 126.842 58.5474 127.122 58.3074 127.365C58.0674 127.608 57.7841 127.8 57.4574 127.94C57.1308 128.08 56.7708 128.15 56.3774 128.15ZM56.3774 127.175C56.6841 127.175 56.9558 127.108 57.1924 126.975C57.4324 126.838 57.6208 126.647 57.7574 126.4C57.8941 126.153 57.9624 125.862 57.9624 125.525C57.9624 125.188 57.8941 124.897 57.7574 124.65C57.6208 124.4 57.4324 124.208 57.1924 124.075C56.9558 123.942 56.6841 123.875 56.3774 123.875C56.0708 123.875 55.7974 123.942 55.5574 124.075C55.3208 124.208 55.1341 124.4 54.9974 124.65C54.8641 124.897 54.7974 125.188 54.7974 125.525C54.7974 125.862 54.8658 126.153 55.0024 126.4C55.1391 126.647 55.3258 126.838 55.5624 126.975C55.8024 127.108 56.0741 127.175 56.3774 127.175ZM62.4862 128.15C61.9662 128.15 61.5028 128.037 61.0962 127.81C60.6895 127.58 60.3695 127.268 60.1362 126.875C59.9062 126.478 59.7912 126.028 59.7912 125.525C59.7912 125.145 59.8595 124.797 59.9962 124.48C60.1328 124.16 60.3262 123.882 60.5762 123.645C60.8262 123.408 61.1195 123.225 61.4562 123.095C61.7962 122.965 62.1645 122.9 62.5612 122.9C62.8945 122.9 63.2028 122.945 63.4862 123.035C63.7728 123.122 64.0362 123.257 64.2762 123.44L63.7462 124.28C63.5928 124.143 63.4162 124.042 63.2162 123.975C63.0195 123.908 62.8095 123.875 62.5862 123.875C62.2395 123.875 61.9412 123.94 61.6912 124.07C61.4412 124.2 61.2462 124.388 61.1062 124.635C60.9695 124.878 60.9012 125.173 60.9012 125.52C60.9012 126.037 61.0512 126.442 61.3512 126.735C61.6545 127.028 62.0662 127.175 62.5862 127.175C62.8328 127.175 63.0662 127.13 63.2862 127.04C63.5062 126.947 63.6895 126.825 63.8362 126.675L64.3612 127.51C64.0978 127.71 63.8045 127.867 63.4812 127.98C63.1578 128.093 62.8262 128.15 62.4862 128.15ZM66.4774 128V123.96H64.8524V123.05H69.2074V123.96H67.5774V128H66.4774ZM70.2162 128V123.05H71.3162V127.165H72.2612C72.6212 127.165 72.8928 127.095 73.0762 126.955C73.2595 126.815 73.3512 126.607 73.3512 126.33C73.3512 126.057 73.2662 125.847 73.0962 125.7C72.9262 125.553 72.6762 125.48 72.3462 125.48H71.1662V124.655H72.4312C73.0712 124.655 73.5745 124.798 73.9412 125.085C74.3078 125.372 74.4912 125.787 74.4912 126.33C74.4912 126.68 74.4028 126.98 74.2262 127.23C74.0495 127.477 73.8012 127.667 73.4812 127.8C73.1645 127.933 72.7928 128 72.3662 128H70.2162ZM75.8059 129.15L74.8859 128.79L78.5259 119.95L79.4409 120.31L75.8059 129.15ZM7.765 141V136.05H8.83V139.39L11.515 136.05H12.475V141H11.415V137.62L8.705 141H7.765ZM14.0052 141V136.05H15.1052V137.96H17.5852V136.05H18.6852V141H17.5852V138.87H15.1052V141H14.0052ZM22.7062 143.1V133.8H23.8062V143.1H22.7062ZM23.2462 141.13C22.5528 141.13 21.9462 141.032 21.4262 140.835C20.9095 140.635 20.5078 140.342 20.2212 139.955C19.9345 139.565 19.7912 139.088 19.7912 138.525C19.7912 137.958 19.9345 137.482 20.2212 137.095C20.5112 136.708 20.9178 136.417 21.4412 136.22C21.9645 136.02 22.5745 135.92 23.2712 135.92C23.9745 135.92 24.5845 136.018 25.1012 136.215C25.6212 136.412 26.0245 136.703 26.3112 137.09C26.5978 137.477 26.7412 137.955 26.7412 138.525C26.7412 138.948 26.6578 139.323 26.4912 139.65C26.3245 139.973 26.0862 140.245 25.7762 140.465C25.4662 140.685 25.0978 140.852 24.6712 140.965C24.2445 141.075 23.7695 141.13 23.2462 141.13ZM23.2662 140.22C23.7762 140.22 24.2062 140.157 24.5562 140.03C24.9095 139.903 25.1778 139.715 25.3612 139.465C25.5445 139.215 25.6362 138.902 25.6362 138.525C25.6362 138.148 25.5412 137.835 25.3512 137.585C25.1645 137.332 24.8928 137.143 24.5362 137.02C24.1828 136.893 23.7545 136.83 23.2512 136.83C22.7512 136.83 22.3245 136.893 21.9712 137.02C21.6178 137.143 21.3478 137.332 21.1612 137.585C20.9745 137.835 20.8812 138.148 20.8812 138.525C20.8812 138.902 20.9745 139.215 21.1612 139.465C21.3512 139.715 21.6228 139.903 21.9762 140.03C22.3328 140.157 22.7628 140.22 23.2662 140.22ZM27.8431 143.1V136.05H28.8331V136.745C29.0298 136.495 29.2815 136.292 29.5881 136.135C29.8948 135.978 30.2731 135.9 30.7231 135.9C31.2065 135.9 31.6348 136.015 32.0081 136.245C32.3848 136.472 32.6781 136.783 32.8881 137.18C33.0981 137.573 33.2031 138.022 33.2031 138.525C33.2031 138.888 33.1431 139.23 33.0231 139.55C32.9031 139.867 32.7315 140.145 32.5081 140.385C32.2881 140.625 32.0248 140.813 31.7181 140.95C31.4148 141.083 31.0781 141.15 30.7081 141.15C30.3215 141.15 29.9815 141.08 29.6881 140.94C29.3948 140.8 29.1448 140.612 28.9381 140.375V143.1H27.8431ZM30.5231 140.175C30.8298 140.175 31.1015 140.108 31.3381 139.975C31.5781 139.838 31.7648 139.647 31.8981 139.4C32.0348 139.153 32.1031 138.862 32.1031 138.525C32.1031 138.188 32.0348 137.897 31.8981 137.65C31.7615 137.4 31.5731 137.208 31.3331 137.075C31.0965 136.942 30.8265 136.875 30.5231 136.875C30.2165 136.875 29.9431 136.942 29.7031 137.075C29.4665 137.208 29.2798 137.4 29.1431 137.65C29.0065 137.897 28.9381 138.188 28.9381 138.525C28.9381 138.862 29.0065 139.153 29.1431 139.4C29.2798 139.647 29.4665 139.838 29.7031 139.975C29.9431 140.108 30.2165 140.175 30.5231 140.175ZM35.683 141.15C35.3396 141.15 35.038 141.087 34.778 140.96C34.518 140.83 34.3146 140.648 34.168 140.415C34.0246 140.178 33.953 139.9 33.953 139.58C33.953 139.31 34.0213 139.067 34.158 138.85C34.2946 138.63 34.5063 138.448 34.793 138.305C35.083 138.162 35.4546 138.067 35.908 138.02C36.3613 137.97 36.9063 137.977 37.543 138.04L37.563 138.8C37.1096 138.737 36.7196 138.71 36.393 138.72C36.0663 138.73 35.798 138.772 35.588 138.845C35.3813 138.915 35.228 139.01 35.128 139.13C35.0313 139.247 34.983 139.382 34.983 139.535C34.983 139.775 35.068 139.96 35.238 140.09C35.4113 140.22 35.648 140.285 35.948 140.285C36.2046 140.285 36.4346 140.238 36.638 140.145C36.8413 140.052 37.0013 139.92 37.118 139.75C37.238 139.58 37.298 139.38 37.298 139.15V137.835C37.298 137.615 37.2513 137.425 37.158 137.265C37.0646 137.102 36.923 136.975 36.733 136.885C36.543 136.795 36.3063 136.75 36.023 136.75C35.763 136.75 35.5063 136.79 35.253 136.87C34.9996 136.947 34.758 137.068 34.528 137.235L34.218 136.425C34.528 136.215 34.8513 136.067 35.188 135.98C35.5246 135.893 35.848 135.85 36.158 135.85C36.618 135.85 37.0113 135.923 37.338 136.07C37.668 136.213 37.9213 136.432 38.098 136.725C38.2746 137.015 38.363 137.382 38.363 137.825V141H37.373V140.415C37.2063 140.652 36.9746 140.833 36.678 140.96C36.3813 141.087 36.0496 141.15 35.683 141.15ZM42.0955 141.15C41.5755 141.15 41.1122 141.037 40.7055 140.81C40.2989 140.58 39.9789 140.268 39.7455 139.875C39.5155 139.478 39.4005 139.028 39.4005 138.525C39.4005 138.145 39.4689 137.797 39.6055 137.48C39.7422 137.16 39.9355 136.882 40.1855 136.645C40.4355 136.408 40.7289 136.225 41.0655 136.095C41.4055 135.965 41.7739 135.9 42.1705 135.9C42.5039 135.9 42.8122 135.945 43.0955 136.035C43.3822 136.122 43.6455 136.257 43.8855 136.44L43.3555 137.28C43.2022 137.143 43.0255 137.042 42.8255 136.975C42.6289 136.908 42.4189 136.875 42.1955 136.875C41.8489 136.875 41.5505 136.94 41.3005 137.07C41.0505 137.2 40.8555 137.388 40.7155 137.635C40.5789 137.878 40.5105 138.173 40.5105 138.52C40.5105 139.037 40.6605 139.442 40.9605 139.735C41.2639 140.028 41.6755 140.175 42.1955 140.175C42.4422 140.175 42.6755 140.13 42.8955 140.04C43.1155 139.947 43.2989 139.825 43.4455 139.675L43.9705 140.51C43.7072 140.71 43.4139 140.867 43.0905 140.98C42.7672 141.093 42.4355 141.15 42.0955 141.15ZM46.0868 141V136.96H44.4618V136.05H48.8168V136.96H47.1868V141H46.0868ZM49.8255 143.1V136.05H50.8155V136.745C51.0122 136.495 51.2639 136.292 51.5705 136.135C51.8772 135.978 52.2555 135.9 52.7055 135.9C53.1889 135.9 53.6172 136.015 53.9905 136.245C54.3672 136.472 54.6605 136.783 54.8705 137.18C55.0805 137.573 55.1855 138.022 55.1855 138.525C55.1855 138.888 55.1255 139.23 55.0055 139.55C54.8855 139.867 54.7139 140.145 54.4905 140.385C54.2705 140.625 54.0072 140.813 53.7005 140.95C53.3972 141.083 53.0605 141.15 52.6905 141.15C52.3039 141.15 51.9639 141.08 51.6705 140.94C51.3772 140.8 51.1272 140.612 50.9205 140.375V143.1H49.8255ZM52.5055 140.175C52.8122 140.175 53.0839 140.108 53.3205 139.975C53.5605 139.838 53.7472 139.647 53.8805 139.4C54.0172 139.153 54.0855 138.862 54.0855 138.525C54.0855 138.188 54.0172 137.897 53.8805 137.65C53.7439 137.4 53.5555 137.208 53.3155 137.075C53.0789 136.942 52.8089 136.875 52.5055 136.875C52.1989 136.875 51.9255 136.942 51.6855 137.075C51.4489 137.208 51.2622 137.4 51.1255 137.65C50.9889 137.897 50.9205 138.188 50.9205 138.525C50.9205 138.862 50.9889 139.153 51.1255 139.4C51.2622 139.647 51.4489 139.838 51.6855 139.975C51.9255 140.108 52.1989 140.175 52.5055 140.175ZM56.6666 143.24C56.4866 143.24 56.3099 143.22 56.1366 143.18C55.9632 143.14 55.7932 143.072 55.6266 142.975L55.8766 142.035C55.9799 142.102 56.0932 142.152 56.2166 142.185C56.3399 142.218 56.4499 142.235 56.5466 142.235C56.7799 142.235 56.9632 142.18 57.0966 142.07C57.2299 141.96 57.3349 141.79 57.4116 141.56L57.5766 141.08L55.6266 136.05H56.8316L58.2016 139.89L59.5366 136.05H60.7016L58.5616 141.715C58.4082 142.112 58.2366 142.42 58.0466 142.64C57.8566 142.863 57.6466 143.018 57.4166 143.105C57.1866 143.195 56.9366 143.24 56.6666 143.24ZM64.8538 141L63.2138 138.37L64.7388 136.05H65.9138L64.3988 138.32L66.1688 141H64.8538ZM61.5638 141V136.05H62.6638V137.96H64.1538V138.87H62.6638V141H61.5638ZM68.245 141V136.96H66.62V136.05H70.975V136.96H69.345V141H68.245ZM72.5552 143.24C72.3752 143.24 72.1986 143.22 72.0252 143.18C71.8519 143.14 71.6819 143.072 71.5152 142.975L71.7652 142.035C71.8686 142.102 71.9819 142.152 72.1052 142.185C72.2286 142.218 72.3386 142.235 72.4352 142.235C72.6686 142.235 72.8519 142.18 72.9852 142.07C73.1186 141.96 73.2236 141.79 73.3002 141.56L73.4652 141.08L71.5152 136.05H72.7202L74.0902 139.89L75.4252 136.05H76.5902L74.4502 141.715C74.2969 142.112 74.1252 142.42 73.9352 142.64C73.7452 142.863 73.5352 143.018 73.3052 143.105C73.0752 143.195 72.8252 143.24 72.5552 143.24ZM77.4525 143.1V136.05H78.4425V136.745C78.6392 136.495 78.8908 136.292 79.1975 136.135C79.5042 135.978 79.8825 135.9 80.3325 135.9C80.8158 135.9 81.2442 136.015 81.6175 136.245C81.9942 136.472 82.2875 136.783 82.4975 137.18C82.7075 137.573 82.8125 138.022 82.8125 138.525C82.8125 138.888 82.7525 139.23 82.6325 139.55C82.5125 139.867 82.3408 140.145 82.1175 140.385C81.8975 140.625 81.6342 140.813 81.3275 140.95C81.0242 141.083 80.6875 141.15 80.3175 141.15C79.9308 141.15 79.5908 141.08 79.2975 140.94C79.0042 140.8 78.7542 140.612 78.5475 140.375V143.1H77.4525ZM80.1325 140.175C80.4392 140.175 80.7108 140.108 80.9475 139.975C81.1875 139.838 81.3742 139.647 81.5075 139.4C81.6442 139.153 81.7125 138.862 81.7125 138.525C81.7125 138.188 81.6442 137.897 81.5075 137.65C81.3708 137.4 81.1825 137.208 80.9425 137.075C80.7058 136.942 80.4358 136.875 80.1325 136.875C79.8258 136.875 79.5525 136.942 79.3125 137.075C79.0758 137.208 78.8892 137.4 78.7525 137.65C78.6158 137.897 78.5475 138.188 78.5475 138.525C78.5475 138.862 78.6158 139.153 78.7525 139.4C78.8892 139.647 79.0758 139.838 79.3125 139.975C79.5525 140.108 79.8258 140.175 80.1325 140.175ZM85.2923 141.15C84.949 141.15 84.6473 141.087 84.3873 140.96C84.1273 140.83 83.924 140.648 83.7773 140.415C83.634 140.178 83.5623 139.9 83.5623 139.58C83.5623 139.31 83.6307 139.067 83.7673 138.85C83.904 138.63 84.1157 138.448 84.4023 138.305C84.6923 138.162 85.064 138.067 85.5173 138.02C85.9707 137.97 86.5157 137.977 87.1523 138.04L87.1723 138.8C86.719 138.737 86.329 138.71 86.0023 138.72C85.6757 138.73 85.4073 138.772 85.1973 138.845C84.9907 138.915 84.8373 139.01 84.7373 139.13C84.6407 139.247 84.5923 139.382 84.5923 139.535C84.5923 139.775 84.6773 139.96 84.8473 140.09C85.0207 140.22 85.2573 140.285 85.5573 140.285C85.814 140.285 86.044 140.238 86.2473 140.145C86.4507 140.052 86.6107 139.92 86.7273 139.75C86.8473 139.58 86.9073 139.38 86.9073 139.15V137.835C86.9073 137.615 86.8607 137.425 86.7673 137.265C86.674 137.102 86.5323 136.975 86.3423 136.885C86.1523 136.795 85.9157 136.75 85.6323 136.75C85.3723 136.75 85.1157 136.79 84.8623 136.87C84.609 136.947 84.3673 137.068 84.1373 137.235L83.8273 136.425C84.1373 136.215 84.4607 136.067 84.7973 135.98C85.134 135.893 85.4573 135.85 85.7673 135.85C86.2273 135.85 86.6207 135.923 86.9473 136.07C87.2773 136.213 87.5307 136.432 87.7073 136.725C87.884 137.015 87.9723 137.382 87.9723 137.825V141H86.9823V140.415C86.8157 140.652 86.584 140.833 86.2873 140.96C85.9907 141.087 85.659 141.15 85.2923 141.15Z" fill="white"/>
<path fill-rule="evenodd" clip-rule="evenodd" d="M139.079 186.001L146.519 172L142.04 186.001H175.76C178.102 186.001 180 187.899 180 190.241V201.761C180 204.102 178.102 206.001 175.76 206.001H67.24C64.8983 206.001 63 204.102 63 201.761V190.241C63 187.899 64.8983 186.001 67.24 186.001H139.079Z" fill="#B2FDFF"/>
<path d="M69.91 199.001V192.001H74.31V192.991H71.03V194.891H72.305C73.0617 194.891 73.6683 195.066 74.125 195.416C74.5817 195.762 74.81 196.272 74.81 196.946C74.81 197.386 74.71 197.759 74.51 198.066C74.3133 198.369 74.0267 198.601 73.65 198.761C73.2767 198.921 72.8267 199.001 72.3 199.001H69.91ZM71.03 198.121H72.24C72.6933 198.121 73.0417 198.021 73.285 197.821C73.5317 197.621 73.655 197.334 73.655 196.961C73.655 196.597 73.5333 196.309 73.29 196.096C73.0467 195.882 72.7117 195.776 72.285 195.776H71.03V198.121ZM75.9229 199.086L75.5379 198.096C75.8779 198.009 76.1262 197.872 76.2829 197.686C76.4429 197.499 76.5429 197.239 76.5829 196.906C76.6262 196.572 76.6479 196.142 76.6479 195.616V194.051H80.6729V199.001H79.5729V194.961H77.6729V195.616C77.6729 196.146 77.6479 196.607 77.5979 197.001C77.5512 197.394 77.4646 197.729 77.3379 198.006C77.2112 198.282 77.0329 198.509 76.8029 198.686C76.5762 198.859 76.2829 198.992 75.9229 199.086ZM83.5814 199.151C83.2381 199.151 82.9364 199.087 82.6764 198.961C82.4164 198.831 82.2131 198.649 82.0664 198.416C81.9231 198.179 81.8514 197.901 81.8514 197.581C81.8514 197.311 81.9197 197.067 82.0564 196.851C82.1931 196.631 82.4047 196.449 82.6914 196.306C82.9814 196.162 83.3531 196.067 83.8064 196.021C84.2597 195.971 84.8047 195.977 85.4414 196.041L85.4614 196.801C85.0081 196.737 84.6181 196.711 84.2914 196.721C83.9647 196.731 83.6964 196.772 83.4864 196.846C83.2797 196.916 83.1264 197.011 83.0264 197.131C82.9297 197.247 82.8814 197.382 82.8814 197.536C82.8814 197.776 82.9664 197.961 83.1364 198.091C83.3097 198.221 83.5464 198.286 83.8464 198.286C84.1031 198.286 84.3331 198.239 84.5364 198.146C84.7397 198.052 84.8997 197.921 85.0164 197.751C85.1364 197.581 85.1964 197.381 85.1964 197.151V195.836C85.1964 195.616 85.1497 195.426 85.0564 195.266C84.9631 195.102 84.8214 194.976 84.6314 194.886C84.4414 194.796 84.2047 194.751 83.9214 194.751C83.6614 194.751 83.4047 194.791 83.1514 194.871C82.8981 194.947 82.6564 195.069 82.4264 195.236L82.1164 194.426C82.4264 194.216 82.7497 194.067 83.0864 193.981C83.4231 193.894 83.7464 193.851 84.0564 193.851C84.5164 193.851 84.9097 193.924 85.2364 194.071C85.5664 194.214 85.8197 194.432 85.9964 194.726C86.1731 195.016 86.2614 195.382 86.2614 195.826V199.001H85.2714V198.416C85.1047 198.652 84.8731 198.834 84.5764 198.961C84.2797 199.087 83.9481 199.151 83.5814 199.151ZM87.724 199.001V194.051H90.984V194.961H88.824V199.001H87.724ZM94.2563 199.151C93.7397 199.151 93.278 199.032 92.8713 198.796C92.468 198.556 92.1513 198.237 91.9213 197.841C91.6913 197.441 91.5763 197.002 91.5763 196.526C91.5763 196.172 91.6413 195.839 91.7713 195.526C91.9047 195.209 92.0913 194.929 92.3313 194.686C92.5747 194.442 92.8597 194.251 93.1863 194.111C93.513 193.971 93.8713 193.901 94.2613 193.901C94.778 193.901 95.238 194.021 95.6413 194.261C96.048 194.497 96.3663 194.816 96.5963 195.216C96.8263 195.612 96.9413 196.049 96.9413 196.526C96.9413 196.876 96.8747 197.209 96.7413 197.526C96.6113 197.842 96.4263 198.122 96.1863 198.366C95.9463 198.609 95.663 198.801 95.3363 198.941C95.0097 199.081 94.6497 199.151 94.2563 199.151ZM94.2563 198.176C94.563 198.176 94.8347 198.109 95.0713 197.976C95.3113 197.839 95.4997 197.647 95.6363 197.401C95.773 197.154 95.8413 196.862 95.8413 196.526C95.8413 196.189 95.773 195.897 95.6363 195.651C95.4997 195.401 95.3113 195.209 95.0713 195.076C94.8347 194.942 94.563 194.876 94.2563 194.876C93.9497 194.876 93.6763 194.942 93.4363 195.076C93.1997 195.209 93.013 195.401 92.8763 195.651C92.743 195.897 92.6763 196.189 92.6763 196.526C92.6763 196.862 92.7447 197.154 92.8813 197.401C93.018 197.647 93.2047 197.839 93.4413 197.976C93.6813 198.109 93.953 198.176 94.2563 198.176ZM99.1513 199.001V194.961H97.5263V194.051H101.881V194.961H100.251V199.001H99.1513ZM102.89 199.001V194.051H105.25C105.81 194.051 106.258 194.157 106.595 194.371C106.932 194.584 107.1 194.904 107.1 195.331C107.1 195.531 107.052 195.709 106.955 195.866C106.858 196.019 106.725 196.147 106.555 196.251C106.385 196.354 106.187 196.429 105.96 196.476L105.94 196.231C106.377 196.291 106.715 196.436 106.955 196.666C107.195 196.896 107.315 197.187 107.315 197.541C107.315 197.841 107.237 198.101 107.08 198.321C106.923 198.537 106.698 198.706 106.405 198.826C106.112 198.942 105.76 199.001 105.35 199.001H102.89ZM103.955 198.186H105.2C105.53 198.186 105.783 198.131 105.96 198.021C106.14 197.911 106.23 197.746 106.23 197.526C106.23 197.309 106.142 197.147 105.965 197.041C105.788 196.931 105.533 196.876 105.2 196.876H103.81V196.091H105.085C105.395 196.091 105.635 196.044 105.805 195.951C105.975 195.854 106.06 195.697 106.06 195.481C106.06 195.264 105.975 195.107 105.805 195.011C105.635 194.911 105.395 194.861 105.085 194.861H103.955V198.186ZM110.809 199.151C110.292 199.151 109.831 199.032 109.424 198.796C109.021 198.556 108.704 198.237 108.474 197.841C108.244 197.441 108.129 197.002 108.129 196.526C108.129 196.172 108.194 195.839 108.324 195.526C108.457 195.209 108.644 194.929 108.884 194.686C109.127 194.442 109.412 194.251 109.739 194.111C110.066 193.971 110.424 193.901 110.814 193.901C111.331 193.901 111.791 194.021 112.194 194.261C112.601 194.497 112.919 194.816 113.149 195.216C113.379 195.612 113.494 196.049 113.494 196.526C113.494 196.876 113.427 197.209 113.294 197.526C113.164 197.842 112.979 198.122 112.739 198.366C112.499 198.609 112.216 198.801 111.889 198.941C111.562 199.081 111.202 199.151 110.809 199.151ZM110.809 198.176C111.116 198.176 111.387 198.109 111.624 197.976C111.864 197.839 112.052 197.647 112.189 197.401C112.326 197.154 112.394 196.862 112.394 196.526C112.394 196.189 112.326 195.897 112.189 195.651C112.052 195.401 111.864 195.209 111.624 195.076C111.387 194.942 111.116 194.876 110.809 194.876C110.502 194.876 110.229 194.942 109.989 195.076C109.752 195.209 109.566 195.401 109.429 195.651C109.296 195.897 109.229 196.189 109.229 196.526C109.229 196.862 109.297 197.154 109.434 197.401C109.571 197.647 109.757 197.839 109.994 197.976C110.234 198.109 110.506 198.176 110.809 198.176ZM114.599 201.101V194.051H115.589V194.746C115.786 194.496 116.037 194.292 116.344 194.136C116.651 193.979 117.029 193.901 117.479 193.901C117.962 193.901 118.391 194.016 118.764 194.246C119.141 194.472 119.434 194.784 119.644 195.181C119.854 195.574 119.959 196.022 119.959 196.526C119.959 196.889 119.899 197.231 119.779 197.551C119.659 197.867 119.487 198.146 119.264 198.386C119.044 198.626 118.781 198.814 118.474 198.951C118.171 199.084 117.834 199.151 117.464 199.151C117.077 199.151 116.737 199.081 116.444 198.941C116.151 198.801 115.901 198.612 115.694 198.376V201.101H114.599ZM117.279 198.176C117.586 198.176 117.857 198.109 118.094 197.976C118.334 197.839 118.521 197.647 118.654 197.401C118.791 197.154 118.859 196.862 118.859 196.526C118.859 196.189 118.791 195.897 118.654 195.651C118.517 195.401 118.329 195.209 118.089 195.076C117.852 194.942 117.582 194.876 117.279 194.876C116.972 194.876 116.699 194.942 116.459 195.076C116.222 195.209 116.036 195.401 115.899 195.651C115.762 195.897 115.694 196.189 115.694 196.526C115.694 196.862 115.762 197.154 115.899 197.401C116.036 197.647 116.222 197.839 116.459 197.976C116.699 198.109 116.972 198.176 117.279 198.176ZM121.064 199.001V194.051H122.129V197.391L124.814 194.051H125.774V199.001H124.714V195.621L122.004 199.001H121.064ZM128.409 199.001V194.961H126.784V194.051H131.139V194.961H129.509V199.001H128.409ZM134.408 199.151C133.874 199.151 133.406 199.042 133.003 198.826C132.599 198.606 132.284 198.299 132.058 197.906C131.834 197.512 131.723 197.056 131.723 196.536C131.723 196.156 131.788 195.806 131.918 195.486C132.048 195.162 132.231 194.882 132.468 194.646C132.704 194.409 132.981 194.226 133.298 194.096C133.618 193.966 133.966 193.901 134.343 193.901C134.753 193.901 135.118 193.974 135.438 194.121C135.758 194.264 136.023 194.466 136.233 194.726C136.446 194.986 136.596 195.291 136.683 195.641C136.773 195.987 136.788 196.364 136.728 196.771H132.778C132.771 197.067 132.836 197.327 132.973 197.551C133.109 197.771 133.304 197.942 133.558 198.066C133.814 198.189 134.116 198.251 134.463 198.251C134.743 198.251 135.013 198.209 135.273 198.126C135.536 198.039 135.774 197.912 135.988 197.746L136.413 198.536C136.253 198.666 136.059 198.777 135.833 198.871C135.606 198.961 135.369 199.029 135.123 199.076C134.876 199.126 134.638 199.151 134.408 199.151ZM132.843 195.961H135.648C135.638 195.587 135.518 195.294 135.288 195.081C135.061 194.867 134.738 194.761 134.318 194.761C133.911 194.761 133.573 194.867 133.303 195.081C133.036 195.294 132.883 195.587 132.843 195.961ZM137.69 199.086L137.305 198.096C137.645 198.009 137.894 197.872 138.05 197.686C138.21 197.499 138.31 197.239 138.35 196.906C138.394 196.572 138.415 196.142 138.415 195.616V194.051H142.44V199.001H141.34V194.961H139.44V195.616C139.44 196.146 139.415 196.607 139.365 197.001C139.319 197.394 139.232 197.729 139.105 198.006C138.979 198.282 138.8 198.509 138.57 198.686C138.344 198.859 138.05 198.992 137.69 199.086ZM143.974 199.001V194.051H145.074V198.166H146.019C146.379 198.166 146.651 198.096 146.834 197.956C147.017 197.816 147.109 197.607 147.109 197.331C147.109 197.057 147.024 196.847 146.854 196.701C146.684 196.554 146.434 196.481 146.104 196.481H144.924V195.656H146.189C146.829 195.656 147.332 195.799 147.699 196.086C148.066 196.372 148.249 196.787 148.249 197.331C148.249 197.681 148.161 197.981 147.984 198.231C147.807 198.477 147.559 198.667 147.239 198.801C146.922 198.934 146.551 199.001 146.124 199.001H143.974ZM149.404 199.001V194.051H150.504V195.961H152.984V194.051H154.084V199.001H152.984V196.871H150.504V199.001H149.404ZM157.87 199.151C157.353 199.151 156.891 199.032 156.485 198.796C156.081 198.556 155.765 198.237 155.535 197.841C155.305 197.441 155.19 197.002 155.19 196.526C155.19 196.172 155.255 195.839 155.385 195.526C155.518 195.209 155.705 194.929 155.945 194.686C156.188 194.442 156.473 194.251 156.8 194.111C157.126 193.971 157.485 193.901 157.875 193.901C158.391 193.901 158.851 194.021 159.255 194.261C159.661 194.497 159.98 194.816 160.21 195.216C160.44 195.612 160.555 196.049 160.555 196.526C160.555 196.876 160.488 197.209 160.355 197.526C160.225 197.842 160.04 198.122 159.8 198.366C159.56 198.609 159.276 198.801 158.95 198.941C158.623 199.081 158.263 199.151 157.87 199.151ZM157.87 198.176C158.176 198.176 158.448 198.109 158.685 197.976C158.925 197.839 159.113 197.647 159.25 197.401C159.386 197.154 159.455 196.862 159.455 196.526C159.455 196.189 159.386 195.897 159.25 195.651C159.113 195.401 158.925 195.209 158.685 195.076C158.448 194.942 158.176 194.876 157.87 194.876C157.563 194.876 157.29 194.942 157.05 195.076C156.813 195.209 156.626 195.401 156.49 195.651C156.356 195.897 156.29 196.189 156.29 196.526C156.29 196.862 156.358 197.154 156.495 197.401C156.631 197.647 156.818 197.839 157.055 197.976C157.295 198.109 157.566 198.176 157.87 198.176ZM163.978 199.151C163.458 199.151 162.995 199.037 162.588 198.811C162.182 198.581 161.862 198.269 161.628 197.876C161.398 197.479 161.283 197.029 161.283 196.526C161.283 196.146 161.352 195.797 161.488 195.481C161.625 195.161 161.818 194.882 162.068 194.646C162.318 194.409 162.612 194.226 162.948 194.096C163.288 193.966 163.657 193.901 164.053 193.901C164.387 193.901 164.695 193.946 164.978 194.036C165.265 194.122 165.528 194.257 165.768 194.441L165.238 195.281C165.085 195.144 164.908 195.042 164.708 194.976C164.512 194.909 164.302 194.876 164.078 194.876C163.732 194.876 163.433 194.941 163.183 195.071C162.933 195.201 162.738 195.389 162.598 195.636C162.462 195.879 162.393 196.174 162.393 196.521C162.393 197.037 162.543 197.442 162.843 197.736C163.147 198.029 163.558 198.176 164.078 198.176C164.325 198.176 164.558 198.131 164.778 198.041C164.998 197.947 165.182 197.826 165.328 197.676L165.853 198.511C165.59 198.711 165.297 198.867 164.973 198.981C164.65 199.094 164.318 199.151 163.978 199.151ZM167.97 199.001V194.961H166.345V194.051H170.7V194.961H169.07V199.001H167.97ZM171.708 199.001V194.051H172.808V198.166H173.753C174.113 198.166 174.385 198.096 174.568 197.956C174.752 197.816 174.843 197.607 174.843 197.331C174.843 197.057 174.758 196.847 174.588 196.701C174.418 196.554 174.168 196.481 173.838 196.481H172.658V195.656H173.923C174.563 195.656 175.067 195.799 175.433 196.086C175.8 196.372 175.983 196.787 175.983 197.331C175.983 197.681 175.895 197.981 175.718 198.231C175.542 198.477 175.293 198.667 174.973 198.801C174.657 198.934 174.285 199.001 173.858 199.001H171.708Z" fill="#1C195B"/>
<defs>
<linearGradient id="paint0_linear_437_2874" x1="89.9844" y1="31.1238" x2="260.413" y2="40.8278" gradientUnits="userSpaceOnUse">
<stop stop-color="#544CF9"/>
<stop offset="0.52" stop-color="#8B86FF"/>
<stop offset="1" stop-color="#5D56FF"/>
</linearGradient>
<linearGradient id="paint1_linear_437_2874" x1="90.2192" y1="143.373" x2="157.545" y2="-13.4947" gradientUnits="userSpaceOnUse">
<stop stop-color="#544CF9"/>
<stop offset="0.52" stop-color="#8B86FF"/>
<stop offset="1" stop-color="#5D56FF"/>
</linearGradient>
<linearGradient id="paint2_linear_437_2874" x1="95.8253" y1="25.4075" x2="264.487" y2="51.7397" gradientUnits="userSpaceOnUse">
<stop stop-color="#544CF9"/>
<stop offset="0.52" stop-color="#8B86FF"/>
<stop offset="1" stop-color="#5D56FF"/>
</linearGradient>
<linearGradient id="paint3_linear_437_2874" x1="233.483" y1="15.7722" x2="203.444" y2="183.813" gradientUnits="userSpaceOnUse">
<stop stop-color="#544CF9"/>
<stop offset="0.52" stop-color="#8B86FF"/>
<stop offset="1" stop-color="#5D56FF"/>
</linearGradient>
<linearGradient id="paint4_linear_437_2874" x1="132.459" y1="6.6096" x2="264.924" y2="102.215" gradientUnits="userSpaceOnUse">
<stop stop-color="#544CF9"/>
<stop offset="0.52" stop-color="#8B86FF"/>
<stop offset="1" stop-color="#5D56FF"/>
</linearGradient>
<linearGradient id="paint5_linear_437_2874" x1="189.409" y1="3.21207" x2="237.862" y2="157.021" gradientUnits="userSpaceOnUse">
<stop stop-color="#544CF9"/>
<stop offset="0.52" stop-color="#8B86FF"/>
<stop offset="1" stop-color="#5D56FF"/>
</linearGradient>
<clipPath id="clip0_437_2874">
<rect width="172" height="174" fill="white" transform="translate(83)"/>
</clipPath>
</defs>
</svg>
