<svg width="22" height="22" viewBox="0 0 22 22" fill="none" xmlns="http://www.w3.org/2000/svg">
<path d="M10.9992 5V17M13.9992 8.5C13.9992 7.12 12.6562 6 10.9992 6C9.34221 6 7.99921 7.12 7.99921 8.5C7.99921 9.88 9.34221 11 10.9992 11C12.6562 11 13.9992 12.12 13.9992 13.5C13.9992 14.88 12.6562 16 10.9992 16C9.34221 16 7.99921 14.88 7.99921 13.5" stroke="#544CF9" stroke-width="1.83333" stroke-linecap="round"/>
<path d="M5.99939 2.33801C7.51891 1.45891 9.2439 0.997307 10.9994 1.00001C16.5224 1.00001 20.9994 5.47701 20.9994 11C20.9994 16.523 16.5224 21 10.9994 21C5.47639 21 0.99939 16.523 0.99939 11C0.99939 9.17901 1.48639 7.47001 2.33739 6.00001" stroke="#544CF9" stroke-width="1.83333" stroke-linecap="round"/>
</svg>
