<svg width="23" height="18" viewBox="0 0 23 18" fill="none" xmlns="http://www.w3.org/2000/svg">
<path d="M22.3695 2.92831L8.36946 16.9283C8.24753 17.0507 8.10264 17.1478 7.9431 17.214C7.78356 17.2802 7.61252 17.3143 7.43978 17.3143C7.26703 17.3143 7.09599 17.2802 6.93645 17.214C6.77692 17.1478 6.63202 17.0507 6.51009 16.9283L0.385089 10.8033C0.263001 10.6812 0.166155 10.5363 0.100081 10.3768C0.0340076 10.2173 1.81926e-09 10.0463 0 9.87362C-1.81926e-09 9.70097 0.0340076 9.53 0.100081 9.37048C0.166155 9.21097 0.263001 9.06603 0.385089 8.94394C0.507177 8.82185 0.652117 8.725 0.811633 8.65893C0.971149 8.59286 1.14212 8.55885 1.31478 8.55885C1.48744 8.55885 1.6584 8.59286 1.81792 8.65893C1.97744 8.725 2.12238 8.82185 2.24446 8.94394L7.44087 14.1403L20.5123 1.07112C20.7588 0.824556 21.0933 0.686035 21.442 0.686035C21.7907 0.686035 22.1251 0.824556 22.3717 1.07112C22.6182 1.31769 22.7567 1.65211 22.7567 2.00081C22.7567 2.34951 22.6182 2.68393 22.3717 2.9305L22.3695 2.92831Z" fill="#05E9F0"/>
</svg>
