<svg width="20" height="20" viewBox="0 0 20 20" fill="none" xmlns="http://www.w3.org/2000/svg">
<path d="M5.2474 11.1484H10.8984V10.3411H5.2474V11.1484ZM5.2474 8.72656H14.1276V7.91927H5.2474V8.72656ZM5.2474 6.30469H14.1276V5.4974H5.2474V6.30469ZM2.42188 16.458V3.97646C2.42188 3.60457 2.54647 3.2943 2.79565 3.04565C3.04484 2.79701 3.35483 2.67241 3.72565 2.67188H15.6493C16.0207 2.67188 16.3307 2.79647 16.5793 3.04565C16.828 3.29484 16.9526 3.6051 16.9531 3.97646V12.6702C16.9531 13.0415 16.8285 13.3518 16.5793 13.601C16.3302 13.8502 16.0202 13.9745 15.6493 13.974H4.90591L2.42188 16.458ZM4.5612 13.1667H15.6493C15.7731 13.1667 15.887 13.115 15.9908 13.0117C16.0947 12.9083 16.1464 12.7945 16.1458 12.6702V3.97565C16.1458 3.85187 16.0942 3.73804 15.9908 3.63417C15.8875 3.5303 15.7737 3.47863 15.6493 3.47917H3.72565C3.60187 3.47917 3.48804 3.53083 3.38417 3.63417C3.2803 3.7375 3.22863 3.85133 3.22917 3.97565V14.4947L4.5612 13.1667Z" fill="#05E9F0"/>
</svg>
