<svg width="25" height="23" viewBox="0 0 25 23" fill="none" xmlns="http://www.w3.org/2000/svg">
<path d="M5.39583 14.4375H14.4375V13.1458H5.39583V14.4375ZM5.39583 10.5625H19.6042V9.27083H5.39583V10.5625ZM5.39583 6.6875H19.6042V5.39583H5.39583V6.6875ZM0.875 22.9328V2.96233C0.875 2.36731 1.07435 1.87088 1.47304 1.47304C1.87174 1.07521 2.36774 0.875861 2.96104 0.875H22.039C22.6331 0.875 23.1291 1.07435 23.527 1.47304C23.9248 1.87174 24.1241 2.36817 24.125 2.96233V16.8723C24.125 17.4665 23.9257 17.9629 23.527 18.3616C23.1283 18.7603 22.6323 18.9592 22.039 18.9583H4.84946L0.875 22.9328ZM4.29792 17.6667H22.039C22.237 17.6667 22.4191 17.584 22.5853 17.4187C22.7515 17.2533 22.8342 17.0712 22.8333 16.8723V2.96104C22.8333 2.76299 22.7507 2.58086 22.5853 2.41467C22.42 2.24847 22.2379 2.16581 22.039 2.16667H2.96104C2.76299 2.16667 2.58086 2.24933 2.41467 2.41467C2.24847 2.58 2.16581 2.76212 2.16667 2.96104V19.7915L4.29792 17.6667Z" fill="#05E9F0"/>
</svg>
