<svg width="22" height="23" viewBox="0 0 22 23" fill="none" xmlns="http://www.w3.org/2000/svg">
<path d="M17.1417 7.89774H16.775C16.37 7.89774 16.0417 8.22606 16.0417 8.63107V17.7061C16.0417 18.1111 16.37 18.4394 16.775 18.4394H17.1417C17.5467 18.4394 17.875 18.1111 17.875 17.7061V8.63107C17.875 8.22606 17.5467 7.89774 17.1417 7.89774Z" fill="#1C195B" stroke="#05E9F0" stroke-width="1.26815"/>
<path d="M13.475 11.106H13.1083C12.7033 11.106 12.375 11.4344 12.375 11.8394V17.706C12.375 18.1111 12.7033 18.4394 13.1083 18.4394H13.475C13.88 18.4394 14.2083 18.1111 14.2083 17.706V11.8394C14.2083 11.4344 13.88 11.106 13.475 11.106Z" fill="#1C195B" stroke="#05E9F0" stroke-width="1.26815"/>
<path d="M9.80834 12.9394H9.44168C9.03667 12.9394 8.70834 13.2677 8.70834 13.6727V17.7061C8.70834 18.1111 9.03667 18.4394 9.44168 18.4394H9.80834C10.2134 18.4394 10.5417 18.1111 10.5417 17.7061V13.6727C10.5417 13.2677 10.2134 12.9394 9.80834 12.9394Z" fill="#1C195B" stroke="#05E9F0" stroke-width="1.26815"/>
<path d="M6.14166 15.6894H5.77499C5.36998 15.6894 5.04166 16.0177 5.04166 16.4227V17.7061C5.04166 18.1111 5.36998 18.4394 5.77499 18.4394H6.14166C6.54667 18.4394 6.87499 18.1111 6.87499 17.7061V16.4227C6.87499 16.0177 6.54667 15.6894 6.14166 15.6894Z" fill="#1C195B" stroke="#05E9F0" stroke-width="1.26815"/>
<path d="M19.25 17.981H2.75V18.8977H19.25V17.981Z" fill="#05E9F0"/>
<path d="M14.1065 5.22755L3.12521 13.5025L3.67688 14.2346L14.6581 5.95963L14.1065 5.22755Z" fill="#05E9F0"/>
<path d="M14.9282 4.78107H14.0116V7.1644H14.9282V4.78107Z" fill="#05E9F0"/>
<path d="M14.9417 5.7042V4.78754H12.5583V5.7042H14.9417Z" fill="#05E9F0"/>
</svg>
