<svg width="28" height="20" viewBox="0 0 28 20" fill="none" xmlns="http://www.w3.org/2000/svg">
<path d="M27.6183 6.89989L24.8281 1.3163C24.7383 1.1364 24.6139 0.975956 24.462 0.844131C24.3102 0.712305 24.1339 0.611679 23.9431 0.547999C23.7524 0.484318 23.551 0.45883 23.3504 0.472989C23.1498 0.487147 22.954 0.540676 22.7741 0.630519L19.9784 2.02833L14.1673 0.490519C14.0576 0.462083 13.9424 0.462083 13.8326 0.490519L8.02155 2.02833L5.22702 0.630519C5.04706 0.540506 4.85113 0.486842 4.65043 0.472594C4.44972 0.458346 4.24818 0.483794 4.05731 0.547484C3.86645 0.611173 3.69001 0.711855 3.53808 0.843773C3.38614 0.975692 3.2617 1.13626 3.17186 1.3163L0.381705 6.89989C0.200181 7.26309 0.170336 7.6835 0.298734 8.0687C0.427131 8.45389 0.703258 8.77232 1.06639 8.95396L4.03592 10.4393L10.1183 14.7836C10.1842 14.8312 10.2584 14.866 10.337 14.8865L17.337 16.6365C17.3903 16.6498 17.4451 16.6564 17.5 16.6561C17.674 16.656 17.8408 16.5868 17.9637 16.4636L24.0133 10.4141L26.9336 8.95396C27.2967 8.77232 27.5728 8.45389 27.7012 8.0687C27.8296 7.6835 27.7998 7.26309 27.6183 6.89989ZM21.8214 10.7455L17.9058 7.60864C17.7795 7.50758 17.6203 7.4567 17.4588 7.46579C17.2974 7.47487 17.1449 7.54327 17.0308 7.65786C14.9909 9.71302 12.7105 9.4538 11.2569 8.52411C11.2283 8.50649 11.2041 8.48252 11.1863 8.45407C11.1685 8.42562 11.1574 8.39345 11.1541 8.36005C11.1502 8.32942 11.1532 8.29832 11.1628 8.26899C11.1725 8.23967 11.1885 8.21286 11.2098 8.19052L16.0158 3.53114H19.7192L22.8266 9.74583L21.8214 10.7455ZM1.54327 7.65349C1.52518 7.59865 1.52951 7.53889 1.5553 7.48724L4.34655 1.90255C4.36489 1.86614 4.39305 1.83559 4.42783 1.81433C4.46262 1.79307 4.50266 1.78195 4.54342 1.78224C4.57721 1.78227 4.61053 1.79014 4.64077 1.80521L7.06999 3.01927L4.08186 8.99989L1.65264 7.78583C1.62643 7.77229 1.60323 7.75358 1.58443 7.73084C1.56563 7.70809 1.55163 7.68178 1.54327 7.65349ZM17.2987 15.2736L10.78 13.644L5.2128 9.66708L8.40436 3.28505L14 1.80411L15.6187 2.23286C15.4949 2.25681 15.3809 2.31651 15.2906 2.40458L10.2922 7.25536C10.1299 7.41756 10.0061 7.61415 9.93002 7.83061C9.85392 8.04707 9.82744 8.27786 9.85254 8.50593C9.87764 8.734 9.95366 8.95352 10.075 9.14825C10.1964 9.34299 10.3599 9.50796 10.5536 9.63099C12.7651 11.0441 15.4481 10.7783 17.5317 8.98677L20.8906 11.6796L17.2987 15.2736ZM26.4567 7.65349C26.4477 7.68078 26.4334 7.70604 26.4146 7.72781C26.3959 7.74958 26.373 7.76744 26.3473 7.78036L23.9181 8.99989L20.93 3.01927L23.3592 1.80521C23.3849 1.79229 23.413 1.78457 23.4417 1.78251C23.4704 1.78045 23.4992 1.78407 23.5266 1.79318C23.5538 1.80218 23.5791 1.81647 23.6009 1.83524C23.6226 1.854 23.6405 1.87688 23.6534 1.90255L26.4447 7.48724C26.4705 7.53889 26.4748 7.59865 26.4567 7.65349ZM14.2067 18.7835C14.1646 18.9523 14.0572 19.0974 13.9081 19.1871C13.759 19.2767 13.5804 19.3035 13.4116 19.2615L8.84733 18.1207C8.76859 18.1005 8.69437 18.0656 8.62858 18.0179L5.74436 15.9605C5.60266 15.859 5.50709 15.7053 5.47868 15.5333C5.45027 15.3613 5.49135 15.1851 5.59288 15.0434C5.69441 14.9017 5.84807 14.8061 6.02006 14.7777C6.19205 14.7493 6.36828 14.7904 6.50999 14.8919L9.28702 16.8749L13.7287 17.985C13.8126 18.006 13.8914 18.0433 13.9608 18.0948C14.0302 18.1463 14.0887 18.211 14.133 18.2852C14.1773 18.3594 14.2066 18.4416 14.219 18.5271C14.2315 18.6126 14.2269 18.6997 14.2056 18.7835H14.2067Z" fill="#05E9F0"/>
</svg>
