<svg width="27" height="22" viewBox="0 0 27 22" fill="none" xmlns="http://www.w3.org/2000/svg">
<path d="M19.1641 0.03125C16.8248 0.03125 14.7767 1.03719 13.5 2.73754C12.2233 1.03719 10.1752 0.03125 7.83594 0.03125C5.97385 0.0333488 4.18863 0.77399 2.87194 2.09069C1.55524 3.40738 0.814599 5.1926 0.8125 7.05469C0.8125 14.9844 12.57 21.4029 13.0707 21.668C13.2026 21.739 13.3501 21.7761 13.5 21.7761C13.6499 21.7761 13.7974 21.739 13.9293 21.668C14.43 21.4029 26.1875 14.9844 26.1875 7.05469C26.1854 5.1926 25.4448 3.40738 24.1281 2.09069C22.8114 0.77399 21.0261 0.0333488 19.1641 0.03125ZM13.5 19.8328C11.4315 18.6275 2.625 13.1368 2.625 7.05469C2.6268 5.67321 3.17638 4.34884 4.15323 3.37198C5.13009 2.39513 6.45446 1.84555 7.83594 1.84375C10.0393 1.84375 11.8891 3.01734 12.6617 4.90234C12.73 5.06856 12.8461 5.21073 12.9954 5.31078C13.1447 5.41083 13.3203 5.46425 13.5 5.46425C13.6797 5.46425 13.8553 5.41083 14.0046 5.31078C14.1539 5.21073 14.27 5.06856 14.3383 4.90234C15.1109 3.01395 16.9607 1.84375 19.1641 1.84375C20.5455 1.84555 21.8699 2.39513 22.8468 3.37198C23.8236 4.34884 24.3732 5.67321 24.375 7.05469C24.375 13.1277 15.5662 18.6264 13.5 19.8328Z" fill="#05E9F0"/>
</svg>
