<svg width="20" height="21" viewBox="0 0 20 21" fill="none" xmlns="http://www.w3.org/2000/svg">
<path d="M9.99933 5.625V15.625M12.4993 8.54167C12.4993 7.39167 11.3802 6.45833 9.99933 6.45833C8.6185 6.45833 7.49933 7.39167 7.49933 8.54167C7.49933 9.69167 8.6185 10.625 9.99933 10.625C11.3802 10.625 12.4993 11.5583 12.4993 12.7083C12.4993 13.8583 11.3802 14.7917 9.99933 14.7917C8.6185 14.7917 7.49933 13.8583 7.49933 12.7083" stroke="#05E9F0" stroke-width="1.14583" stroke-linecap="round"/>
<path d="M5.8328 3.40651C7.09907 2.67393 8.53656 2.28926 9.99947 2.29151C14.602 2.29151 18.3328 6.02235 18.3328 10.6248C18.3328 15.2273 14.602 18.9582 9.99947 18.9582C5.39697 18.9582 1.66614 15.2273 1.66614 10.6248C1.66614 9.10735 2.07197 7.68318 2.78114 6.45818" stroke="#05E9F0" stroke-width="1.14583" stroke-linecap="round"/>
</svg>
