<svg width="25" height="25" viewBox="0 0 25 25" fill="none" xmlns="http://www.w3.org/2000/svg">
<path d="M12.4991 5.75V19.25M15.8741 9.6875C15.8741 8.135 14.3632 6.875 12.4991 6.875C10.635 6.875 9.12411 8.135 9.12411 9.6875C9.12411 11.24 10.635 12.5 12.4991 12.5C14.3632 12.5 15.8741 13.76 15.8741 15.3125C15.8741 16.865 14.3632 18.125 12.4991 18.125C10.635 18.125 9.12411 16.865 9.12411 15.3125" stroke="#05E9F0" stroke-width="1.83333" stroke-linecap="round"/>
<path d="M6.87433 2.75526C8.58379 1.76628 10.5244 1.24697 12.4993 1.25001C18.7127 1.25001 23.7493 6.28664 23.7493 12.5C23.7493 18.7134 18.7127 23.75 12.4993 23.75C6.28595 23.75 1.24933 18.7134 1.24933 12.5C1.24933 10.4514 1.7972 8.52876 2.75458 6.87501" stroke="#05E9F0" stroke-width="1.83333" stroke-linecap="round"/>
</svg>
