<svg width="30" height="30" viewBox="0 0 30 30" fill="none" xmlns="http://www.w3.org/2000/svg">
<path d="M14.999 7V23M18.999 11.6667C18.999 9.82667 17.2083 8.33333 14.999 8.33333C12.7896 8.33333 10.999 9.82667 10.999 11.6667C10.999 13.5067 12.7896 15 14.999 15C17.2083 15 18.999 16.4933 18.999 18.3333C18.999 20.1733 17.2083 21.6667 14.999 21.6667C12.7896 21.6667 10.999 20.1733 10.999 18.3333" stroke="#05E9F0" stroke-width="1.83333" stroke-linecap="round"/>
<path d="M8.33253 3.45052C10.3586 2.27839 12.6585 1.66291 14.9992 1.66652C22.3632 1.66652 28.3325 7.63585 28.3325 14.9999C28.3325 22.3639 22.3632 28.3332 14.9992 28.3332C7.6352 28.3332 1.66586 22.3639 1.66586 14.9999C1.66586 12.5719 2.3152 10.2932 3.44986 8.33319" stroke="#05E9F0" stroke-width="1.83333" stroke-linecap="round"/>
</svg>
