<svg width="24" height="28" viewBox="0 0 24 28" fill="none" xmlns="http://www.w3.org/2000/svg">
<path d="M12 14C15.4518 14 18.25 11.2018 18.25 7.75C18.25 4.29822 15.4518 1.5 12 1.5C8.54822 1.5 5.75 4.29822 5.75 7.75C5.75 11.2018 8.54822 14 12 14Z" stroke="#05E9F0" stroke-width="2"/>
<path d="M18.25 16.5H18.69C19.6039 16.5003 20.4862 16.8342 21.1712 17.4391C21.8562 18.044 22.2967 18.8782 22.41 19.785L22.8988 23.69C22.9427 24.0418 22.9114 24.3989 22.8068 24.7376C22.7022 25.0764 22.5267 25.389 22.292 25.6547C22.0574 25.9205 21.7689 26.1333 21.4457 26.279C21.1225 26.4248 20.772 26.5001 20.4175 26.5H3.58251C3.22799 26.5001 2.87751 26.4248 2.55432 26.279C2.23114 26.1333 1.94264 25.9205 1.70798 25.6547C1.47333 25.389 1.29787 25.0764 1.19327 24.7376C1.08867 24.3989 1.0573 24.0418 1.10126 23.69L1.58876 19.785C1.70214 18.8778 2.14303 18.0432 2.82855 17.4383C3.51407 16.8333 4.39699 16.4996 5.31127 16.5H5.75001" stroke="#05E9F0" stroke-width="2" stroke-linecap="round" stroke-linejoin="round"/>
</svg>
