<svg width="19" height="20" viewBox="0 0 19 20" fill="none" xmlns="http://www.w3.org/2000/svg">
<path d="M9.375 9.875C11.5324 9.875 13.2812 8.12611 13.2812 5.96875C13.2812 3.81139 11.5324 2.0625 9.375 2.0625C7.21764 2.0625 5.46875 3.81139 5.46875 5.96875C5.46875 8.12611 7.21764 9.875 9.375 9.875Z" stroke="#05E9F0" stroke-width="1.25"/>
<path d="M13.2812 11.4375H13.5562C14.1274 11.4377 14.6788 11.6464 15.107 12.0244C15.5351 12.4025 15.8104 12.9239 15.8812 13.4906L16.1867 15.9313C16.2142 16.1511 16.1946 16.3743 16.1292 16.586C16.0638 16.7977 15.9542 16.9931 15.8075 17.1592C15.6608 17.3253 15.4805 17.4583 15.2785 17.5494C15.0766 17.6405 14.8575 17.6875 14.6359 17.6875H4.11405C3.89247 17.6875 3.67342 17.6405 3.47143 17.5494C3.26944 17.4583 3.08913 17.3253 2.94247 17.1592C2.79581 16.9931 2.68615 16.7977 2.62077 16.586C2.55539 16.3743 2.53579 16.1511 2.56327 15.9313L2.86796 13.4906C2.93881 12.9236 3.21437 12.402 3.64282 12.0239C4.07127 11.6458 4.62309 11.4373 5.19452 11.4375H5.46874" stroke="#05E9F0" stroke-width="1.25" stroke-linecap="round" stroke-linejoin="round"/>
</svg>
