<svg width="28" height="26" viewBox="0 0 28 26" fill="none" xmlns="http://www.w3.org/2000/svg">
<path d="M28 6C28 4.76975 27.1626 3.718 25.9648 3.4415L14.5784 0.813875C14.3876 0.771 14.1934 0.75 14 0.75C13.8066 0.75 13.6124 0.771 13.4094 0.8165L2.03525 3.4415C0.8365 3.718 0 4.76975 0 6C0 7.23025 0.837375 8.282 2.03437 8.5585L4.375 9.09838V16.5C4.375 18.8223 7.03325 20.875 14 20.875C20.9667 20.875 23.625 18.8223 23.625 16.5V9.09838L25.9648 8.5585C27.1626 8.282 28 7.23025 28 6ZM21.875 16.5C21.875 17.4669 19.25 19.125 14 19.125C8.75 19.125 6.125 17.4669 6.125 16.5V9.50263L13.4208 11.1861C13.6115 11.229 13.8066 11.25 14 11.25C14.1934 11.25 14.3885 11.229 14.5898 11.1835L21.875 9.50263V16.5ZM14.1969 9.47813C14.1313 9.49213 14.0656 9.5 14 9.5C13.9344 9.5 13.8679 9.49213 13.8031 9.47813L2.42813 6.85313C2.03088 6.76125 1.75 6.40775 1.75 6C1.75 5.59225 2.03088 5.23875 2.42813 5.14687L13.8031 2.52188C13.8679 2.50788 13.9335 2.5 14 2.5C14.0665 2.5 14.1321 2.50788 14.1969 2.52188L25.5719 5.14687C25.9683 5.23875 26.25 5.59225 26.25 6C26.25 6.40775 25.9683 6.76125 25.5719 6.85313L14.1969 9.47813Z" fill="#05E9F0"/>
<path d="M25.375 10.375V18.25C25.375 18.7339 25.7661 19.125 26.25 19.125C26.733 19.125 27.125 18.7339 27.125 18.25V10.375C27.125 9.89113 26.733 9.5 26.25 9.5C25.7661 9.5 25.375 9.89113 25.375 10.375Z" fill="#05E9F0"/>
<path d="M26.25 20C25.2831 20 24.5 22.534 24.5 23.5C24.5 24.466 25.2831 25.25 26.25 25.25C27.216 25.25 28 24.466 28 23.5C28 22.534 27.216 20 26.25 20Z" fill="#05E9F0"/>
</svg>
