<svg width="18" height="16" viewBox="0 0 18 16" fill="none" xmlns="http://www.w3.org/2000/svg">
<path d="M17.5 3.375C17.5 2.60609 16.9766 1.94875 16.228 1.77594L9.11148 0.133672C8.99227 0.106875 8.87086 0.09375 8.75 0.09375C8.62914 0.09375 8.50773 0.106875 8.38086 0.135312L1.27203 1.77594C0.522812 1.94875 0 2.60609 0 3.375C0 4.14391 0.523359 4.80125 1.27148 4.97406L2.73438 5.31148V9.9375C2.73438 11.3889 4.39578 12.6719 8.75 12.6719C13.1042 12.6719 14.7656 11.3889 14.7656 9.9375V5.31148L16.228 4.97406C16.9766 4.80125 17.5 4.14391 17.5 3.375ZM13.6719 9.9375C13.6719 10.5418 12.0312 11.5781 8.75 11.5781C5.46875 11.5781 3.82812 10.5418 3.82812 9.9375V5.56414L8.38797 6.61633C8.50719 6.64313 8.62914 6.65625 8.75 6.65625C8.87086 6.65625 8.99281 6.64313 9.11859 6.61469L13.6719 5.56414V9.9375ZM8.87305 5.54883C8.83203 5.55758 8.79102 5.5625 8.75 5.5625C8.70898 5.5625 8.66742 5.55758 8.62695 5.54883L1.51758 3.9082C1.2693 3.85078 1.09375 3.62984 1.09375 3.375C1.09375 3.12016 1.2693 2.89922 1.51758 2.8418L8.62695 1.20117C8.66742 1.19242 8.70844 1.1875 8.75 1.1875C8.79156 1.1875 8.83258 1.19242 8.87305 1.20117L15.9824 2.8418C16.2302 2.89922 16.4062 3.12016 16.4062 3.375C16.4062 3.62984 16.2302 3.85078 15.9824 3.9082L8.87305 5.54883Z" fill="#05E9F0"/>
<path d="M15.8594 6.10938V11.0312C15.8594 11.3337 16.1038 11.5781 16.4062 11.5781C16.7081 11.5781 16.9531 11.3337 16.9531 11.0312V6.10938C16.9531 5.80695 16.7081 5.5625 16.4062 5.5625C16.1038 5.5625 15.8594 5.80695 15.8594 6.10938Z" fill="#05E9F0"/>
<path d="M16.4062 12.125C15.802 12.125 15.3125 13.7088 15.3125 14.3125C15.3125 14.9162 15.802 15.4062 16.4062 15.4062C17.01 15.4062 17.5 14.9162 17.5 14.3125C17.5 13.7088 17.01 12.125 16.4062 12.125Z" fill="#05E9F0"/>
</svg>
