<svg width="22" height="22" viewBox="0 0 22 22" fill="none" xmlns="http://www.w3.org/2000/svg">
<path d="M16.9608 16.8722V21.1965C16.9608 21.6832 16.3671 21.9121 16.0371 21.5678L10.9402 16.8722H6.64293C5.30317 16.8722 4.20922 15.7782 4.20922 14.4385V5.07188C4.20922 3.73238 5.30317 2.63843 6.64293 2.63843H18.8548C20.1946 2.63843 21.2885 3.73212 21.2885 5.07188V14.4385C21.2885 15.7782 20.1946 16.8722 18.8548 16.8722H16.9608ZM8.27319 8.48026C8.78067 8.48026 9.192 8.89159 9.192 9.39907C9.192 9.90654 8.78067 10.3179 8.27319 10.3179C7.76572 10.3179 7.35438 9.90654 7.35438 9.39907C7.35438 8.89159 7.76572 8.48026 8.27319 8.48026ZM17.2246 8.48026C17.7321 8.48026 18.1434 8.89159 18.1434 9.39907C18.1434 9.90654 17.7321 10.3179 17.2246 10.3179C16.7171 10.3179 16.3058 9.90654 16.3058 9.39907C16.3058 8.89159 16.7171 8.48026 17.2246 8.48026ZM14.2408 8.48026C14.7483 8.48026 15.1596 8.89159 15.1596 9.39907C15.1596 9.90654 14.7483 10.3179 14.2408 10.3179C13.7333 10.3179 13.322 9.90654 13.322 9.39907C13.322 8.89159 13.7333 8.48026 14.2408 8.48026ZM11.257 8.48026C11.7645 8.48026 12.1758 8.89159 12.1758 9.39907C12.1758 9.90654 11.7645 10.3179 11.257 10.3179C10.7495 10.3179 10.3382 9.90654 10.3382 9.39907C10.3382 8.89159 10.7495 8.48026 11.257 8.48026ZM3.14516 13.4274C3.8509 13.4274 3.8509 14.5009 3.14516 14.5009C1.8054 14.5009 0.711456 13.4069 0.711456 12.0672V2.70053C0.711456 1.36104 1.8054 0.26709 3.14516 0.26709H15.3573C16.0631 0.26709 16.0631 1.34025 15.3573 1.34025H3.14516C2.39811 1.34025 1.78487 1.95348 1.78487 2.70053V12.0672C1.78487 12.8142 2.39811 13.4274 3.14516 13.4274ZM15.8877 19.974V16.3354C15.8877 16.0391 16.128 15.7988 16.4243 15.7988H18.8548C19.6019 15.7988 20.2154 15.1855 20.2154 14.4385V5.07188C20.2154 4.32482 19.6019 3.71159 18.8548 3.71159H6.64293C5.89562 3.71159 5.28238 4.32482 5.28238 5.07188V14.4385C5.28238 15.1855 5.89562 15.7988 6.64293 15.7988L11.1481 15.8001C11.2778 15.8001 11.408 15.8466 11.5109 15.9414L15.8877 19.974Z" fill="#05E9F0"/>
</svg>
