<svg width="22" height="22" viewBox="0 0 22 22" fill="none" xmlns="http://www.w3.org/2000/svg">
<path d="M9.24001 7.62667C9.38667 7.99333 8.65334 8.8 8.87334 9.02C9.16667 9.31333 9.97334 8.50667 10.2667 8.65333C10.6333 8.8 10.6333 9.9 11 9.9C11.3667 9.9 11.44 8.8 11.7333 8.65333C12.1 8.50667 12.9067 9.24 13.1267 9.02C13.42 8.72667 12.6133 7.92 12.76 7.62667C12.9067 7.26 14.0067 7.26 14.0067 6.89333C14.0067 6.52667 12.9067 6.45333 12.76 6.16C12.6133 5.79333 13.3467 4.98667 13.1267 4.76667C12.8333 4.47333 12.0267 5.28 11.7333 5.13333C11.3667 4.98667 11.3667 3.88667 11 3.88667C10.6333 3.88667 10.56 4.98667 10.2667 5.13333C9.90001 5.28 9.09334 4.54667 8.87334 4.76667C8.58001 5.06 9.38667 5.86667 9.24001 6.16C9.09334 6.52667 7.99334 6.52667 7.99334 6.89333C7.99334 7.26 9.09334 7.26 9.24001 7.62667ZM17.6 2.93333V0.586667C17.6 0.293333 17.38 0 17.0133 0H4.91334C4.62001 0.0733333 4.40001 0.293333 4.40001 0.586667V2.93333C3.37334 2.93333 1.46667 3.22667 1.46667 5.35333C1.46667 6.96667 2.64001 9.38667 4.40001 9.68C4.69334 12.9067 7.04001 15.1067 9.16667 15.1067H9.46001V17.82H7.92001C7.18667 17.82 6.52667 18.4067 6.52667 19.2133V21.4133C6.52667 21.7067 6.74667 22 7.11334 22H14.96C15.2533 22 15.5467 21.78 15.5467 21.4133V19.2133C15.5467 18.48 14.96 17.82 14.1533 17.82H12.6133V15.1067C15.5467 14.96 17.38 12.3933 17.6733 9.75333C19.4333 9.53333 20.6067 7.04 20.6067 5.42667C20.5333 3.22667 18.6267 2.93333 17.6 2.93333ZM4.40001 8.58C3.44667 8.21333 2.56667 6.6 2.56667 5.35333C2.56667 4.62 2.93334 4.10667 4.40001 4.03333V8.58ZM14.08 18.92C14.2267 18.92 14.3733 19.0667 14.3733 19.2133V20.9H7.62667V19.2133C7.62667 19.0667 7.77334 18.92 7.92001 18.92H14.08ZM10.56 17.82V15.1067H11.44V17.82H10.56ZM16.5 9.02C16.5 11.0733 15.18 14.0067 12.32 14.0067H9.16667C7.40667 14.0067 5.42667 11.9533 5.42667 9.02V1.17333H16.5V9.02ZM17.6 8.58V4.03333C19.0667 4.10667 19.36 4.62 19.36 5.42667C19.4333 6.67333 18.5533 8.28667 17.6 8.58Z" fill="#05E9F0"/>
</svg>
