<svg width="22" height="23" viewBox="0 0 22 23" fill="none" xmlns="http://www.w3.org/2000/svg">
<path fill-rule="evenodd" clip-rule="evenodd" d="M21.0833 17.3939H0.916677C0.663219 17.3939 0.458344 17.189 0.458344 16.9355V4.1022C0.458344 3.8492 0.663219 3.64387 0.916677 3.64387H21.0833C21.3368 3.64387 21.5417 3.8492 21.5417 4.1022V16.9355C21.5417 17.189 21.3368 17.3939 21.0833 17.3939ZM20.625 4.56053H1.37501V16.4772H20.625V4.56053ZM9.62501 7.76887C9.72309 7.76887 9.80834 7.80645 9.88305 7.8587L13.4448 10.0917C13.6217 10.1545 13.75 10.3199 13.75 10.5189C13.75 10.6678 13.6744 10.7943 13.5644 10.8777L9.90963 13.1607C9.8308 13.2249 9.73409 13.2689 9.62501 13.2689C9.37155 13.2689 9.16668 13.064 9.16668 12.8105V8.2272C9.16668 7.9742 9.37155 7.76887 9.62501 7.76887ZM6.87501 18.3105H15.125C15.3785 18.3105 15.5833 18.5154 15.5833 18.7689C15.5833 19.0223 15.3785 19.2272 15.125 19.2272H6.87501C6.62155 19.2272 6.41668 19.0223 6.41668 18.7689C6.41668 18.5154 6.62155 18.3105 6.87501 18.3105Z" fill="#05E9F0"/>
</svg>
